G04 #@! TF.GenerationSoftware,KiCad,Pcbnew,(5.1.2)-1*
G04 #@! TF.CreationDate,2019-06-15T01:06:45+09:00*
G04 #@! TF.ProjectId,ble5,626c6535-2e6b-4696-9361-645f70636258,v1.0*
G04 #@! TF.SameCoordinates,Original*
G04 #@! TF.FileFunction,Copper,L2,Bot*
G04 #@! TF.FilePolarity,Positive*
%FSLAX46Y46*%
G04 Gerber Fmt 4.6, Leading zero omitted, Abs format (unit mm)*
G04 Created by KiCad (PCBNEW (5.1.2)-1) date 2019-06-15 01:06:45*
%MOMM*%
%LPD*%
G04 APERTURE LIST*
%ADD10O,3.048000X1.524000*%
%ADD11O,1.524000X1.800000*%
%ADD12C,0.800000*%
%ADD13C,0.300000*%
%ADD14C,0.254000*%
G04 APERTURE END LIST*
D10*
X114300000Y-44450000D03*
X114300000Y-46990000D03*
X114300000Y-49530000D03*
X114300000Y-52070000D03*
X114300000Y-54610000D03*
X114300000Y-57150000D03*
X114300000Y-59690000D03*
X114300000Y-62230000D03*
X137160000Y-44450000D03*
X137160000Y-46990000D03*
X137160000Y-49530000D03*
X137160000Y-52070000D03*
X137160000Y-54610000D03*
X137160000Y-57150000D03*
X137160000Y-59690000D03*
X137160000Y-62230000D03*
D11*
X128700000Y-62500000D03*
X126700000Y-62500000D03*
X124700000Y-62500000D03*
X122700000Y-62500000D03*
D12*
X121896700Y-54171700D03*
X120400000Y-48675700D03*
X128900000Y-42100000D03*
X121900000Y-42100000D03*
X118100000Y-56400000D03*
X128400000Y-50800000D03*
X123500000Y-50700000D03*
X134000000Y-56500000D03*
X124088900Y-46735000D03*
X120860600Y-51075000D03*
X118681000Y-60117800D03*
X126009300Y-52647400D03*
X119832700Y-52639000D03*
X126762500Y-53630600D03*
X131549800Y-44743100D03*
X131611200Y-46731300D03*
X131530000Y-52871300D03*
X131587400Y-58918900D03*
D13*
X122700000Y-62500000D02*
X122700000Y-61249700D01*
X121896700Y-54171700D02*
X121896700Y-60446400D01*
X121896700Y-60446400D02*
X122700000Y-61249700D01*
X116174300Y-44450000D02*
X121896700Y-50172400D01*
X121896700Y-50172400D02*
X121896700Y-54171700D01*
X114300000Y-44450000D02*
X116174300Y-44450000D01*
X120400000Y-45800000D02*
X120400000Y-48675700D01*
X121900000Y-44300000D02*
X120400000Y-45800000D01*
X121900000Y-42100000D02*
X121900000Y-44300000D01*
X128900000Y-42100000D02*
X121900000Y-42100000D01*
X120400000Y-48675700D02*
X121475700Y-48675700D01*
X121475700Y-48675700D02*
X123500000Y-50700000D01*
X124700000Y-62500000D02*
X124700000Y-61249700D01*
X125073900Y-47720000D02*
X124088900Y-46735000D01*
X135285700Y-44450000D02*
X134825000Y-43989300D01*
X134825000Y-43989300D02*
X128804600Y-43989300D01*
X128804600Y-43989300D02*
X125073900Y-47720000D01*
X125073900Y-47720000D02*
X125073900Y-60875800D01*
X125073900Y-60875800D02*
X124700000Y-61249700D01*
X137160000Y-44450000D02*
X135285700Y-44450000D01*
X118681000Y-60117800D02*
X120860600Y-57938200D01*
X120860600Y-57938200D02*
X120860600Y-51075000D01*
X126009300Y-52647400D02*
X126009300Y-60559000D01*
X126009300Y-60559000D02*
X126700000Y-61249700D01*
X126700000Y-62500000D02*
X126700000Y-61249700D01*
X119832700Y-52639000D02*
X116174300Y-56297400D01*
X116174300Y-56297400D02*
X116174300Y-57150000D01*
X114300000Y-57150000D02*
X116174300Y-57150000D01*
X128700000Y-62500000D02*
X126762500Y-60562500D01*
X126762500Y-60562500D02*
X126762500Y-53630600D01*
X137160000Y-49530000D02*
X135285700Y-49530000D01*
X131549800Y-44743100D02*
X135285700Y-48479000D01*
X135285700Y-48479000D02*
X135285700Y-49530000D01*
X137160000Y-52070000D02*
X135285700Y-52070000D01*
X135285700Y-52070000D02*
X135285700Y-50405800D01*
X135285700Y-50405800D02*
X131611200Y-46731300D01*
X137160000Y-57150000D02*
X135285700Y-57150000D01*
X131530000Y-52871300D02*
X135285700Y-56627000D01*
X135285700Y-56627000D02*
X135285700Y-57150000D01*
X137160000Y-59690000D02*
X135285700Y-59690000D01*
X135285700Y-59690000D02*
X134514700Y-58919000D01*
X134514700Y-58919000D02*
X131587400Y-58919000D01*
X131587400Y-58919000D02*
X131587400Y-58918900D01*
D14*
G36*
X130514800Y-44845039D02*
G01*
X130554574Y-45044998D01*
X130632595Y-45233356D01*
X130745863Y-45402874D01*
X130890026Y-45547037D01*
X131059544Y-45660305D01*
X131247902Y-45738326D01*
X131285710Y-45745846D01*
X131120944Y-45814095D01*
X130951426Y-45927363D01*
X130807263Y-46071526D01*
X130693995Y-46241044D01*
X130615974Y-46429402D01*
X130576200Y-46629361D01*
X130576200Y-46833239D01*
X130615974Y-47033198D01*
X130693995Y-47221556D01*
X130807263Y-47391074D01*
X130951426Y-47535237D01*
X131120944Y-47648505D01*
X131309302Y-47726526D01*
X131509261Y-47766300D01*
X131536043Y-47766300D01*
X134500701Y-50730958D01*
X134500700Y-52031439D01*
X134496902Y-52070000D01*
X134512059Y-52223887D01*
X134556946Y-52371860D01*
X134629838Y-52508233D01*
X134712405Y-52608840D01*
X134727936Y-52627764D01*
X134847467Y-52725862D01*
X134983840Y-52798754D01*
X135131813Y-52843641D01*
X135233947Y-52853701D01*
X135405392Y-53062608D01*
X135618113Y-53237183D01*
X135810471Y-53340000D01*
X135618113Y-53442817D01*
X135405392Y-53617392D01*
X135230817Y-53830113D01*
X135101096Y-54072805D01*
X135021214Y-54336140D01*
X134994241Y-54610000D01*
X135021214Y-54883860D01*
X135101096Y-55147195D01*
X135230817Y-55389887D01*
X135405392Y-55602608D01*
X135618113Y-55777183D01*
X135810471Y-55880000D01*
X135705151Y-55936294D01*
X132565000Y-52796143D01*
X132565000Y-52769361D01*
X132525226Y-52569402D01*
X132447205Y-52381044D01*
X132333937Y-52211526D01*
X132189774Y-52067363D01*
X132020256Y-51954095D01*
X131831898Y-51876074D01*
X131631939Y-51836300D01*
X131428061Y-51836300D01*
X131228102Y-51876074D01*
X131039744Y-51954095D01*
X130870226Y-52067363D01*
X130726063Y-52211526D01*
X130612795Y-52381044D01*
X130534774Y-52569402D01*
X130495000Y-52769361D01*
X130495000Y-52973239D01*
X130534774Y-53173198D01*
X130612795Y-53361556D01*
X130726063Y-53531074D01*
X130870226Y-53675237D01*
X131039744Y-53788505D01*
X131228102Y-53866526D01*
X131428061Y-53906300D01*
X131454843Y-53906300D01*
X134500700Y-56952157D01*
X134500700Y-57111439D01*
X134496902Y-57150000D01*
X134512059Y-57303887D01*
X134556946Y-57451860D01*
X134629838Y-57588233D01*
X134727936Y-57707764D01*
X134847467Y-57805862D01*
X134983840Y-57878754D01*
X135131813Y-57923641D01*
X135233947Y-57933701D01*
X135405392Y-58142608D01*
X135618113Y-58317183D01*
X135810471Y-58420000D01*
X135618113Y-58522817D01*
X135405392Y-58697392D01*
X135404426Y-58698569D01*
X135097047Y-58391190D01*
X135072464Y-58361236D01*
X134952933Y-58263138D01*
X134816560Y-58190246D01*
X134668587Y-58145359D01*
X134553261Y-58134000D01*
X134553253Y-58134000D01*
X134514700Y-58130203D01*
X134476147Y-58134000D01*
X132266211Y-58134000D01*
X132247174Y-58114963D01*
X132077656Y-58001695D01*
X131889298Y-57923674D01*
X131689339Y-57883900D01*
X131485461Y-57883900D01*
X131285502Y-57923674D01*
X131097144Y-58001695D01*
X130927626Y-58114963D01*
X130783463Y-58259126D01*
X130670195Y-58428644D01*
X130592174Y-58617002D01*
X130552400Y-58816961D01*
X130552400Y-59020839D01*
X130592174Y-59220798D01*
X130670195Y-59409156D01*
X130783463Y-59578674D01*
X130927626Y-59722837D01*
X131097144Y-59836105D01*
X131285502Y-59914126D01*
X131485461Y-59953900D01*
X131689339Y-59953900D01*
X131889298Y-59914126D01*
X132077656Y-59836105D01*
X132247174Y-59722837D01*
X132266011Y-59704000D01*
X134189543Y-59704000D01*
X134703353Y-60217810D01*
X134727936Y-60247764D01*
X134847467Y-60345862D01*
X134958321Y-60405114D01*
X134983840Y-60418754D01*
X135131813Y-60463642D01*
X135206726Y-60471020D01*
X135233947Y-60473701D01*
X135405392Y-60682608D01*
X135618113Y-60857183D01*
X135810471Y-60960000D01*
X135618113Y-61062817D01*
X135405392Y-61237392D01*
X135230817Y-61450113D01*
X135101096Y-61692805D01*
X135021214Y-61956140D01*
X134994241Y-62230000D01*
X135021214Y-62503860D01*
X135101096Y-62767195D01*
X135230817Y-63009887D01*
X135405392Y-63222608D01*
X135487510Y-63290000D01*
X129935540Y-63290000D01*
X129996904Y-63175195D01*
X130076786Y-62911860D01*
X130097000Y-62706625D01*
X130097000Y-62293376D01*
X130076786Y-62088141D01*
X129996904Y-61824806D01*
X129867183Y-61582113D01*
X129692608Y-61369392D01*
X129479887Y-61194817D01*
X129237195Y-61065096D01*
X128973860Y-60985214D01*
X128700000Y-60958241D01*
X128426141Y-60985214D01*
X128325807Y-61015650D01*
X127547500Y-60237343D01*
X127547500Y-54309311D01*
X127566437Y-54290374D01*
X127679705Y-54120856D01*
X127757726Y-53932498D01*
X127797500Y-53732539D01*
X127797500Y-53528661D01*
X127757726Y-53328702D01*
X127679705Y-53140344D01*
X127566437Y-52970826D01*
X127422274Y-52826663D01*
X127252756Y-52713395D01*
X127064398Y-52635374D01*
X127044300Y-52631376D01*
X127044300Y-52545461D01*
X127004526Y-52345502D01*
X126926505Y-52157144D01*
X126813237Y-51987626D01*
X126669074Y-51843463D01*
X126499556Y-51730195D01*
X126311198Y-51652174D01*
X126111239Y-51612400D01*
X125907361Y-51612400D01*
X125858900Y-51622039D01*
X125858900Y-48045157D01*
X129129757Y-44774300D01*
X130514800Y-44774300D01*
X130514800Y-44845039D01*
X130514800Y-44845039D01*
G37*
X130514800Y-44845039D02*
X130554574Y-45044998D01*
X130632595Y-45233356D01*
X130745863Y-45402874D01*
X130890026Y-45547037D01*
X131059544Y-45660305D01*
X131247902Y-45738326D01*
X131285710Y-45745846D01*
X131120944Y-45814095D01*
X130951426Y-45927363D01*
X130807263Y-46071526D01*
X130693995Y-46241044D01*
X130615974Y-46429402D01*
X130576200Y-46629361D01*
X130576200Y-46833239D01*
X130615974Y-47033198D01*
X130693995Y-47221556D01*
X130807263Y-47391074D01*
X130951426Y-47535237D01*
X131120944Y-47648505D01*
X131309302Y-47726526D01*
X131509261Y-47766300D01*
X131536043Y-47766300D01*
X134500701Y-50730958D01*
X134500700Y-52031439D01*
X134496902Y-52070000D01*
X134512059Y-52223887D01*
X134556946Y-52371860D01*
X134629838Y-52508233D01*
X134712405Y-52608840D01*
X134727936Y-52627764D01*
X134847467Y-52725862D01*
X134983840Y-52798754D01*
X135131813Y-52843641D01*
X135233947Y-52853701D01*
X135405392Y-53062608D01*
X135618113Y-53237183D01*
X135810471Y-53340000D01*
X135618113Y-53442817D01*
X135405392Y-53617392D01*
X135230817Y-53830113D01*
X135101096Y-54072805D01*
X135021214Y-54336140D01*
X134994241Y-54610000D01*
X135021214Y-54883860D01*
X135101096Y-55147195D01*
X135230817Y-55389887D01*
X135405392Y-55602608D01*
X135618113Y-55777183D01*
X135810471Y-55880000D01*
X135705151Y-55936294D01*
X132565000Y-52796143D01*
X132565000Y-52769361D01*
X132525226Y-52569402D01*
X132447205Y-52381044D01*
X132333937Y-52211526D01*
X132189774Y-52067363D01*
X132020256Y-51954095D01*
X131831898Y-51876074D01*
X131631939Y-51836300D01*
X131428061Y-51836300D01*
X131228102Y-51876074D01*
X131039744Y-51954095D01*
X130870226Y-52067363D01*
X130726063Y-52211526D01*
X130612795Y-52381044D01*
X130534774Y-52569402D01*
X130495000Y-52769361D01*
X130495000Y-52973239D01*
X130534774Y-53173198D01*
X130612795Y-53361556D01*
X130726063Y-53531074D01*
X130870226Y-53675237D01*
X131039744Y-53788505D01*
X131228102Y-53866526D01*
X131428061Y-53906300D01*
X131454843Y-53906300D01*
X134500700Y-56952157D01*
X134500700Y-57111439D01*
X134496902Y-57150000D01*
X134512059Y-57303887D01*
X134556946Y-57451860D01*
X134629838Y-57588233D01*
X134727936Y-57707764D01*
X134847467Y-57805862D01*
X134983840Y-57878754D01*
X135131813Y-57923641D01*
X135233947Y-57933701D01*
X135405392Y-58142608D01*
X135618113Y-58317183D01*
X135810471Y-58420000D01*
X135618113Y-58522817D01*
X135405392Y-58697392D01*
X135404426Y-58698569D01*
X135097047Y-58391190D01*
X135072464Y-58361236D01*
X134952933Y-58263138D01*
X134816560Y-58190246D01*
X134668587Y-58145359D01*
X134553261Y-58134000D01*
X134553253Y-58134000D01*
X134514700Y-58130203D01*
X134476147Y-58134000D01*
X132266211Y-58134000D01*
X132247174Y-58114963D01*
X132077656Y-58001695D01*
X131889298Y-57923674D01*
X131689339Y-57883900D01*
X131485461Y-57883900D01*
X131285502Y-57923674D01*
X131097144Y-58001695D01*
X130927626Y-58114963D01*
X130783463Y-58259126D01*
X130670195Y-58428644D01*
X130592174Y-58617002D01*
X130552400Y-58816961D01*
X130552400Y-59020839D01*
X130592174Y-59220798D01*
X130670195Y-59409156D01*
X130783463Y-59578674D01*
X130927626Y-59722837D01*
X131097144Y-59836105D01*
X131285502Y-59914126D01*
X131485461Y-59953900D01*
X131689339Y-59953900D01*
X131889298Y-59914126D01*
X132077656Y-59836105D01*
X132247174Y-59722837D01*
X132266011Y-59704000D01*
X134189543Y-59704000D01*
X134703353Y-60217810D01*
X134727936Y-60247764D01*
X134847467Y-60345862D01*
X134958321Y-60405114D01*
X134983840Y-60418754D01*
X135131813Y-60463642D01*
X135206726Y-60471020D01*
X135233947Y-60473701D01*
X135405392Y-60682608D01*
X135618113Y-60857183D01*
X135810471Y-60960000D01*
X135618113Y-61062817D01*
X135405392Y-61237392D01*
X135230817Y-61450113D01*
X135101096Y-61692805D01*
X135021214Y-61956140D01*
X134994241Y-62230000D01*
X135021214Y-62503860D01*
X135101096Y-62767195D01*
X135230817Y-63009887D01*
X135405392Y-63222608D01*
X135487510Y-63290000D01*
X129935540Y-63290000D01*
X129996904Y-63175195D01*
X130076786Y-62911860D01*
X130097000Y-62706625D01*
X130097000Y-62293376D01*
X130076786Y-62088141D01*
X129996904Y-61824806D01*
X129867183Y-61582113D01*
X129692608Y-61369392D01*
X129479887Y-61194817D01*
X129237195Y-61065096D01*
X128973860Y-60985214D01*
X128700000Y-60958241D01*
X128426141Y-60985214D01*
X128325807Y-61015650D01*
X127547500Y-60237343D01*
X127547500Y-54309311D01*
X127566437Y-54290374D01*
X127679705Y-54120856D01*
X127757726Y-53932498D01*
X127797500Y-53732539D01*
X127797500Y-53528661D01*
X127757726Y-53328702D01*
X127679705Y-53140344D01*
X127566437Y-52970826D01*
X127422274Y-52826663D01*
X127252756Y-52713395D01*
X127064398Y-52635374D01*
X127044300Y-52631376D01*
X127044300Y-52545461D01*
X127004526Y-52345502D01*
X126926505Y-52157144D01*
X126813237Y-51987626D01*
X126669074Y-51843463D01*
X126499556Y-51730195D01*
X126311198Y-51652174D01*
X126111239Y-51612400D01*
X125907361Y-51612400D01*
X125858900Y-51622039D01*
X125858900Y-48045157D01*
X129129757Y-44774300D01*
X130514800Y-44774300D01*
X130514800Y-44845039D01*
G36*
X137290000Y-41034876D02*
G01*
X137290001Y-41034886D01*
X137290001Y-43053000D01*
X136329375Y-43053000D01*
X136124140Y-43073214D01*
X135860805Y-43153096D01*
X135618113Y-43282817D01*
X135405392Y-43457392D01*
X135404688Y-43458250D01*
X135382764Y-43431536D01*
X135263233Y-43333438D01*
X135126860Y-43260546D01*
X134978887Y-43215659D01*
X134863561Y-43204300D01*
X134863553Y-43204300D01*
X134825000Y-43200503D01*
X134786447Y-43204300D01*
X128843156Y-43204300D01*
X128804600Y-43200503D01*
X128766044Y-43204300D01*
X128766039Y-43204300D01*
X128729073Y-43207941D01*
X128650713Y-43215658D01*
X128502740Y-43260546D01*
X128366367Y-43333438D01*
X128246836Y-43431536D01*
X128222253Y-43461490D01*
X125111752Y-46571991D01*
X125084126Y-46433102D01*
X125006105Y-46244744D01*
X124892837Y-46075226D01*
X124748674Y-45931063D01*
X124579156Y-45817795D01*
X124390798Y-45739774D01*
X124190839Y-45700000D01*
X123986961Y-45700000D01*
X123787002Y-45739774D01*
X123598644Y-45817795D01*
X123429126Y-45931063D01*
X123284963Y-46075226D01*
X123171695Y-46244744D01*
X123093674Y-46433102D01*
X123053900Y-46633061D01*
X123053900Y-46836939D01*
X123093674Y-47036898D01*
X123171695Y-47225256D01*
X123284963Y-47394774D01*
X123429126Y-47538937D01*
X123598644Y-47652205D01*
X123787002Y-47730226D01*
X123986961Y-47770000D01*
X124013743Y-47770000D01*
X124288900Y-48045158D01*
X124288901Y-60550642D01*
X124172185Y-60667358D01*
X124142237Y-60691936D01*
X124117659Y-60721884D01*
X124117655Y-60721888D01*
X124117634Y-60721914D01*
X124044139Y-60811467D01*
X124009752Y-60875801D01*
X123971246Y-60947841D01*
X123926359Y-61095814D01*
X123916300Y-61197947D01*
X123707393Y-61369392D01*
X123694039Y-61385663D01*
X123530330Y-61237865D01*
X123295068Y-61097476D01*
X123043070Y-61007780D01*
X122827000Y-61130280D01*
X122827000Y-62373000D01*
X122847000Y-62373000D01*
X122847000Y-62627000D01*
X122827000Y-62627000D01*
X122827000Y-62647000D01*
X122573000Y-62647000D01*
X122573000Y-62627000D01*
X121461251Y-62627000D01*
X121317986Y-62845752D01*
X121385071Y-63111378D01*
X121469978Y-63290000D01*
X115972490Y-63290000D01*
X116054608Y-63222608D01*
X116229183Y-63009887D01*
X116358904Y-62767195D01*
X116438786Y-62503860D01*
X116465759Y-62230000D01*
X116458299Y-62154248D01*
X121317986Y-62154248D01*
X121461251Y-62373000D01*
X122573000Y-62373000D01*
X122573000Y-61130280D01*
X122356930Y-61007780D01*
X122104932Y-61097476D01*
X121869670Y-61237865D01*
X121666317Y-61421454D01*
X121502688Y-61641188D01*
X121385071Y-61888622D01*
X121317986Y-62154248D01*
X116458299Y-62154248D01*
X116438786Y-61956140D01*
X116358904Y-61692805D01*
X116229183Y-61450113D01*
X116054608Y-61237392D01*
X115841887Y-61062817D01*
X115649529Y-60960000D01*
X115841887Y-60857183D01*
X116054608Y-60682608D01*
X116229183Y-60469887D01*
X116358904Y-60227195D01*
X116438786Y-59963860D01*
X116465759Y-59690000D01*
X116438786Y-59416140D01*
X116358904Y-59152805D01*
X116229183Y-58910113D01*
X116054608Y-58697392D01*
X115841887Y-58522817D01*
X115649529Y-58420000D01*
X115841887Y-58317183D01*
X116054608Y-58142608D01*
X116226053Y-57933701D01*
X116328187Y-57923641D01*
X116476160Y-57878754D01*
X116612533Y-57805862D01*
X116732064Y-57707764D01*
X116830162Y-57588233D01*
X116903054Y-57451860D01*
X116947941Y-57303887D01*
X116959300Y-57188561D01*
X116963098Y-57150000D01*
X116959300Y-57111439D01*
X116959300Y-56622557D01*
X119907858Y-53674000D01*
X119934639Y-53674000D01*
X120075601Y-53645961D01*
X120075600Y-57613043D01*
X118605843Y-59082800D01*
X118579061Y-59082800D01*
X118379102Y-59122574D01*
X118190744Y-59200595D01*
X118021226Y-59313863D01*
X117877063Y-59458026D01*
X117763795Y-59627544D01*
X117685774Y-59815902D01*
X117646000Y-60015861D01*
X117646000Y-60219739D01*
X117685774Y-60419698D01*
X117763795Y-60608056D01*
X117877063Y-60777574D01*
X118021226Y-60921737D01*
X118190744Y-61035005D01*
X118379102Y-61113026D01*
X118579061Y-61152800D01*
X118782939Y-61152800D01*
X118982898Y-61113026D01*
X119171256Y-61035005D01*
X119340774Y-60921737D01*
X119484937Y-60777574D01*
X119598205Y-60608056D01*
X119676226Y-60419698D01*
X119716000Y-60219739D01*
X119716000Y-60192957D01*
X121388411Y-58520546D01*
X121418364Y-58495964D01*
X121516462Y-58376433D01*
X121589354Y-58240060D01*
X121604465Y-58190246D01*
X121634242Y-58092087D01*
X121643144Y-58001695D01*
X121645600Y-57976761D01*
X121645600Y-57976756D01*
X121649397Y-57938200D01*
X121645600Y-57899644D01*
X121645600Y-51753711D01*
X121664537Y-51734774D01*
X121777805Y-51565256D01*
X121855826Y-51376898D01*
X121895600Y-51176939D01*
X121895600Y-50973061D01*
X121855826Y-50773102D01*
X121777805Y-50584744D01*
X121664537Y-50415226D01*
X121520374Y-50271063D01*
X121350856Y-50157795D01*
X121162498Y-50079774D01*
X120962539Y-50040000D01*
X120758661Y-50040000D01*
X120558702Y-50079774D01*
X120370344Y-50157795D01*
X120200826Y-50271063D01*
X120056663Y-50415226D01*
X119943395Y-50584744D01*
X119865374Y-50773102D01*
X119825600Y-50973061D01*
X119825600Y-51176939D01*
X119865374Y-51376898D01*
X119943395Y-51565256D01*
X119974593Y-51611947D01*
X119934639Y-51604000D01*
X119730761Y-51604000D01*
X119530802Y-51643774D01*
X119342444Y-51721795D01*
X119172926Y-51835063D01*
X119028763Y-51979226D01*
X118915495Y-52148744D01*
X118837474Y-52337102D01*
X118797700Y-52537061D01*
X118797700Y-52563842D01*
X116421849Y-54939694D01*
X116438786Y-54883860D01*
X116465759Y-54610000D01*
X116438786Y-54336140D01*
X116358904Y-54072805D01*
X116229183Y-53830113D01*
X116054608Y-53617392D01*
X115841887Y-53442817D01*
X115649529Y-53340000D01*
X115841887Y-53237183D01*
X116054608Y-53062608D01*
X116229183Y-52849887D01*
X116358904Y-52607195D01*
X116438786Y-52343860D01*
X116465759Y-52070000D01*
X116438786Y-51796140D01*
X116358904Y-51532805D01*
X116229183Y-51290113D01*
X116054608Y-51077392D01*
X115841887Y-50902817D01*
X115649529Y-50800000D01*
X115841887Y-50697183D01*
X116054608Y-50522608D01*
X116229183Y-50309887D01*
X116358904Y-50067195D01*
X116438786Y-49803860D01*
X116465759Y-49530000D01*
X116438786Y-49256140D01*
X116358904Y-48992805D01*
X116229183Y-48750113D01*
X116054608Y-48537392D01*
X115841887Y-48362817D01*
X115649529Y-48260000D01*
X115841887Y-48157183D01*
X116054608Y-47982608D01*
X116229183Y-47769887D01*
X116358904Y-47527195D01*
X116438786Y-47263860D01*
X116465759Y-46990000D01*
X116438786Y-46716140D01*
X116358904Y-46452805D01*
X116229183Y-46210113D01*
X116054608Y-45997392D01*
X115841887Y-45822817D01*
X115647587Y-45718962D01*
X115713942Y-45692059D01*
X115943729Y-45541006D01*
X116139632Y-45348026D01*
X116294122Y-45120535D01*
X116401262Y-44867276D01*
X116416220Y-44793070D01*
X116293720Y-44577000D01*
X114427000Y-44577000D01*
X114427000Y-44597000D01*
X114173000Y-44597000D01*
X114173000Y-44577000D01*
X114153000Y-44577000D01*
X114153000Y-44323000D01*
X114173000Y-44323000D01*
X114173000Y-43053000D01*
X114427000Y-43053000D01*
X114427000Y-44323000D01*
X116293720Y-44323000D01*
X116416220Y-44106930D01*
X116401262Y-44032724D01*
X116294122Y-43779465D01*
X116139632Y-43551974D01*
X115943729Y-43358994D01*
X115713942Y-43207941D01*
X115459101Y-43104619D01*
X115189000Y-43053000D01*
X114427000Y-43053000D01*
X114173000Y-43053000D01*
X113710000Y-43053000D01*
X113710000Y-39710000D01*
X137290001Y-39710000D01*
X137290000Y-41034876D01*
X137290000Y-41034876D01*
G37*
X137290000Y-41034876D02*
X137290001Y-41034886D01*
X137290001Y-43053000D01*
X136329375Y-43053000D01*
X136124140Y-43073214D01*
X135860805Y-43153096D01*
X135618113Y-43282817D01*
X135405392Y-43457392D01*
X135404688Y-43458250D01*
X135382764Y-43431536D01*
X135263233Y-43333438D01*
X135126860Y-43260546D01*
X134978887Y-43215659D01*
X134863561Y-43204300D01*
X134863553Y-43204300D01*
X134825000Y-43200503D01*
X134786447Y-43204300D01*
X128843156Y-43204300D01*
X128804600Y-43200503D01*
X128766044Y-43204300D01*
X128766039Y-43204300D01*
X128729073Y-43207941D01*
X128650713Y-43215658D01*
X128502740Y-43260546D01*
X128366367Y-43333438D01*
X128246836Y-43431536D01*
X128222253Y-43461490D01*
X125111752Y-46571991D01*
X125084126Y-46433102D01*
X125006105Y-46244744D01*
X124892837Y-46075226D01*
X124748674Y-45931063D01*
X124579156Y-45817795D01*
X124390798Y-45739774D01*
X124190839Y-45700000D01*
X123986961Y-45700000D01*
X123787002Y-45739774D01*
X123598644Y-45817795D01*
X123429126Y-45931063D01*
X123284963Y-46075226D01*
X123171695Y-46244744D01*
X123093674Y-46433102D01*
X123053900Y-46633061D01*
X123053900Y-46836939D01*
X123093674Y-47036898D01*
X123171695Y-47225256D01*
X123284963Y-47394774D01*
X123429126Y-47538937D01*
X123598644Y-47652205D01*
X123787002Y-47730226D01*
X123986961Y-47770000D01*
X124013743Y-47770000D01*
X124288900Y-48045158D01*
X124288901Y-60550642D01*
X124172185Y-60667358D01*
X124142237Y-60691936D01*
X124117659Y-60721884D01*
X124117655Y-60721888D01*
X124117634Y-60721914D01*
X124044139Y-60811467D01*
X124009752Y-60875801D01*
X123971246Y-60947841D01*
X123926359Y-61095814D01*
X123916300Y-61197947D01*
X123707393Y-61369392D01*
X123694039Y-61385663D01*
X123530330Y-61237865D01*
X123295068Y-61097476D01*
X123043070Y-61007780D01*
X122827000Y-61130280D01*
X122827000Y-62373000D01*
X122847000Y-62373000D01*
X122847000Y-62627000D01*
X122827000Y-62627000D01*
X122827000Y-62647000D01*
X122573000Y-62647000D01*
X122573000Y-62627000D01*
X121461251Y-62627000D01*
X121317986Y-62845752D01*
X121385071Y-63111378D01*
X121469978Y-63290000D01*
X115972490Y-63290000D01*
X116054608Y-63222608D01*
X116229183Y-63009887D01*
X116358904Y-62767195D01*
X116438786Y-62503860D01*
X116465759Y-62230000D01*
X116458299Y-62154248D01*
X121317986Y-62154248D01*
X121461251Y-62373000D01*
X122573000Y-62373000D01*
X122573000Y-61130280D01*
X122356930Y-61007780D01*
X122104932Y-61097476D01*
X121869670Y-61237865D01*
X121666317Y-61421454D01*
X121502688Y-61641188D01*
X121385071Y-61888622D01*
X121317986Y-62154248D01*
X116458299Y-62154248D01*
X116438786Y-61956140D01*
X116358904Y-61692805D01*
X116229183Y-61450113D01*
X116054608Y-61237392D01*
X115841887Y-61062817D01*
X115649529Y-60960000D01*
X115841887Y-60857183D01*
X116054608Y-60682608D01*
X116229183Y-60469887D01*
X116358904Y-60227195D01*
X116438786Y-59963860D01*
X116465759Y-59690000D01*
X116438786Y-59416140D01*
X116358904Y-59152805D01*
X116229183Y-58910113D01*
X116054608Y-58697392D01*
X115841887Y-58522817D01*
X115649529Y-58420000D01*
X115841887Y-58317183D01*
X116054608Y-58142608D01*
X116226053Y-57933701D01*
X116328187Y-57923641D01*
X116476160Y-57878754D01*
X116612533Y-57805862D01*
X116732064Y-57707764D01*
X116830162Y-57588233D01*
X116903054Y-57451860D01*
X116947941Y-57303887D01*
X116959300Y-57188561D01*
X116963098Y-57150000D01*
X116959300Y-57111439D01*
X116959300Y-56622557D01*
X119907858Y-53674000D01*
X119934639Y-53674000D01*
X120075601Y-53645961D01*
X120075600Y-57613043D01*
X118605843Y-59082800D01*
X118579061Y-59082800D01*
X118379102Y-59122574D01*
X118190744Y-59200595D01*
X118021226Y-59313863D01*
X117877063Y-59458026D01*
X117763795Y-59627544D01*
X117685774Y-59815902D01*
X117646000Y-60015861D01*
X117646000Y-60219739D01*
X117685774Y-60419698D01*
X117763795Y-60608056D01*
X117877063Y-60777574D01*
X118021226Y-60921737D01*
X118190744Y-61035005D01*
X118379102Y-61113026D01*
X118579061Y-61152800D01*
X118782939Y-61152800D01*
X118982898Y-61113026D01*
X119171256Y-61035005D01*
X119340774Y-60921737D01*
X119484937Y-60777574D01*
X119598205Y-60608056D01*
X119676226Y-60419698D01*
X119716000Y-60219739D01*
X119716000Y-60192957D01*
X121388411Y-58520546D01*
X121418364Y-58495964D01*
X121516462Y-58376433D01*
X121589354Y-58240060D01*
X121604465Y-58190246D01*
X121634242Y-58092087D01*
X121643144Y-58001695D01*
X121645600Y-57976761D01*
X121645600Y-57976756D01*
X121649397Y-57938200D01*
X121645600Y-57899644D01*
X121645600Y-51753711D01*
X121664537Y-51734774D01*
X121777805Y-51565256D01*
X121855826Y-51376898D01*
X121895600Y-51176939D01*
X121895600Y-50973061D01*
X121855826Y-50773102D01*
X121777805Y-50584744D01*
X121664537Y-50415226D01*
X121520374Y-50271063D01*
X121350856Y-50157795D01*
X121162498Y-50079774D01*
X120962539Y-50040000D01*
X120758661Y-50040000D01*
X120558702Y-50079774D01*
X120370344Y-50157795D01*
X120200826Y-50271063D01*
X120056663Y-50415226D01*
X119943395Y-50584744D01*
X119865374Y-50773102D01*
X119825600Y-50973061D01*
X119825600Y-51176939D01*
X119865374Y-51376898D01*
X119943395Y-51565256D01*
X119974593Y-51611947D01*
X119934639Y-51604000D01*
X119730761Y-51604000D01*
X119530802Y-51643774D01*
X119342444Y-51721795D01*
X119172926Y-51835063D01*
X119028763Y-51979226D01*
X118915495Y-52148744D01*
X118837474Y-52337102D01*
X118797700Y-52537061D01*
X118797700Y-52563842D01*
X116421849Y-54939694D01*
X116438786Y-54883860D01*
X116465759Y-54610000D01*
X116438786Y-54336140D01*
X116358904Y-54072805D01*
X116229183Y-53830113D01*
X116054608Y-53617392D01*
X115841887Y-53442817D01*
X115649529Y-53340000D01*
X115841887Y-53237183D01*
X116054608Y-53062608D01*
X116229183Y-52849887D01*
X116358904Y-52607195D01*
X116438786Y-52343860D01*
X116465759Y-52070000D01*
X116438786Y-51796140D01*
X116358904Y-51532805D01*
X116229183Y-51290113D01*
X116054608Y-51077392D01*
X115841887Y-50902817D01*
X115649529Y-50800000D01*
X115841887Y-50697183D01*
X116054608Y-50522608D01*
X116229183Y-50309887D01*
X116358904Y-50067195D01*
X116438786Y-49803860D01*
X116465759Y-49530000D01*
X116438786Y-49256140D01*
X116358904Y-48992805D01*
X116229183Y-48750113D01*
X116054608Y-48537392D01*
X115841887Y-48362817D01*
X115649529Y-48260000D01*
X115841887Y-48157183D01*
X116054608Y-47982608D01*
X116229183Y-47769887D01*
X116358904Y-47527195D01*
X116438786Y-47263860D01*
X116465759Y-46990000D01*
X116438786Y-46716140D01*
X116358904Y-46452805D01*
X116229183Y-46210113D01*
X116054608Y-45997392D01*
X115841887Y-45822817D01*
X115647587Y-45718962D01*
X115713942Y-45692059D01*
X115943729Y-45541006D01*
X116139632Y-45348026D01*
X116294122Y-45120535D01*
X116401262Y-44867276D01*
X116416220Y-44793070D01*
X116293720Y-44577000D01*
X114427000Y-44577000D01*
X114427000Y-44597000D01*
X114173000Y-44597000D01*
X114173000Y-44577000D01*
X114153000Y-44577000D01*
X114153000Y-44323000D01*
X114173000Y-44323000D01*
X114173000Y-43053000D01*
X114427000Y-43053000D01*
X114427000Y-44323000D01*
X116293720Y-44323000D01*
X116416220Y-44106930D01*
X116401262Y-44032724D01*
X116294122Y-43779465D01*
X116139632Y-43551974D01*
X115943729Y-43358994D01*
X115713942Y-43207941D01*
X115459101Y-43104619D01*
X115189000Y-43053000D01*
X114427000Y-43053000D01*
X114173000Y-43053000D01*
X113710000Y-43053000D01*
X113710000Y-39710000D01*
X137290001Y-39710000D01*
X137290000Y-41034876D01*
M02*
