G04 #@! TF.GenerationSoftware,KiCad,Pcbnew,(5.1.2)-1*
G04 #@! TF.CreationDate,2019-06-15T01:06:45+09:00*
G04 #@! TF.ProjectId,ble5,626c6535-2e6b-4696-9361-645f70636258,v1.0*
G04 #@! TF.SameCoordinates,Original*
G04 #@! TF.FileFunction,Soldermask,Top*
G04 #@! TF.FilePolarity,Negative*
%FSLAX46Y46*%
G04 Gerber Fmt 4.6, Leading zero omitted, Abs format (unit mm)*
G04 Created by KiCad (PCBNEW (5.1.2)-1) date 2019-06-15 01:06:45*
%MOMM*%
%LPD*%
G04 APERTURE LIST*
%ADD10C,0.050000*%
G04 APERTURE END LIST*
D10*
G36*
X128888583Y-61413919D02*
G01*
X129069925Y-61468929D01*
X129237043Y-61558256D01*
X129383528Y-61678472D01*
X129503744Y-61824957D01*
X129593071Y-61992076D01*
X129648081Y-62173418D01*
X129662000Y-62314744D01*
X129662000Y-62685257D01*
X129648081Y-62826583D01*
X129593071Y-63007925D01*
X129503744Y-63175043D01*
X129383528Y-63321528D01*
X129237043Y-63441744D01*
X129069924Y-63531071D01*
X128888582Y-63586081D01*
X128700000Y-63604654D01*
X128511417Y-63586081D01*
X128330075Y-63531071D01*
X128162957Y-63441744D01*
X128016472Y-63321528D01*
X127896256Y-63175043D01*
X127810239Y-63014117D01*
X127796626Y-62993742D01*
X127779299Y-62976415D01*
X127758924Y-62962802D01*
X127736285Y-62953424D01*
X127712252Y-62948644D01*
X127687748Y-62948644D01*
X127663715Y-62953424D01*
X127641076Y-62962802D01*
X127620701Y-62976415D01*
X127603374Y-62993742D01*
X127589761Y-63014117D01*
X127503744Y-63175043D01*
X127383528Y-63321528D01*
X127237043Y-63441744D01*
X127069924Y-63531071D01*
X126888582Y-63586081D01*
X126700000Y-63604654D01*
X126511417Y-63586081D01*
X126330075Y-63531071D01*
X126162957Y-63441744D01*
X126016472Y-63321528D01*
X125896256Y-63175043D01*
X125810239Y-63014117D01*
X125796626Y-62993742D01*
X125779299Y-62976415D01*
X125758924Y-62962802D01*
X125736285Y-62953424D01*
X125712252Y-62948644D01*
X125687748Y-62948644D01*
X125663715Y-62953424D01*
X125641076Y-62962802D01*
X125620701Y-62976415D01*
X125603374Y-62993742D01*
X125589761Y-63014117D01*
X125503744Y-63175043D01*
X125383528Y-63321528D01*
X125237043Y-63441744D01*
X125069924Y-63531071D01*
X124888582Y-63586081D01*
X124700000Y-63604654D01*
X124511417Y-63586081D01*
X124330075Y-63531071D01*
X124162957Y-63441744D01*
X124016472Y-63321528D01*
X123896256Y-63175043D01*
X123810239Y-63014117D01*
X123796626Y-62993742D01*
X123779299Y-62976415D01*
X123758924Y-62962802D01*
X123736285Y-62953424D01*
X123712252Y-62948644D01*
X123687748Y-62948644D01*
X123663715Y-62953424D01*
X123641076Y-62962802D01*
X123620701Y-62976415D01*
X123603374Y-62993742D01*
X123589761Y-63014117D01*
X123503744Y-63175043D01*
X123383528Y-63321528D01*
X123237043Y-63441744D01*
X123069924Y-63531071D01*
X122888582Y-63586081D01*
X122700000Y-63604654D01*
X122511417Y-63586081D01*
X122330075Y-63531071D01*
X122162957Y-63441744D01*
X122016472Y-63321528D01*
X121896256Y-63175043D01*
X121806929Y-63007924D01*
X121751919Y-62826582D01*
X121738000Y-62685256D01*
X121738000Y-62314743D01*
X121751919Y-62173417D01*
X121806929Y-61992075D01*
X121896256Y-61824957D01*
X121917814Y-61798689D01*
X122016473Y-61678472D01*
X122162957Y-61558257D01*
X122162956Y-61558257D01*
X122162958Y-61558256D01*
X122330076Y-61468929D01*
X122511418Y-61413919D01*
X122700000Y-61395346D01*
X122888583Y-61413919D01*
X123069925Y-61468929D01*
X123237043Y-61558256D01*
X123383528Y-61678472D01*
X123503744Y-61824957D01*
X123589761Y-61985883D01*
X123603374Y-62006258D01*
X123620701Y-62023585D01*
X123641076Y-62037198D01*
X123663715Y-62046576D01*
X123687748Y-62051356D01*
X123712252Y-62051356D01*
X123736285Y-62046576D01*
X123758924Y-62037198D01*
X123779299Y-62023585D01*
X123796626Y-62006258D01*
X123810239Y-61985883D01*
X123896256Y-61824957D01*
X123917814Y-61798689D01*
X124016473Y-61678472D01*
X124162957Y-61558257D01*
X124162956Y-61558257D01*
X124162958Y-61558256D01*
X124330076Y-61468929D01*
X124511418Y-61413919D01*
X124700000Y-61395346D01*
X124888583Y-61413919D01*
X125069925Y-61468929D01*
X125237043Y-61558256D01*
X125383528Y-61678472D01*
X125503744Y-61824957D01*
X125589761Y-61985883D01*
X125603374Y-62006258D01*
X125620701Y-62023585D01*
X125641076Y-62037198D01*
X125663715Y-62046576D01*
X125687748Y-62051356D01*
X125712252Y-62051356D01*
X125736285Y-62046576D01*
X125758924Y-62037198D01*
X125779299Y-62023585D01*
X125796626Y-62006258D01*
X125810239Y-61985883D01*
X125896256Y-61824957D01*
X125917814Y-61798689D01*
X126016473Y-61678472D01*
X126162957Y-61558257D01*
X126162956Y-61558257D01*
X126162958Y-61558256D01*
X126330076Y-61468929D01*
X126511418Y-61413919D01*
X126700000Y-61395346D01*
X126888583Y-61413919D01*
X127069925Y-61468929D01*
X127237043Y-61558256D01*
X127383528Y-61678472D01*
X127503744Y-61824957D01*
X127589761Y-61985883D01*
X127603374Y-62006258D01*
X127620701Y-62023585D01*
X127641076Y-62037198D01*
X127663715Y-62046576D01*
X127687748Y-62051356D01*
X127712252Y-62051356D01*
X127736285Y-62046576D01*
X127758924Y-62037198D01*
X127779299Y-62023585D01*
X127796626Y-62006258D01*
X127810239Y-61985883D01*
X127896256Y-61824957D01*
X127917814Y-61798689D01*
X128016473Y-61678472D01*
X128162957Y-61558257D01*
X128162956Y-61558257D01*
X128162958Y-61558256D01*
X128330076Y-61468929D01*
X128511418Y-61413919D01*
X128700000Y-61395346D01*
X128888583Y-61413919D01*
X128888583Y-61413919D01*
G37*
G36*
X138110583Y-61281919D02*
G01*
X138291925Y-61336929D01*
X138459043Y-61426256D01*
X138605528Y-61546472D01*
X138725744Y-61692957D01*
X138815071Y-61860075D01*
X138870081Y-62041417D01*
X138888654Y-62230000D01*
X138870081Y-62418583D01*
X138815071Y-62599925D01*
X138725744Y-62767043D01*
X138605528Y-62913528D01*
X138459043Y-63033744D01*
X138291925Y-63123071D01*
X138110583Y-63178081D01*
X137969257Y-63192000D01*
X136350743Y-63192000D01*
X136209417Y-63178081D01*
X136028075Y-63123071D01*
X135860957Y-63033744D01*
X135714472Y-62913528D01*
X135594256Y-62767043D01*
X135504929Y-62599925D01*
X135449919Y-62418583D01*
X135431346Y-62230000D01*
X135449919Y-62041417D01*
X135504929Y-61860075D01*
X135594256Y-61692957D01*
X135714472Y-61546472D01*
X135860957Y-61426256D01*
X136028075Y-61336929D01*
X136209417Y-61281919D01*
X136350743Y-61268000D01*
X137969257Y-61268000D01*
X138110583Y-61281919D01*
X138110583Y-61281919D01*
G37*
G36*
X115250583Y-61281919D02*
G01*
X115431925Y-61336929D01*
X115599043Y-61426256D01*
X115745528Y-61546472D01*
X115865744Y-61692957D01*
X115955071Y-61860075D01*
X116010081Y-62041417D01*
X116028654Y-62230000D01*
X116010081Y-62418583D01*
X115955071Y-62599925D01*
X115865744Y-62767043D01*
X115745528Y-62913528D01*
X115599043Y-63033744D01*
X115431925Y-63123071D01*
X115250583Y-63178081D01*
X115109257Y-63192000D01*
X113490743Y-63192000D01*
X113349417Y-63178081D01*
X113168075Y-63123071D01*
X113000957Y-63033744D01*
X112854472Y-62913528D01*
X112734256Y-62767043D01*
X112644929Y-62599925D01*
X112589919Y-62418583D01*
X112571346Y-62230000D01*
X112589919Y-62041417D01*
X112644929Y-61860075D01*
X112734256Y-61692957D01*
X112854472Y-61546472D01*
X113000957Y-61426256D01*
X113168075Y-61336929D01*
X113349417Y-61281919D01*
X113490743Y-61268000D01*
X115109257Y-61268000D01*
X115250583Y-61281919D01*
X115250583Y-61281919D01*
G37*
G36*
X129875000Y-60875000D02*
G01*
X128425000Y-60875000D01*
X128425000Y-59825000D01*
X129875000Y-59825000D01*
X129875000Y-60875000D01*
X129875000Y-60875000D01*
G37*
G36*
X134025000Y-60875000D02*
G01*
X132575000Y-60875000D01*
X132575000Y-59825000D01*
X134025000Y-59825000D01*
X134025000Y-60875000D01*
X134025000Y-60875000D01*
G37*
G36*
X138110583Y-58741919D02*
G01*
X138291925Y-58796929D01*
X138459043Y-58886256D01*
X138605528Y-59006472D01*
X138725744Y-59152957D01*
X138815071Y-59320075D01*
X138870081Y-59501417D01*
X138888654Y-59690000D01*
X138870081Y-59878583D01*
X138815071Y-60059925D01*
X138725744Y-60227043D01*
X138605528Y-60373528D01*
X138459043Y-60493744D01*
X138291925Y-60583071D01*
X138110583Y-60638081D01*
X137969257Y-60652000D01*
X136350743Y-60652000D01*
X136209417Y-60638081D01*
X136028075Y-60583071D01*
X135860957Y-60493744D01*
X135714472Y-60373528D01*
X135594256Y-60227043D01*
X135504929Y-60059925D01*
X135449919Y-59878583D01*
X135431346Y-59690000D01*
X135449919Y-59501417D01*
X135504929Y-59320075D01*
X135594256Y-59152957D01*
X135714472Y-59006472D01*
X135860957Y-58886256D01*
X136028075Y-58796929D01*
X136209417Y-58741919D01*
X136350743Y-58728000D01*
X137969257Y-58728000D01*
X138110583Y-58741919D01*
X138110583Y-58741919D01*
G37*
G36*
X115250583Y-58741919D02*
G01*
X115431925Y-58796929D01*
X115599043Y-58886256D01*
X115745528Y-59006472D01*
X115865744Y-59152957D01*
X115955071Y-59320075D01*
X116010081Y-59501417D01*
X116028654Y-59690000D01*
X116010081Y-59878583D01*
X115955071Y-60059925D01*
X115865744Y-60227043D01*
X115745528Y-60373528D01*
X115599043Y-60493744D01*
X115431925Y-60583071D01*
X115250583Y-60638081D01*
X115109257Y-60652000D01*
X113490743Y-60652000D01*
X113349417Y-60638081D01*
X113168075Y-60583071D01*
X113000957Y-60493744D01*
X112854472Y-60373528D01*
X112734256Y-60227043D01*
X112644929Y-60059925D01*
X112589919Y-59878583D01*
X112571346Y-59690000D01*
X112589919Y-59501417D01*
X112644929Y-59320075D01*
X112734256Y-59152957D01*
X112854472Y-59006472D01*
X113000957Y-58886256D01*
X113168075Y-58796929D01*
X113349417Y-58741919D01*
X113490743Y-58728000D01*
X115109257Y-58728000D01*
X115250583Y-58741919D01*
X115250583Y-58741919D01*
G37*
G36*
X125424750Y-59939750D02*
G01*
X123975730Y-59939750D01*
X123975730Y-58460250D01*
X125424750Y-58460250D01*
X125424750Y-59939750D01*
X125424750Y-59939750D01*
G37*
G36*
X127172270Y-59939750D02*
G01*
X125723250Y-59939750D01*
X125723250Y-58460250D01*
X127172270Y-58460250D01*
X127172270Y-59939750D01*
X127172270Y-59939750D01*
G37*
G36*
X121931622Y-58530517D02*
G01*
X121979585Y-58545066D01*
X122023778Y-58568688D01*
X122062519Y-58600481D01*
X122094312Y-58639222D01*
X122117934Y-58683415D01*
X122132483Y-58731378D01*
X122138000Y-58787391D01*
X122138000Y-59612609D01*
X122132483Y-59668622D01*
X122117934Y-59716585D01*
X122094312Y-59760778D01*
X122062519Y-59799519D01*
X122023778Y-59831312D01*
X121979585Y-59854934D01*
X121931622Y-59869483D01*
X121875609Y-59875000D01*
X121125391Y-59875000D01*
X121069378Y-59869483D01*
X121021415Y-59854934D01*
X120977222Y-59831312D01*
X120938481Y-59799519D01*
X120906688Y-59760778D01*
X120883066Y-59716585D01*
X120868517Y-59668622D01*
X120863000Y-59612609D01*
X120863000Y-58787391D01*
X120868517Y-58731378D01*
X120883066Y-58683415D01*
X120906688Y-58639222D01*
X120938481Y-58600481D01*
X120977222Y-58568688D01*
X121021415Y-58545066D01*
X121069378Y-58530517D01*
X121125391Y-58525000D01*
X121875609Y-58525000D01*
X121931622Y-58530517D01*
X121931622Y-58530517D01*
G37*
G36*
X123506622Y-58530517D02*
G01*
X123554585Y-58545066D01*
X123598778Y-58568688D01*
X123637519Y-58600481D01*
X123669312Y-58639222D01*
X123692934Y-58683415D01*
X123707483Y-58731378D01*
X123713000Y-58787391D01*
X123713000Y-59612609D01*
X123707483Y-59668622D01*
X123692934Y-59716585D01*
X123669312Y-59760778D01*
X123637519Y-59799519D01*
X123598778Y-59831312D01*
X123554585Y-59854934D01*
X123506622Y-59869483D01*
X123450609Y-59875000D01*
X122700391Y-59875000D01*
X122644378Y-59869483D01*
X122596415Y-59854934D01*
X122552222Y-59831312D01*
X122513481Y-59799519D01*
X122481688Y-59760778D01*
X122458066Y-59716585D01*
X122443517Y-59668622D01*
X122438000Y-59612609D01*
X122438000Y-58787391D01*
X122443517Y-58731378D01*
X122458066Y-58683415D01*
X122481688Y-58639222D01*
X122513481Y-58600481D01*
X122552222Y-58568688D01*
X122596415Y-58545066D01*
X122644378Y-58530517D01*
X122700391Y-58525000D01*
X123450609Y-58525000D01*
X123506622Y-58530517D01*
X123506622Y-58530517D01*
G37*
G36*
X118443622Y-58430517D02*
G01*
X118491585Y-58445066D01*
X118535778Y-58468688D01*
X118574519Y-58500481D01*
X118606312Y-58539222D01*
X118629934Y-58583415D01*
X118644483Y-58631378D01*
X118650000Y-58687391D01*
X118650000Y-59512609D01*
X118644483Y-59568622D01*
X118629934Y-59616585D01*
X118606312Y-59660778D01*
X118574519Y-59699519D01*
X118535778Y-59731312D01*
X118491585Y-59754934D01*
X118443622Y-59769483D01*
X118387609Y-59775000D01*
X117637391Y-59775000D01*
X117581378Y-59769483D01*
X117533415Y-59754934D01*
X117489222Y-59731312D01*
X117450481Y-59699519D01*
X117418688Y-59660778D01*
X117395066Y-59616585D01*
X117380517Y-59568622D01*
X117375000Y-59512609D01*
X117375000Y-58687391D01*
X117380517Y-58631378D01*
X117395066Y-58583415D01*
X117418688Y-58539222D01*
X117450481Y-58500481D01*
X117489222Y-58468688D01*
X117533415Y-58445066D01*
X117581378Y-58430517D01*
X117637391Y-58425000D01*
X118387609Y-58425000D01*
X118443622Y-58430517D01*
X118443622Y-58430517D01*
G37*
G36*
X120018622Y-58430517D02*
G01*
X120066585Y-58445066D01*
X120110778Y-58468688D01*
X120149519Y-58500481D01*
X120181312Y-58539222D01*
X120204934Y-58583415D01*
X120219483Y-58631378D01*
X120225000Y-58687391D01*
X120225000Y-59512609D01*
X120219483Y-59568622D01*
X120204934Y-59616585D01*
X120181312Y-59660778D01*
X120149519Y-59699519D01*
X120110778Y-59731312D01*
X120066585Y-59754934D01*
X120018622Y-59769483D01*
X119962609Y-59775000D01*
X119212391Y-59775000D01*
X119156378Y-59769483D01*
X119108415Y-59754934D01*
X119064222Y-59731312D01*
X119025481Y-59699519D01*
X118993688Y-59660778D01*
X118970066Y-59616585D01*
X118955517Y-59568622D01*
X118950000Y-59512609D01*
X118950000Y-58687391D01*
X118955517Y-58631378D01*
X118970066Y-58583415D01*
X118993688Y-58539222D01*
X119025481Y-58500481D01*
X119064222Y-58468688D01*
X119108415Y-58445066D01*
X119156378Y-58430517D01*
X119212391Y-58425000D01*
X119962609Y-58425000D01*
X120018622Y-58430517D01*
X120018622Y-58430517D01*
G37*
G36*
X134025000Y-58725000D02*
G01*
X132575000Y-58725000D01*
X132575000Y-57675000D01*
X134025000Y-57675000D01*
X134025000Y-58725000D01*
X134025000Y-58725000D01*
G37*
G36*
X129875000Y-58725000D02*
G01*
X128425000Y-58725000D01*
X128425000Y-57675000D01*
X129875000Y-57675000D01*
X129875000Y-58725000D01*
X129875000Y-58725000D01*
G37*
G36*
X138110583Y-56201919D02*
G01*
X138291925Y-56256929D01*
X138459043Y-56346256D01*
X138605528Y-56466472D01*
X138725744Y-56612957D01*
X138815071Y-56780075D01*
X138870081Y-56961417D01*
X138888654Y-57150000D01*
X138870081Y-57338583D01*
X138815071Y-57519925D01*
X138725744Y-57687043D01*
X138605528Y-57833528D01*
X138459043Y-57953744D01*
X138291925Y-58043071D01*
X138110583Y-58098081D01*
X137969257Y-58112000D01*
X136350743Y-58112000D01*
X136209417Y-58098081D01*
X136028075Y-58043071D01*
X135860957Y-57953744D01*
X135714472Y-57833528D01*
X135594256Y-57687043D01*
X135504929Y-57519925D01*
X135449919Y-57338583D01*
X135431346Y-57150000D01*
X135449919Y-56961417D01*
X135504929Y-56780075D01*
X135594256Y-56612957D01*
X135714472Y-56466472D01*
X135860957Y-56346256D01*
X136028075Y-56256929D01*
X136209417Y-56201919D01*
X136350743Y-56188000D01*
X137969257Y-56188000D01*
X138110583Y-56201919D01*
X138110583Y-56201919D01*
G37*
G36*
X115250583Y-56201919D02*
G01*
X115431925Y-56256929D01*
X115599043Y-56346256D01*
X115745528Y-56466472D01*
X115865744Y-56612957D01*
X115955071Y-56780075D01*
X116010081Y-56961417D01*
X116028654Y-57150000D01*
X116010081Y-57338583D01*
X115955071Y-57519925D01*
X115865744Y-57687043D01*
X115745528Y-57833528D01*
X115599043Y-57953744D01*
X115431925Y-58043071D01*
X115250583Y-58098081D01*
X115109257Y-58112000D01*
X113490743Y-58112000D01*
X113349417Y-58098081D01*
X113168075Y-58043071D01*
X113000957Y-57953744D01*
X112854472Y-57833528D01*
X112734256Y-57687043D01*
X112644929Y-57519925D01*
X112589919Y-57338583D01*
X112571346Y-57150000D01*
X112589919Y-56961417D01*
X112644929Y-56780075D01*
X112734256Y-56612957D01*
X112854472Y-56466472D01*
X113000957Y-56346256D01*
X113168075Y-56256929D01*
X113349417Y-56201919D01*
X113490743Y-56188000D01*
X115109257Y-56188000D01*
X115250583Y-56201919D01*
X115250583Y-56201919D01*
G37*
G36*
X118883701Y-40598392D02*
G01*
X118993030Y-40631557D01*
X119093789Y-40685414D01*
X119182107Y-40757893D01*
X119254586Y-40846211D01*
X119308443Y-40946970D01*
X119341608Y-41056299D01*
X119352806Y-41170000D01*
X119341608Y-41283701D01*
X119308443Y-41393030D01*
X119254586Y-41493789D01*
X119182107Y-41582107D01*
X119093789Y-41654586D01*
X119018627Y-41694761D01*
X118998253Y-41708374D01*
X118980926Y-41725701D01*
X118967312Y-41746076D01*
X118957934Y-41768715D01*
X118953154Y-41792748D01*
X118953154Y-41817252D01*
X118957934Y-41841285D01*
X118967312Y-41863924D01*
X118980925Y-41884298D01*
X118998252Y-41901625D01*
X119018627Y-41915239D01*
X119093789Y-41955414D01*
X119182107Y-42027893D01*
X119254586Y-42116211D01*
X119308443Y-42216970D01*
X119341608Y-42326299D01*
X119352806Y-42440000D01*
X119341608Y-42553701D01*
X119308443Y-42663030D01*
X119254586Y-42763789D01*
X119182107Y-42852107D01*
X119093789Y-42924586D01*
X119018627Y-42964761D01*
X118998253Y-42978374D01*
X118980926Y-42995701D01*
X118967312Y-43016076D01*
X118957934Y-43038715D01*
X118953154Y-43062748D01*
X118953154Y-43087252D01*
X118957934Y-43111285D01*
X118967312Y-43133924D01*
X118980925Y-43154298D01*
X118998252Y-43171625D01*
X119018627Y-43185239D01*
X119093789Y-43225414D01*
X119182107Y-43297893D01*
X119254586Y-43386211D01*
X119308443Y-43486970D01*
X119341608Y-43596299D01*
X119352806Y-43710000D01*
X119341608Y-43823701D01*
X119308443Y-43933030D01*
X119254586Y-44033789D01*
X119182107Y-44122107D01*
X119093789Y-44194586D01*
X119018627Y-44234761D01*
X118998253Y-44248374D01*
X118980926Y-44265701D01*
X118967312Y-44286076D01*
X118957934Y-44308715D01*
X118953154Y-44332748D01*
X118953154Y-44357252D01*
X118957934Y-44381285D01*
X118967312Y-44403924D01*
X118980925Y-44424298D01*
X118998252Y-44441625D01*
X119018627Y-44455239D01*
X119093789Y-44495414D01*
X119182107Y-44567893D01*
X119254586Y-44656211D01*
X119308443Y-44756970D01*
X119341608Y-44866299D01*
X119352806Y-44980000D01*
X119341608Y-45093701D01*
X119308443Y-45203030D01*
X119254586Y-45303789D01*
X119182107Y-45392107D01*
X119093789Y-45464586D01*
X119018627Y-45504761D01*
X118998253Y-45518374D01*
X118980926Y-45535701D01*
X118967312Y-45556076D01*
X118957934Y-45578715D01*
X118953154Y-45602748D01*
X118953154Y-45627252D01*
X118957934Y-45651285D01*
X118967312Y-45673924D01*
X118980925Y-45694298D01*
X118998252Y-45711625D01*
X119018627Y-45725239D01*
X119093789Y-45765414D01*
X119182107Y-45837893D01*
X119254586Y-45926211D01*
X119308443Y-46026970D01*
X119341608Y-46136299D01*
X119352806Y-46250000D01*
X119341608Y-46363701D01*
X119308443Y-46473030D01*
X119254586Y-46573789D01*
X119182107Y-46662107D01*
X119093789Y-46734586D01*
X119018627Y-46774761D01*
X118998253Y-46788374D01*
X118980926Y-46805701D01*
X118967312Y-46826076D01*
X118957934Y-46848715D01*
X118953154Y-46872748D01*
X118953154Y-46897252D01*
X118957934Y-46921285D01*
X118967312Y-46943924D01*
X118980925Y-46964298D01*
X118998252Y-46981625D01*
X119018627Y-46995239D01*
X119093789Y-47035414D01*
X119182107Y-47107893D01*
X119254586Y-47196211D01*
X119308443Y-47296970D01*
X119341608Y-47406299D01*
X119352806Y-47520000D01*
X119341608Y-47633701D01*
X119308443Y-47743030D01*
X119254586Y-47843789D01*
X119182107Y-47932107D01*
X119093789Y-48004586D01*
X119018627Y-48044761D01*
X118998253Y-48058374D01*
X118980926Y-48075701D01*
X118967312Y-48096076D01*
X118957934Y-48118715D01*
X118953154Y-48142748D01*
X118953154Y-48167252D01*
X118957934Y-48191285D01*
X118967312Y-48213924D01*
X118980925Y-48234298D01*
X118998252Y-48251625D01*
X119018627Y-48265239D01*
X119093789Y-48305414D01*
X119182107Y-48377893D01*
X119254586Y-48466211D01*
X119308443Y-48566970D01*
X119341608Y-48676299D01*
X119352806Y-48790000D01*
X119341608Y-48903701D01*
X119308443Y-49013030D01*
X119254586Y-49113789D01*
X119182107Y-49202107D01*
X119093789Y-49274586D01*
X119018627Y-49314761D01*
X118998253Y-49328374D01*
X118980926Y-49345701D01*
X118967312Y-49366076D01*
X118957934Y-49388715D01*
X118953154Y-49412748D01*
X118953154Y-49437252D01*
X118957934Y-49461285D01*
X118967312Y-49483924D01*
X118980925Y-49504298D01*
X118998252Y-49521625D01*
X119018627Y-49535239D01*
X119093789Y-49575414D01*
X119182107Y-49647893D01*
X119254586Y-49736211D01*
X119308443Y-49836970D01*
X119341608Y-49946299D01*
X119352806Y-50060000D01*
X119341608Y-50173701D01*
X119308443Y-50283030D01*
X119254586Y-50383789D01*
X119182107Y-50472107D01*
X119093789Y-50544586D01*
X119018627Y-50584761D01*
X118998253Y-50598374D01*
X118980926Y-50615701D01*
X118967312Y-50636076D01*
X118957934Y-50658715D01*
X118953154Y-50682748D01*
X118953154Y-50707252D01*
X118957934Y-50731285D01*
X118967312Y-50753924D01*
X118980925Y-50774298D01*
X118998252Y-50791625D01*
X119018627Y-50805239D01*
X119093789Y-50845414D01*
X119182107Y-50917893D01*
X119254586Y-51006211D01*
X119308443Y-51106970D01*
X119341608Y-51216299D01*
X119352806Y-51330000D01*
X119341608Y-51443701D01*
X119308443Y-51553030D01*
X119254586Y-51653789D01*
X119182107Y-51742107D01*
X119093789Y-51814586D01*
X119018627Y-51854761D01*
X118998253Y-51868374D01*
X118980926Y-51885701D01*
X118967312Y-51906076D01*
X118957934Y-51928715D01*
X118953154Y-51952748D01*
X118953154Y-51977252D01*
X118957934Y-52001285D01*
X118967312Y-52023924D01*
X118980925Y-52044298D01*
X118998252Y-52061625D01*
X119018627Y-52075239D01*
X119093789Y-52115414D01*
X119182107Y-52187893D01*
X119254586Y-52276211D01*
X119308443Y-52376970D01*
X119341608Y-52486299D01*
X119352806Y-52600000D01*
X119341608Y-52713701D01*
X119308443Y-52823030D01*
X119254586Y-52923789D01*
X119182107Y-53012107D01*
X119093789Y-53084586D01*
X119018627Y-53124761D01*
X118998253Y-53138374D01*
X118980926Y-53155701D01*
X118967312Y-53176076D01*
X118957934Y-53198715D01*
X118953154Y-53222748D01*
X118953154Y-53247252D01*
X118957934Y-53271285D01*
X118967312Y-53293924D01*
X118980925Y-53314298D01*
X118998252Y-53331625D01*
X119018627Y-53345239D01*
X119093789Y-53385414D01*
X119182107Y-53457893D01*
X119254586Y-53546211D01*
X119308443Y-53646970D01*
X119341608Y-53756299D01*
X119352806Y-53870000D01*
X119341608Y-53983701D01*
X119308443Y-54093030D01*
X119254586Y-54193789D01*
X119182107Y-54282107D01*
X119093789Y-54354586D01*
X119018627Y-54394761D01*
X118998253Y-54408374D01*
X118980926Y-54425701D01*
X118967312Y-54446076D01*
X118957934Y-54468715D01*
X118953154Y-54492748D01*
X118953154Y-54517252D01*
X118957934Y-54541285D01*
X118967312Y-54563924D01*
X118980925Y-54584298D01*
X118998252Y-54601625D01*
X119018627Y-54615239D01*
X119093789Y-54655414D01*
X119182107Y-54727893D01*
X119240121Y-54798585D01*
X119254585Y-54816210D01*
X119266652Y-54838785D01*
X119280263Y-54859155D01*
X119297590Y-54876482D01*
X119317964Y-54890096D01*
X119340603Y-54899473D01*
X119364636Y-54904254D01*
X119389141Y-54904254D01*
X119413174Y-54899474D01*
X119435813Y-54890097D01*
X119456187Y-54876483D01*
X119473515Y-54859155D01*
X119527894Y-54792894D01*
X119616210Y-54720414D01*
X119716970Y-54666557D01*
X119826299Y-54633392D01*
X119940000Y-54622194D01*
X120053700Y-54633392D01*
X120163029Y-54666557D01*
X120263788Y-54720414D01*
X120352106Y-54792894D01*
X120424586Y-54881210D01*
X120464761Y-54956373D01*
X120478374Y-54976747D01*
X120495701Y-54994074D01*
X120516076Y-55007688D01*
X120538715Y-55017066D01*
X120562748Y-55021846D01*
X120587252Y-55021846D01*
X120611285Y-55017066D01*
X120633924Y-55007688D01*
X120654298Y-54994075D01*
X120671625Y-54976748D01*
X120685239Y-54956373D01*
X120725414Y-54881212D01*
X120797894Y-54792894D01*
X120886210Y-54720414D01*
X120986970Y-54666557D01*
X121096299Y-54633392D01*
X121210000Y-54622194D01*
X121323700Y-54633392D01*
X121433029Y-54666557D01*
X121533788Y-54720414D01*
X121622106Y-54792894D01*
X121694586Y-54881210D01*
X121734761Y-54956373D01*
X121748374Y-54976747D01*
X121765701Y-54994074D01*
X121786076Y-55007688D01*
X121808715Y-55017066D01*
X121832748Y-55021846D01*
X121857252Y-55021846D01*
X121881285Y-55017066D01*
X121903924Y-55007688D01*
X121924298Y-54994075D01*
X121941625Y-54976748D01*
X121955239Y-54956373D01*
X121995414Y-54881212D01*
X122067894Y-54792894D01*
X122156210Y-54720414D01*
X122256970Y-54666557D01*
X122366299Y-54633392D01*
X122480000Y-54622194D01*
X122593700Y-54633392D01*
X122703029Y-54666557D01*
X122803788Y-54720414D01*
X122892106Y-54792894D01*
X122964586Y-54881210D01*
X123004761Y-54956373D01*
X123018374Y-54976747D01*
X123035701Y-54994074D01*
X123056076Y-55007688D01*
X123078715Y-55017066D01*
X123102748Y-55021846D01*
X123127252Y-55021846D01*
X123151285Y-55017066D01*
X123173924Y-55007688D01*
X123194298Y-54994075D01*
X123211625Y-54976748D01*
X123225239Y-54956373D01*
X123265414Y-54881212D01*
X123337894Y-54792894D01*
X123426210Y-54720414D01*
X123526970Y-54666557D01*
X123636299Y-54633392D01*
X123750000Y-54622194D01*
X123863700Y-54633392D01*
X123973029Y-54666557D01*
X124073788Y-54720414D01*
X124162106Y-54792894D01*
X124234586Y-54881210D01*
X124274761Y-54956373D01*
X124288374Y-54976747D01*
X124305701Y-54994074D01*
X124326076Y-55007688D01*
X124348715Y-55017066D01*
X124372748Y-55021846D01*
X124397252Y-55021846D01*
X124421285Y-55017066D01*
X124443924Y-55007688D01*
X124464298Y-54994075D01*
X124481625Y-54976748D01*
X124495239Y-54956373D01*
X124535414Y-54881212D01*
X124607894Y-54792894D01*
X124696210Y-54720414D01*
X124796970Y-54666557D01*
X124906299Y-54633392D01*
X125020000Y-54622194D01*
X125133700Y-54633392D01*
X125243029Y-54666557D01*
X125343788Y-54720414D01*
X125432106Y-54792894D01*
X125504586Y-54881210D01*
X125544761Y-54956373D01*
X125558374Y-54976747D01*
X125575701Y-54994074D01*
X125596076Y-55007688D01*
X125618715Y-55017066D01*
X125642748Y-55021846D01*
X125667252Y-55021846D01*
X125691285Y-55017066D01*
X125713924Y-55007688D01*
X125734298Y-54994075D01*
X125751625Y-54976748D01*
X125765239Y-54956373D01*
X125805414Y-54881212D01*
X125877894Y-54792894D01*
X125966210Y-54720414D01*
X126066970Y-54666557D01*
X126176299Y-54633392D01*
X126290000Y-54622194D01*
X126403700Y-54633392D01*
X126513029Y-54666557D01*
X126613788Y-54720414D01*
X126702106Y-54792894D01*
X126774586Y-54881210D01*
X126814761Y-54956373D01*
X126828374Y-54976747D01*
X126845701Y-54994074D01*
X126866076Y-55007688D01*
X126888715Y-55017066D01*
X126912748Y-55021846D01*
X126937252Y-55021846D01*
X126961285Y-55017066D01*
X126983924Y-55007688D01*
X127004298Y-54994075D01*
X127021625Y-54976748D01*
X127035239Y-54956373D01*
X127075414Y-54881212D01*
X127147894Y-54792894D01*
X127236210Y-54720414D01*
X127336970Y-54666557D01*
X127446299Y-54633392D01*
X127560000Y-54622194D01*
X127673700Y-54633392D01*
X127783029Y-54666557D01*
X127883788Y-54720414D01*
X127972106Y-54792894D01*
X128044586Y-54881210D01*
X128084761Y-54956373D01*
X128098374Y-54976747D01*
X128115701Y-54994074D01*
X128136076Y-55007688D01*
X128158715Y-55017066D01*
X128182748Y-55021846D01*
X128207252Y-55021846D01*
X128231285Y-55017066D01*
X128253924Y-55007688D01*
X128274298Y-54994075D01*
X128291625Y-54976748D01*
X128305239Y-54956373D01*
X128345414Y-54881212D01*
X128417894Y-54792894D01*
X128506210Y-54720414D01*
X128606970Y-54666557D01*
X128716299Y-54633392D01*
X128830000Y-54622194D01*
X128943700Y-54633392D01*
X129053029Y-54666557D01*
X129153788Y-54720414D01*
X129242106Y-54792894D01*
X129314586Y-54881210D01*
X129354761Y-54956373D01*
X129368374Y-54976747D01*
X129385701Y-54994074D01*
X129406076Y-55007688D01*
X129428715Y-55017066D01*
X129452748Y-55021846D01*
X129477252Y-55021846D01*
X129501285Y-55017066D01*
X129523924Y-55007688D01*
X129544298Y-54994075D01*
X129561625Y-54976748D01*
X129575239Y-54956373D01*
X129615414Y-54881212D01*
X129687894Y-54792894D01*
X129776210Y-54720414D01*
X129876970Y-54666557D01*
X129986299Y-54633392D01*
X130100000Y-54622194D01*
X130213700Y-54633392D01*
X130323029Y-54666557D01*
X130423788Y-54720414D01*
X130512106Y-54792894D01*
X130584586Y-54881210D01*
X130624761Y-54956373D01*
X130638374Y-54976747D01*
X130655701Y-54994074D01*
X130676076Y-55007688D01*
X130698715Y-55017066D01*
X130722748Y-55021846D01*
X130747252Y-55021846D01*
X130771285Y-55017066D01*
X130793924Y-55007688D01*
X130814298Y-54994075D01*
X130831625Y-54976748D01*
X130845239Y-54956373D01*
X130885414Y-54881212D01*
X130957894Y-54792894D01*
X131046210Y-54720414D01*
X131146970Y-54666557D01*
X131256299Y-54633392D01*
X131370000Y-54622194D01*
X131483700Y-54633392D01*
X131593029Y-54666557D01*
X131693788Y-54720414D01*
X131782106Y-54792893D01*
X131836485Y-54859155D01*
X131853812Y-54876482D01*
X131874187Y-54890096D01*
X131896825Y-54899474D01*
X131920859Y-54904254D01*
X131945363Y-54904254D01*
X131969396Y-54899474D01*
X131992035Y-54890096D01*
X132012409Y-54876483D01*
X132029736Y-54859156D01*
X132043348Y-54838785D01*
X132055415Y-54816210D01*
X132069879Y-54798585D01*
X132127893Y-54727893D01*
X132216211Y-54655414D01*
X132291373Y-54615239D01*
X132311747Y-54601626D01*
X132329074Y-54584299D01*
X132342688Y-54563924D01*
X132352066Y-54541285D01*
X132356846Y-54517252D01*
X132356846Y-54492748D01*
X132352066Y-54468715D01*
X132342688Y-54446076D01*
X132329075Y-54425702D01*
X132311748Y-54408375D01*
X132291373Y-54394761D01*
X132216211Y-54354586D01*
X132127893Y-54282107D01*
X132055414Y-54193789D01*
X132001557Y-54093030D01*
X131968392Y-53983701D01*
X131957194Y-53870000D01*
X131968392Y-53756299D01*
X132001557Y-53646970D01*
X132055414Y-53546211D01*
X132127893Y-53457893D01*
X132216211Y-53385414D01*
X132291373Y-53345239D01*
X132311747Y-53331626D01*
X132329074Y-53314299D01*
X132342688Y-53293924D01*
X132352066Y-53271285D01*
X132356846Y-53247252D01*
X132356846Y-53222748D01*
X132352066Y-53198715D01*
X132342688Y-53176076D01*
X132329075Y-53155702D01*
X132311748Y-53138375D01*
X132291373Y-53124761D01*
X132216211Y-53084586D01*
X132127893Y-53012107D01*
X132055414Y-52923789D01*
X132001557Y-52823030D01*
X131968392Y-52713701D01*
X131957194Y-52600000D01*
X131968392Y-52486299D01*
X132001557Y-52376970D01*
X132055414Y-52276211D01*
X132127893Y-52187893D01*
X132216211Y-52115414D01*
X132291373Y-52075239D01*
X132311747Y-52061626D01*
X132329074Y-52044299D01*
X132342688Y-52023924D01*
X132352066Y-52001285D01*
X132356846Y-51977252D01*
X132356846Y-51952748D01*
X132352066Y-51928715D01*
X132342688Y-51906076D01*
X132329075Y-51885702D01*
X132311748Y-51868375D01*
X132291373Y-51854761D01*
X132216211Y-51814586D01*
X132127893Y-51742107D01*
X132055414Y-51653789D01*
X132001557Y-51553030D01*
X131968392Y-51443701D01*
X131957194Y-51330000D01*
X131968392Y-51216299D01*
X132001557Y-51106970D01*
X132055414Y-51006211D01*
X132127893Y-50917893D01*
X132216211Y-50845414D01*
X132291373Y-50805239D01*
X132311747Y-50791626D01*
X132329074Y-50774299D01*
X132342688Y-50753924D01*
X132352066Y-50731285D01*
X132356846Y-50707252D01*
X132356846Y-50682748D01*
X132352066Y-50658715D01*
X132342688Y-50636076D01*
X132329075Y-50615702D01*
X132311748Y-50598375D01*
X132291373Y-50584761D01*
X132216211Y-50544586D01*
X132127893Y-50472107D01*
X132055414Y-50383789D01*
X132001557Y-50283030D01*
X131968392Y-50173701D01*
X131957194Y-50060000D01*
X131968392Y-49946299D01*
X132001557Y-49836970D01*
X132055414Y-49736211D01*
X132127893Y-49647893D01*
X132216211Y-49575414D01*
X132291373Y-49535239D01*
X132311747Y-49521626D01*
X132329074Y-49504299D01*
X132342688Y-49483924D01*
X132352066Y-49461285D01*
X132356846Y-49437252D01*
X132356846Y-49412748D01*
X132352066Y-49388715D01*
X132342688Y-49366076D01*
X132329075Y-49345702D01*
X132311748Y-49328375D01*
X132291373Y-49314761D01*
X132216211Y-49274586D01*
X132127893Y-49202107D01*
X132055414Y-49113789D01*
X132001557Y-49013030D01*
X131968392Y-48903701D01*
X131957194Y-48790000D01*
X131968392Y-48676299D01*
X132001557Y-48566970D01*
X132055414Y-48466211D01*
X132127893Y-48377893D01*
X132216211Y-48305414D01*
X132291373Y-48265239D01*
X132311747Y-48251626D01*
X132329074Y-48234299D01*
X132342688Y-48213924D01*
X132352066Y-48191285D01*
X132356846Y-48167252D01*
X132356846Y-48142748D01*
X132352066Y-48118715D01*
X132342688Y-48096076D01*
X132329075Y-48075702D01*
X132311748Y-48058375D01*
X132291373Y-48044761D01*
X132216211Y-48004586D01*
X132127893Y-47932107D01*
X132055414Y-47843789D01*
X132001557Y-47743030D01*
X131968392Y-47633701D01*
X131957194Y-47520000D01*
X131968392Y-47406299D01*
X132001557Y-47296970D01*
X132055414Y-47196211D01*
X132127893Y-47107893D01*
X132216211Y-47035414D01*
X132291373Y-46995239D01*
X132311747Y-46981626D01*
X132329074Y-46964299D01*
X132342688Y-46943924D01*
X132352066Y-46921285D01*
X132356846Y-46897252D01*
X132356846Y-46872748D01*
X132352066Y-46848715D01*
X132342688Y-46826076D01*
X132329075Y-46805702D01*
X132311748Y-46788375D01*
X132291373Y-46774761D01*
X132216211Y-46734586D01*
X132127893Y-46662107D01*
X132055414Y-46573789D01*
X132001557Y-46473030D01*
X131968392Y-46363701D01*
X131957194Y-46250000D01*
X131968392Y-46136299D01*
X132001557Y-46026970D01*
X132055414Y-45926211D01*
X132127893Y-45837893D01*
X132216211Y-45765414D01*
X132291373Y-45725239D01*
X132311747Y-45711626D01*
X132329074Y-45694299D01*
X132342688Y-45673924D01*
X132352066Y-45651285D01*
X132356846Y-45627252D01*
X132356846Y-45602748D01*
X132352066Y-45578715D01*
X132342688Y-45556076D01*
X132329075Y-45535702D01*
X132311748Y-45518375D01*
X132291373Y-45504761D01*
X132216211Y-45464586D01*
X132127893Y-45392107D01*
X132055414Y-45303789D01*
X132001557Y-45203030D01*
X131968392Y-45093701D01*
X131957194Y-44980000D01*
X131968392Y-44866299D01*
X132001557Y-44756970D01*
X132055414Y-44656211D01*
X132127893Y-44567893D01*
X132216211Y-44495414D01*
X132291373Y-44455239D01*
X132311747Y-44441626D01*
X132329074Y-44424299D01*
X132342688Y-44403924D01*
X132352066Y-44381285D01*
X132356846Y-44357252D01*
X132356846Y-44332748D01*
X132352066Y-44308715D01*
X132342688Y-44286076D01*
X132329075Y-44265702D01*
X132311748Y-44248375D01*
X132291373Y-44234761D01*
X132216211Y-44194586D01*
X132127893Y-44122107D01*
X132055414Y-44033789D01*
X132001557Y-43933030D01*
X131968392Y-43823701D01*
X131957194Y-43710000D01*
X131968392Y-43596299D01*
X132001557Y-43486970D01*
X132055414Y-43386211D01*
X132127893Y-43297893D01*
X132216211Y-43225414D01*
X132291373Y-43185239D01*
X132311747Y-43171626D01*
X132329074Y-43154299D01*
X132342688Y-43133924D01*
X132352066Y-43111285D01*
X132356846Y-43087252D01*
X132356846Y-43062748D01*
X132352066Y-43038715D01*
X132342688Y-43016076D01*
X132329075Y-42995702D01*
X132311748Y-42978375D01*
X132291373Y-42964761D01*
X132216211Y-42924586D01*
X132127893Y-42852107D01*
X132055414Y-42763789D01*
X132001557Y-42663030D01*
X131968392Y-42553701D01*
X131957194Y-42440000D01*
X131968392Y-42326299D01*
X132001557Y-42216970D01*
X132055414Y-42116211D01*
X132127893Y-42027893D01*
X132216211Y-41955414D01*
X132291373Y-41915239D01*
X132311747Y-41901626D01*
X132329074Y-41884299D01*
X132342688Y-41863924D01*
X132352066Y-41841285D01*
X132356846Y-41817252D01*
X132356846Y-41792748D01*
X132352066Y-41768715D01*
X132342688Y-41746076D01*
X132329075Y-41725702D01*
X132311748Y-41708375D01*
X132291373Y-41694761D01*
X132216211Y-41654586D01*
X132127893Y-41582107D01*
X132055414Y-41493789D01*
X132001557Y-41393030D01*
X131968392Y-41283701D01*
X131957194Y-41170000D01*
X131968392Y-41056299D01*
X132001557Y-40946970D01*
X132055414Y-40846211D01*
X132127893Y-40757893D01*
X132216211Y-40685414D01*
X132316970Y-40631557D01*
X132426299Y-40598392D01*
X132511508Y-40590000D01*
X134108492Y-40590000D01*
X134193701Y-40598392D01*
X134303030Y-40631557D01*
X134403789Y-40685414D01*
X134492107Y-40757893D01*
X134564586Y-40846211D01*
X134618443Y-40946970D01*
X134651608Y-41056299D01*
X134662806Y-41170000D01*
X134651608Y-41283701D01*
X134618443Y-41393030D01*
X134564586Y-41493789D01*
X134492107Y-41582107D01*
X134403789Y-41654586D01*
X134328627Y-41694761D01*
X134308253Y-41708374D01*
X134290926Y-41725701D01*
X134277312Y-41746076D01*
X134267934Y-41768715D01*
X134263154Y-41792748D01*
X134263154Y-41817252D01*
X134267934Y-41841285D01*
X134277312Y-41863924D01*
X134290925Y-41884298D01*
X134308252Y-41901625D01*
X134328627Y-41915239D01*
X134403789Y-41955414D01*
X134492107Y-42027893D01*
X134564586Y-42116211D01*
X134618443Y-42216970D01*
X134651608Y-42326299D01*
X134662806Y-42440000D01*
X134651608Y-42553701D01*
X134618443Y-42663030D01*
X134564586Y-42763789D01*
X134492107Y-42852107D01*
X134403789Y-42924586D01*
X134328627Y-42964761D01*
X134308253Y-42978374D01*
X134290926Y-42995701D01*
X134277312Y-43016076D01*
X134267934Y-43038715D01*
X134263154Y-43062748D01*
X134263154Y-43087252D01*
X134267934Y-43111285D01*
X134277312Y-43133924D01*
X134290925Y-43154298D01*
X134308252Y-43171625D01*
X134328627Y-43185239D01*
X134403789Y-43225414D01*
X134492107Y-43297893D01*
X134564586Y-43386211D01*
X134618443Y-43486970D01*
X134651608Y-43596299D01*
X134662806Y-43710000D01*
X134651608Y-43823701D01*
X134618443Y-43933030D01*
X134564586Y-44033789D01*
X134492107Y-44122107D01*
X134403789Y-44194586D01*
X134328627Y-44234761D01*
X134308253Y-44248374D01*
X134290926Y-44265701D01*
X134277312Y-44286076D01*
X134267934Y-44308715D01*
X134263154Y-44332748D01*
X134263154Y-44357252D01*
X134267934Y-44381285D01*
X134277312Y-44403924D01*
X134290925Y-44424298D01*
X134308252Y-44441625D01*
X134328627Y-44455239D01*
X134403789Y-44495414D01*
X134492107Y-44567893D01*
X134564586Y-44656211D01*
X134618443Y-44756970D01*
X134651608Y-44866299D01*
X134662806Y-44980000D01*
X134651608Y-45093701D01*
X134618443Y-45203030D01*
X134564586Y-45303789D01*
X134492107Y-45392107D01*
X134403789Y-45464586D01*
X134328627Y-45504761D01*
X134308253Y-45518374D01*
X134290926Y-45535701D01*
X134277312Y-45556076D01*
X134267934Y-45578715D01*
X134263154Y-45602748D01*
X134263154Y-45627252D01*
X134267934Y-45651285D01*
X134277312Y-45673924D01*
X134290925Y-45694298D01*
X134308252Y-45711625D01*
X134328627Y-45725239D01*
X134403789Y-45765414D01*
X134492107Y-45837893D01*
X134564586Y-45926211D01*
X134618443Y-46026970D01*
X134651608Y-46136299D01*
X134662806Y-46250000D01*
X134651608Y-46363701D01*
X134618443Y-46473030D01*
X134564586Y-46573789D01*
X134492107Y-46662107D01*
X134403789Y-46734586D01*
X134328627Y-46774761D01*
X134308253Y-46788374D01*
X134290926Y-46805701D01*
X134277312Y-46826076D01*
X134267934Y-46848715D01*
X134263154Y-46872748D01*
X134263154Y-46897252D01*
X134267934Y-46921285D01*
X134277312Y-46943924D01*
X134290925Y-46964298D01*
X134308252Y-46981625D01*
X134328627Y-46995239D01*
X134403789Y-47035414D01*
X134492107Y-47107893D01*
X134564586Y-47196211D01*
X134618443Y-47296970D01*
X134651608Y-47406299D01*
X134662806Y-47520000D01*
X134651608Y-47633701D01*
X134618443Y-47743030D01*
X134564586Y-47843789D01*
X134492107Y-47932107D01*
X134403789Y-48004586D01*
X134328627Y-48044761D01*
X134308253Y-48058374D01*
X134290926Y-48075701D01*
X134277312Y-48096076D01*
X134267934Y-48118715D01*
X134263154Y-48142748D01*
X134263154Y-48167252D01*
X134267934Y-48191285D01*
X134277312Y-48213924D01*
X134290925Y-48234298D01*
X134308252Y-48251625D01*
X134328627Y-48265239D01*
X134403789Y-48305414D01*
X134492107Y-48377893D01*
X134564586Y-48466211D01*
X134618443Y-48566970D01*
X134651608Y-48676299D01*
X134662806Y-48790000D01*
X134651608Y-48903701D01*
X134618443Y-49013030D01*
X134564586Y-49113789D01*
X134492107Y-49202107D01*
X134403789Y-49274586D01*
X134328627Y-49314761D01*
X134308253Y-49328374D01*
X134290926Y-49345701D01*
X134277312Y-49366076D01*
X134267934Y-49388715D01*
X134263154Y-49412748D01*
X134263154Y-49437252D01*
X134267934Y-49461285D01*
X134277312Y-49483924D01*
X134290925Y-49504298D01*
X134308252Y-49521625D01*
X134328627Y-49535239D01*
X134403789Y-49575414D01*
X134492107Y-49647893D01*
X134564586Y-49736211D01*
X134618443Y-49836970D01*
X134651608Y-49946299D01*
X134662806Y-50060000D01*
X134651608Y-50173701D01*
X134618443Y-50283030D01*
X134564586Y-50383789D01*
X134492107Y-50472107D01*
X134403789Y-50544586D01*
X134328627Y-50584761D01*
X134308253Y-50598374D01*
X134290926Y-50615701D01*
X134277312Y-50636076D01*
X134267934Y-50658715D01*
X134263154Y-50682748D01*
X134263154Y-50707252D01*
X134267934Y-50731285D01*
X134277312Y-50753924D01*
X134290925Y-50774298D01*
X134308252Y-50791625D01*
X134328627Y-50805239D01*
X134403789Y-50845414D01*
X134492107Y-50917893D01*
X134564586Y-51006211D01*
X134618443Y-51106970D01*
X134651608Y-51216299D01*
X134662806Y-51330000D01*
X134651608Y-51443701D01*
X134618443Y-51553030D01*
X134564586Y-51653789D01*
X134492107Y-51742107D01*
X134403789Y-51814586D01*
X134328627Y-51854761D01*
X134308253Y-51868374D01*
X134290926Y-51885701D01*
X134277312Y-51906076D01*
X134267934Y-51928715D01*
X134263154Y-51952748D01*
X134263154Y-51977252D01*
X134267934Y-52001285D01*
X134277312Y-52023924D01*
X134290925Y-52044298D01*
X134308252Y-52061625D01*
X134328627Y-52075239D01*
X134403789Y-52115414D01*
X134492107Y-52187893D01*
X134564586Y-52276211D01*
X134618443Y-52376970D01*
X134651608Y-52486299D01*
X134662806Y-52600000D01*
X134651608Y-52713701D01*
X134618443Y-52823030D01*
X134564586Y-52923789D01*
X134492107Y-53012107D01*
X134403789Y-53084586D01*
X134328627Y-53124761D01*
X134308253Y-53138374D01*
X134290926Y-53155701D01*
X134277312Y-53176076D01*
X134267934Y-53198715D01*
X134263154Y-53222748D01*
X134263154Y-53247252D01*
X134267934Y-53271285D01*
X134277312Y-53293924D01*
X134290925Y-53314298D01*
X134308252Y-53331625D01*
X134328627Y-53345239D01*
X134403789Y-53385414D01*
X134492107Y-53457893D01*
X134564586Y-53546211D01*
X134618443Y-53646970D01*
X134651608Y-53756299D01*
X134662806Y-53870000D01*
X134651608Y-53983701D01*
X134618443Y-54093030D01*
X134564586Y-54193789D01*
X134492107Y-54282107D01*
X134403789Y-54354586D01*
X134328627Y-54394761D01*
X134308253Y-54408374D01*
X134290926Y-54425701D01*
X134277312Y-54446076D01*
X134267934Y-54468715D01*
X134263154Y-54492748D01*
X134263154Y-54517252D01*
X134267934Y-54541285D01*
X134277312Y-54563924D01*
X134290925Y-54584298D01*
X134308252Y-54601625D01*
X134328627Y-54615239D01*
X134403789Y-54655414D01*
X134492107Y-54727893D01*
X134564586Y-54816211D01*
X134618443Y-54916970D01*
X134651608Y-55026299D01*
X134662806Y-55140000D01*
X134651608Y-55253701D01*
X134618443Y-55363030D01*
X134564586Y-55463789D01*
X134492107Y-55552107D01*
X134403789Y-55624586D01*
X134303030Y-55678443D01*
X134193701Y-55711608D01*
X134108492Y-55720000D01*
X132511508Y-55720000D01*
X132426299Y-55711608D01*
X132316970Y-55678443D01*
X132216211Y-55624586D01*
X132154297Y-55573775D01*
X132133923Y-55560162D01*
X132111284Y-55550784D01*
X132087251Y-55546004D01*
X132062747Y-55546004D01*
X132038713Y-55550784D01*
X132016075Y-55560162D01*
X131995700Y-55573776D01*
X131978373Y-55591103D01*
X131964760Y-55611477D01*
X131955382Y-55634116D01*
X131950000Y-55670401D01*
X131950000Y-56773492D01*
X131941608Y-56858701D01*
X131908443Y-56968030D01*
X131854586Y-57068789D01*
X131782107Y-57157107D01*
X131693789Y-57229586D01*
X131593030Y-57283443D01*
X131483701Y-57316608D01*
X131370000Y-57327806D01*
X131256300Y-57316608D01*
X131146971Y-57283443D01*
X131046212Y-57229586D01*
X130957894Y-57157107D01*
X130885416Y-57068791D01*
X130870963Y-57041751D01*
X130845236Y-56993620D01*
X130831627Y-56973252D01*
X130814300Y-56955925D01*
X130793926Y-56942311D01*
X130771287Y-56932934D01*
X130747254Y-56928153D01*
X130722750Y-56928153D01*
X130698716Y-56932933D01*
X130676078Y-56942310D01*
X130655703Y-56955924D01*
X130638376Y-56973251D01*
X130624762Y-56993626D01*
X130584586Y-57068789D01*
X130512107Y-57157107D01*
X130423789Y-57229586D01*
X130323030Y-57283443D01*
X130213701Y-57316608D01*
X130100000Y-57327806D01*
X129986300Y-57316608D01*
X129876971Y-57283443D01*
X129776212Y-57229586D01*
X129687894Y-57157107D01*
X129615416Y-57068791D01*
X129600963Y-57041751D01*
X129575236Y-56993620D01*
X129561627Y-56973252D01*
X129544300Y-56955925D01*
X129523926Y-56942311D01*
X129501287Y-56932934D01*
X129477254Y-56928153D01*
X129452750Y-56928153D01*
X129428716Y-56932933D01*
X129406078Y-56942310D01*
X129385703Y-56955924D01*
X129368376Y-56973251D01*
X129354762Y-56993626D01*
X129314586Y-57068789D01*
X129242107Y-57157107D01*
X129153789Y-57229586D01*
X129053030Y-57283443D01*
X128943701Y-57316608D01*
X128830000Y-57327806D01*
X128716300Y-57316608D01*
X128606971Y-57283443D01*
X128506212Y-57229586D01*
X128417894Y-57157107D01*
X128345416Y-57068791D01*
X128330963Y-57041751D01*
X128305236Y-56993620D01*
X128291627Y-56973252D01*
X128274300Y-56955925D01*
X128253926Y-56942311D01*
X128231287Y-56932934D01*
X128207254Y-56928153D01*
X128182750Y-56928153D01*
X128158716Y-56932933D01*
X128136078Y-56942310D01*
X128115703Y-56955924D01*
X128098376Y-56973251D01*
X128084762Y-56993626D01*
X128044586Y-57068789D01*
X127972107Y-57157107D01*
X127883789Y-57229586D01*
X127783030Y-57283443D01*
X127673701Y-57316608D01*
X127560000Y-57327806D01*
X127446300Y-57316608D01*
X127336971Y-57283443D01*
X127236212Y-57229586D01*
X127147894Y-57157107D01*
X127075416Y-57068791D01*
X127060963Y-57041751D01*
X127035236Y-56993620D01*
X127021627Y-56973252D01*
X127004300Y-56955925D01*
X126983926Y-56942311D01*
X126961287Y-56932934D01*
X126937254Y-56928153D01*
X126912750Y-56928153D01*
X126888716Y-56932933D01*
X126866078Y-56942310D01*
X126845703Y-56955924D01*
X126828376Y-56973251D01*
X126814762Y-56993626D01*
X126774586Y-57068789D01*
X126702107Y-57157107D01*
X126613789Y-57229586D01*
X126513030Y-57283443D01*
X126403701Y-57316608D01*
X126290000Y-57327806D01*
X126176300Y-57316608D01*
X126066971Y-57283443D01*
X125966212Y-57229586D01*
X125877894Y-57157107D01*
X125805416Y-57068791D01*
X125790963Y-57041751D01*
X125765236Y-56993620D01*
X125751627Y-56973252D01*
X125734300Y-56955925D01*
X125713926Y-56942311D01*
X125691287Y-56932934D01*
X125667254Y-56928153D01*
X125642750Y-56928153D01*
X125618716Y-56932933D01*
X125596078Y-56942310D01*
X125575703Y-56955924D01*
X125558376Y-56973251D01*
X125544762Y-56993626D01*
X125504586Y-57068789D01*
X125432107Y-57157107D01*
X125343789Y-57229586D01*
X125243030Y-57283443D01*
X125133701Y-57316608D01*
X125020000Y-57327806D01*
X124906300Y-57316608D01*
X124796971Y-57283443D01*
X124696212Y-57229586D01*
X124607894Y-57157107D01*
X124535416Y-57068791D01*
X124520963Y-57041751D01*
X124495236Y-56993620D01*
X124481627Y-56973252D01*
X124464300Y-56955925D01*
X124443926Y-56942311D01*
X124421287Y-56932934D01*
X124397254Y-56928153D01*
X124372750Y-56928153D01*
X124348716Y-56932933D01*
X124326078Y-56942310D01*
X124305703Y-56955924D01*
X124288376Y-56973251D01*
X124274762Y-56993626D01*
X124234586Y-57068789D01*
X124162107Y-57157107D01*
X124073789Y-57229586D01*
X123973030Y-57283443D01*
X123863701Y-57316608D01*
X123750000Y-57327806D01*
X123636300Y-57316608D01*
X123526971Y-57283443D01*
X123426212Y-57229586D01*
X123337894Y-57157107D01*
X123265416Y-57068791D01*
X123250963Y-57041751D01*
X123225236Y-56993620D01*
X123211627Y-56973252D01*
X123194300Y-56955925D01*
X123173926Y-56942311D01*
X123151287Y-56932934D01*
X123127254Y-56928153D01*
X123102750Y-56928153D01*
X123078716Y-56932933D01*
X123056078Y-56942310D01*
X123035703Y-56955924D01*
X123018376Y-56973251D01*
X123004762Y-56993626D01*
X122964586Y-57068789D01*
X122892107Y-57157107D01*
X122803789Y-57229586D01*
X122703030Y-57283443D01*
X122593701Y-57316608D01*
X122480000Y-57327806D01*
X122366300Y-57316608D01*
X122256971Y-57283443D01*
X122156212Y-57229586D01*
X122067894Y-57157107D01*
X121995416Y-57068791D01*
X121980963Y-57041751D01*
X121955236Y-56993620D01*
X121941627Y-56973252D01*
X121924300Y-56955925D01*
X121903926Y-56942311D01*
X121881287Y-56932934D01*
X121857254Y-56928153D01*
X121832750Y-56928153D01*
X121808716Y-56932933D01*
X121786078Y-56942310D01*
X121765703Y-56955924D01*
X121748376Y-56973251D01*
X121734762Y-56993626D01*
X121694586Y-57068789D01*
X121622107Y-57157107D01*
X121533789Y-57229586D01*
X121433030Y-57283443D01*
X121323701Y-57316608D01*
X121210000Y-57327806D01*
X121096300Y-57316608D01*
X120986971Y-57283443D01*
X120886212Y-57229586D01*
X120797894Y-57157107D01*
X120725416Y-57068791D01*
X120710963Y-57041751D01*
X120685236Y-56993620D01*
X120671627Y-56973252D01*
X120654300Y-56955925D01*
X120633926Y-56942311D01*
X120611287Y-56932934D01*
X120587254Y-56928153D01*
X120562750Y-56928153D01*
X120538716Y-56932933D01*
X120516078Y-56942310D01*
X120495703Y-56955924D01*
X120478376Y-56973251D01*
X120464762Y-56993626D01*
X120424586Y-57068789D01*
X120352107Y-57157107D01*
X120263789Y-57229586D01*
X120163030Y-57283443D01*
X120053701Y-57316608D01*
X119940000Y-57327806D01*
X119826300Y-57316608D01*
X119716971Y-57283443D01*
X119616212Y-57229586D01*
X119527894Y-57157107D01*
X119455415Y-57068789D01*
X119401558Y-56968030D01*
X119368393Y-56858701D01*
X119360001Y-56773492D01*
X119360000Y-55670401D01*
X119357598Y-55646015D01*
X119350485Y-55622566D01*
X119338934Y-55600955D01*
X119323389Y-55582013D01*
X119304447Y-55566468D01*
X119282836Y-55554917D01*
X119259387Y-55547804D01*
X119235001Y-55545402D01*
X119210615Y-55547804D01*
X119187166Y-55554917D01*
X119155703Y-55573775D01*
X119093789Y-55624586D01*
X118993030Y-55678443D01*
X118883701Y-55711608D01*
X118798492Y-55720000D01*
X117201508Y-55720000D01*
X117116299Y-55711608D01*
X117006970Y-55678443D01*
X116906211Y-55624586D01*
X116817893Y-55552107D01*
X116745414Y-55463789D01*
X116691557Y-55363030D01*
X116658392Y-55253701D01*
X116647194Y-55140000D01*
X116658392Y-55026299D01*
X116691557Y-54916970D01*
X116745414Y-54816211D01*
X116817893Y-54727893D01*
X116906211Y-54655414D01*
X116981373Y-54615239D01*
X117001747Y-54601626D01*
X117019074Y-54584299D01*
X117032688Y-54563924D01*
X117042066Y-54541285D01*
X117046846Y-54517252D01*
X117046846Y-54492748D01*
X117042066Y-54468715D01*
X117032688Y-54446076D01*
X117019075Y-54425702D01*
X117001748Y-54408375D01*
X116981373Y-54394761D01*
X116906211Y-54354586D01*
X116817893Y-54282107D01*
X116745414Y-54193789D01*
X116691557Y-54093030D01*
X116658392Y-53983701D01*
X116647194Y-53870000D01*
X116658392Y-53756299D01*
X116691557Y-53646970D01*
X116745414Y-53546211D01*
X116817893Y-53457893D01*
X116906211Y-53385414D01*
X116981373Y-53345239D01*
X117001747Y-53331626D01*
X117019074Y-53314299D01*
X117032688Y-53293924D01*
X117042066Y-53271285D01*
X117046846Y-53247252D01*
X117046846Y-53222748D01*
X117042066Y-53198715D01*
X117032688Y-53176076D01*
X117019075Y-53155702D01*
X117001748Y-53138375D01*
X116981373Y-53124761D01*
X116906211Y-53084586D01*
X116817893Y-53012107D01*
X116745414Y-52923789D01*
X116691557Y-52823030D01*
X116658392Y-52713701D01*
X116647194Y-52600000D01*
X116658392Y-52486299D01*
X116691557Y-52376970D01*
X116745414Y-52276211D01*
X116817893Y-52187893D01*
X116906211Y-52115414D01*
X116981373Y-52075239D01*
X117001747Y-52061626D01*
X117019074Y-52044299D01*
X117032688Y-52023924D01*
X117042066Y-52001285D01*
X117046846Y-51977252D01*
X117046846Y-51952748D01*
X117042066Y-51928715D01*
X117032688Y-51906076D01*
X117019075Y-51885702D01*
X117001748Y-51868375D01*
X116981373Y-51854761D01*
X116906211Y-51814586D01*
X116817893Y-51742107D01*
X116745414Y-51653789D01*
X116691557Y-51553030D01*
X116658392Y-51443701D01*
X116647194Y-51330000D01*
X116658392Y-51216299D01*
X116691557Y-51106970D01*
X116745414Y-51006211D01*
X116817893Y-50917893D01*
X116906211Y-50845414D01*
X116981373Y-50805239D01*
X117001747Y-50791626D01*
X117019074Y-50774299D01*
X117032688Y-50753924D01*
X117042066Y-50731285D01*
X117046846Y-50707252D01*
X117046846Y-50682748D01*
X117042066Y-50658715D01*
X117032688Y-50636076D01*
X117019075Y-50615702D01*
X117001748Y-50598375D01*
X116981373Y-50584761D01*
X116906211Y-50544586D01*
X116817893Y-50472107D01*
X116745414Y-50383789D01*
X116691557Y-50283030D01*
X116658392Y-50173701D01*
X116647194Y-50060000D01*
X116658392Y-49946299D01*
X116691557Y-49836970D01*
X116745414Y-49736211D01*
X116817893Y-49647893D01*
X116906211Y-49575414D01*
X116981373Y-49535239D01*
X117001747Y-49521626D01*
X117019074Y-49504299D01*
X117032688Y-49483924D01*
X117042066Y-49461285D01*
X117046846Y-49437252D01*
X117046846Y-49412748D01*
X117042066Y-49388715D01*
X117032688Y-49366076D01*
X117019075Y-49345702D01*
X117001748Y-49328375D01*
X116981373Y-49314761D01*
X116906211Y-49274586D01*
X116817893Y-49202107D01*
X116745414Y-49113789D01*
X116691557Y-49013030D01*
X116658392Y-48903701D01*
X116647194Y-48790000D01*
X116658392Y-48676299D01*
X116691557Y-48566970D01*
X116745414Y-48466211D01*
X116817893Y-48377893D01*
X116906211Y-48305414D01*
X116981373Y-48265239D01*
X117001747Y-48251626D01*
X117019074Y-48234299D01*
X117032688Y-48213924D01*
X117042066Y-48191285D01*
X117046846Y-48167252D01*
X117046846Y-48142748D01*
X117042066Y-48118715D01*
X117032688Y-48096076D01*
X117019075Y-48075702D01*
X117001748Y-48058375D01*
X116981373Y-48044761D01*
X116906211Y-48004586D01*
X116817893Y-47932107D01*
X116745414Y-47843789D01*
X116691557Y-47743030D01*
X116658392Y-47633701D01*
X116647194Y-47520000D01*
X116658392Y-47406299D01*
X116691557Y-47296970D01*
X116745414Y-47196211D01*
X116817893Y-47107893D01*
X116906211Y-47035414D01*
X116981373Y-46995239D01*
X117001747Y-46981626D01*
X117019074Y-46964299D01*
X117032688Y-46943924D01*
X117042066Y-46921285D01*
X117046846Y-46897252D01*
X117046846Y-46872748D01*
X117042066Y-46848715D01*
X117032688Y-46826076D01*
X117019075Y-46805702D01*
X117001748Y-46788375D01*
X116981373Y-46774761D01*
X116906211Y-46734586D01*
X116817893Y-46662107D01*
X116745414Y-46573789D01*
X116691557Y-46473030D01*
X116658392Y-46363701D01*
X116647194Y-46250000D01*
X116658392Y-46136299D01*
X116691557Y-46026970D01*
X116745414Y-45926211D01*
X116817893Y-45837893D01*
X116906211Y-45765414D01*
X116981373Y-45725239D01*
X117001747Y-45711626D01*
X117019074Y-45694299D01*
X117032688Y-45673924D01*
X117042066Y-45651285D01*
X117046846Y-45627252D01*
X117046846Y-45602748D01*
X117042066Y-45578715D01*
X117032688Y-45556076D01*
X117019075Y-45535702D01*
X117001748Y-45518375D01*
X116981373Y-45504761D01*
X116906211Y-45464586D01*
X116817893Y-45392107D01*
X116745414Y-45303789D01*
X116691557Y-45203030D01*
X116658392Y-45093701D01*
X116647194Y-44980000D01*
X116658392Y-44866299D01*
X116691557Y-44756970D01*
X116745414Y-44656211D01*
X116817893Y-44567893D01*
X116906211Y-44495414D01*
X116981373Y-44455239D01*
X117001747Y-44441626D01*
X117019074Y-44424299D01*
X117032688Y-44403924D01*
X117042066Y-44381285D01*
X117046846Y-44357252D01*
X117046846Y-44332748D01*
X117042066Y-44308715D01*
X117032688Y-44286076D01*
X117019075Y-44265702D01*
X117001748Y-44248375D01*
X116981373Y-44234761D01*
X116906211Y-44194586D01*
X116817893Y-44122107D01*
X116745414Y-44033789D01*
X116691557Y-43933030D01*
X116658392Y-43823701D01*
X116647194Y-43710000D01*
X116658392Y-43596299D01*
X116691557Y-43486970D01*
X116745414Y-43386211D01*
X116817893Y-43297893D01*
X116906211Y-43225414D01*
X116981373Y-43185239D01*
X117001747Y-43171626D01*
X117019074Y-43154299D01*
X117032688Y-43133924D01*
X117042066Y-43111285D01*
X117046846Y-43087252D01*
X117046846Y-43062748D01*
X117042066Y-43038715D01*
X117032688Y-43016076D01*
X117019075Y-42995702D01*
X117001748Y-42978375D01*
X116981373Y-42964761D01*
X116906211Y-42924586D01*
X116817893Y-42852107D01*
X116745414Y-42763789D01*
X116691557Y-42663030D01*
X116658392Y-42553701D01*
X116647194Y-42440000D01*
X116658392Y-42326299D01*
X116691557Y-42216970D01*
X116745414Y-42116211D01*
X116817893Y-42027893D01*
X116906211Y-41955414D01*
X116981373Y-41915239D01*
X117001747Y-41901626D01*
X117019074Y-41884299D01*
X117032688Y-41863924D01*
X117042066Y-41841285D01*
X117046846Y-41817252D01*
X117046846Y-41792748D01*
X117042066Y-41768715D01*
X117032688Y-41746076D01*
X117019075Y-41725702D01*
X117001748Y-41708375D01*
X116981373Y-41694761D01*
X116906211Y-41654586D01*
X116817893Y-41582107D01*
X116745414Y-41493789D01*
X116691557Y-41393030D01*
X116658392Y-41283701D01*
X116647194Y-41170000D01*
X116658392Y-41056299D01*
X116691557Y-40946970D01*
X116745414Y-40846211D01*
X116817893Y-40757893D01*
X116906211Y-40685414D01*
X117006970Y-40631557D01*
X117116299Y-40598392D01*
X117201508Y-40590000D01*
X118798492Y-40590000D01*
X118883701Y-40598392D01*
X118883701Y-40598392D01*
G37*
G36*
X115250583Y-53661919D02*
G01*
X115431925Y-53716929D01*
X115599043Y-53806256D01*
X115745528Y-53926472D01*
X115865744Y-54072957D01*
X115955071Y-54240075D01*
X116010081Y-54421417D01*
X116028654Y-54610000D01*
X116010081Y-54798583D01*
X115982320Y-54890097D01*
X115962216Y-54956373D01*
X115955071Y-54979925D01*
X115865744Y-55147043D01*
X115745528Y-55293528D01*
X115599043Y-55413744D01*
X115431925Y-55503071D01*
X115250583Y-55558081D01*
X115109257Y-55572000D01*
X113490743Y-55572000D01*
X113349417Y-55558081D01*
X113168075Y-55503071D01*
X113000957Y-55413744D01*
X112854472Y-55293528D01*
X112734256Y-55147043D01*
X112644929Y-54979925D01*
X112637785Y-54956373D01*
X112617680Y-54890097D01*
X112589919Y-54798583D01*
X112571346Y-54610000D01*
X112589919Y-54421417D01*
X112644929Y-54240075D01*
X112734256Y-54072957D01*
X112854472Y-53926472D01*
X113000957Y-53806256D01*
X113168075Y-53716929D01*
X113349417Y-53661919D01*
X113490743Y-53648000D01*
X115109257Y-53648000D01*
X115250583Y-53661919D01*
X115250583Y-53661919D01*
G37*
G36*
X138110583Y-53661919D02*
G01*
X138291925Y-53716929D01*
X138459043Y-53806256D01*
X138605528Y-53926472D01*
X138725744Y-54072957D01*
X138815071Y-54240075D01*
X138870081Y-54421417D01*
X138888654Y-54610000D01*
X138870081Y-54798583D01*
X138842320Y-54890097D01*
X138822216Y-54956373D01*
X138815071Y-54979925D01*
X138725744Y-55147043D01*
X138605528Y-55293528D01*
X138459043Y-55413744D01*
X138291925Y-55503071D01*
X138110583Y-55558081D01*
X137969257Y-55572000D01*
X136350743Y-55572000D01*
X136209417Y-55558081D01*
X136028075Y-55503071D01*
X135860957Y-55413744D01*
X135714472Y-55293528D01*
X135594256Y-55147043D01*
X135504929Y-54979925D01*
X135497785Y-54956373D01*
X135477680Y-54890097D01*
X135449919Y-54798583D01*
X135431346Y-54610000D01*
X135449919Y-54421417D01*
X135504929Y-54240075D01*
X135594256Y-54072957D01*
X135714472Y-53926472D01*
X135860957Y-53806256D01*
X136028075Y-53716929D01*
X136209417Y-53661919D01*
X136350743Y-53648000D01*
X137969257Y-53648000D01*
X138110583Y-53661919D01*
X138110583Y-53661919D01*
G37*
G36*
X138110583Y-51121919D02*
G01*
X138291925Y-51176929D01*
X138459043Y-51266256D01*
X138605528Y-51386472D01*
X138725744Y-51532957D01*
X138815071Y-51700075D01*
X138870081Y-51881417D01*
X138888654Y-52070000D01*
X138870081Y-52258583D01*
X138815071Y-52439925D01*
X138725744Y-52607043D01*
X138605528Y-52753528D01*
X138459043Y-52873744D01*
X138291925Y-52963071D01*
X138110583Y-53018081D01*
X137969257Y-53032000D01*
X136350743Y-53032000D01*
X136209417Y-53018081D01*
X136028075Y-52963071D01*
X135860957Y-52873744D01*
X135714472Y-52753528D01*
X135594256Y-52607043D01*
X135504929Y-52439925D01*
X135449919Y-52258583D01*
X135431346Y-52070000D01*
X135449919Y-51881417D01*
X135504929Y-51700075D01*
X135594256Y-51532957D01*
X135714472Y-51386472D01*
X135860957Y-51266256D01*
X136028075Y-51176929D01*
X136209417Y-51121919D01*
X136350743Y-51108000D01*
X137969257Y-51108000D01*
X138110583Y-51121919D01*
X138110583Y-51121919D01*
G37*
G36*
X115250583Y-51121919D02*
G01*
X115431925Y-51176929D01*
X115599043Y-51266256D01*
X115745528Y-51386472D01*
X115865744Y-51532957D01*
X115955071Y-51700075D01*
X116010081Y-51881417D01*
X116028654Y-52070000D01*
X116010081Y-52258583D01*
X115955071Y-52439925D01*
X115865744Y-52607043D01*
X115745528Y-52753528D01*
X115599043Y-52873744D01*
X115431925Y-52963071D01*
X115250583Y-53018081D01*
X115109257Y-53032000D01*
X113490743Y-53032000D01*
X113349417Y-53018081D01*
X113168075Y-52963071D01*
X113000957Y-52873744D01*
X112854472Y-52753528D01*
X112734256Y-52607043D01*
X112644929Y-52439925D01*
X112589919Y-52258583D01*
X112571346Y-52070000D01*
X112589919Y-51881417D01*
X112644929Y-51700075D01*
X112734256Y-51532957D01*
X112854472Y-51386472D01*
X113000957Y-51266256D01*
X113168075Y-51176929D01*
X113349417Y-51121919D01*
X113490743Y-51108000D01*
X115109257Y-51108000D01*
X115250583Y-51121919D01*
X115250583Y-51121919D01*
G37*
G36*
X115250583Y-48581919D02*
G01*
X115431925Y-48636929D01*
X115599043Y-48726256D01*
X115745528Y-48846472D01*
X115865744Y-48992957D01*
X115955071Y-49160075D01*
X116010081Y-49341417D01*
X116028654Y-49530000D01*
X116010081Y-49718583D01*
X115955071Y-49899925D01*
X115865744Y-50067043D01*
X115745528Y-50213528D01*
X115599043Y-50333744D01*
X115431925Y-50423071D01*
X115250583Y-50478081D01*
X115109257Y-50492000D01*
X113490743Y-50492000D01*
X113349417Y-50478081D01*
X113168075Y-50423071D01*
X113000957Y-50333744D01*
X112854472Y-50213528D01*
X112734256Y-50067043D01*
X112644929Y-49899925D01*
X112589919Y-49718583D01*
X112571346Y-49530000D01*
X112589919Y-49341417D01*
X112644929Y-49160075D01*
X112734256Y-48992957D01*
X112854472Y-48846472D01*
X113000957Y-48726256D01*
X113168075Y-48636929D01*
X113349417Y-48581919D01*
X113490743Y-48568000D01*
X115109257Y-48568000D01*
X115250583Y-48581919D01*
X115250583Y-48581919D01*
G37*
G36*
X138110583Y-48581919D02*
G01*
X138291925Y-48636929D01*
X138459043Y-48726256D01*
X138605528Y-48846472D01*
X138725744Y-48992957D01*
X138815071Y-49160075D01*
X138870081Y-49341417D01*
X138888654Y-49530000D01*
X138870081Y-49718583D01*
X138815071Y-49899925D01*
X138725744Y-50067043D01*
X138605528Y-50213528D01*
X138459043Y-50333744D01*
X138291925Y-50423071D01*
X138110583Y-50478081D01*
X137969257Y-50492000D01*
X136350743Y-50492000D01*
X136209417Y-50478081D01*
X136028075Y-50423071D01*
X135860957Y-50333744D01*
X135714472Y-50213528D01*
X135594256Y-50067043D01*
X135504929Y-49899925D01*
X135449919Y-49718583D01*
X135431346Y-49530000D01*
X135449919Y-49341417D01*
X135504929Y-49160075D01*
X135594256Y-48992957D01*
X135714472Y-48846472D01*
X135860957Y-48726256D01*
X136028075Y-48636929D01*
X136209417Y-48581919D01*
X136350743Y-48568000D01*
X137969257Y-48568000D01*
X138110583Y-48581919D01*
X138110583Y-48581919D01*
G37*
G36*
X138110583Y-46041919D02*
G01*
X138291925Y-46096929D01*
X138459043Y-46186256D01*
X138605528Y-46306472D01*
X138725744Y-46452957D01*
X138815071Y-46620075D01*
X138870081Y-46801417D01*
X138888654Y-46990000D01*
X138870081Y-47178583D01*
X138815071Y-47359925D01*
X138725744Y-47527043D01*
X138605528Y-47673528D01*
X138459043Y-47793744D01*
X138291925Y-47883071D01*
X138110583Y-47938081D01*
X137969257Y-47952000D01*
X136350743Y-47952000D01*
X136209417Y-47938081D01*
X136028075Y-47883071D01*
X135860957Y-47793744D01*
X135714472Y-47673528D01*
X135594256Y-47527043D01*
X135504929Y-47359925D01*
X135449919Y-47178583D01*
X135431346Y-46990000D01*
X135449919Y-46801417D01*
X135504929Y-46620075D01*
X135594256Y-46452957D01*
X135714472Y-46306472D01*
X135860957Y-46186256D01*
X136028075Y-46096929D01*
X136209417Y-46041919D01*
X136350743Y-46028000D01*
X137969257Y-46028000D01*
X138110583Y-46041919D01*
X138110583Y-46041919D01*
G37*
G36*
X115250583Y-46041919D02*
G01*
X115431925Y-46096929D01*
X115599043Y-46186256D01*
X115745528Y-46306472D01*
X115865744Y-46452957D01*
X115955071Y-46620075D01*
X116010081Y-46801417D01*
X116028654Y-46990000D01*
X116010081Y-47178583D01*
X115955071Y-47359925D01*
X115865744Y-47527043D01*
X115745528Y-47673528D01*
X115599043Y-47793744D01*
X115431925Y-47883071D01*
X115250583Y-47938081D01*
X115109257Y-47952000D01*
X113490743Y-47952000D01*
X113349417Y-47938081D01*
X113168075Y-47883071D01*
X113000957Y-47793744D01*
X112854472Y-47673528D01*
X112734256Y-47527043D01*
X112644929Y-47359925D01*
X112589919Y-47178583D01*
X112571346Y-46990000D01*
X112589919Y-46801417D01*
X112644929Y-46620075D01*
X112734256Y-46452957D01*
X112854472Y-46306472D01*
X113000957Y-46186256D01*
X113168075Y-46096929D01*
X113349417Y-46041919D01*
X113490743Y-46028000D01*
X115109257Y-46028000D01*
X115250583Y-46041919D01*
X115250583Y-46041919D01*
G37*
G36*
X138110583Y-43501919D02*
G01*
X138291925Y-43556929D01*
X138459043Y-43646256D01*
X138605528Y-43766472D01*
X138725744Y-43912957D01*
X138815071Y-44080075D01*
X138870081Y-44261417D01*
X138888654Y-44450000D01*
X138870081Y-44638583D01*
X138815071Y-44819925D01*
X138725744Y-44987043D01*
X138605528Y-45133528D01*
X138459043Y-45253744D01*
X138291925Y-45343071D01*
X138110583Y-45398081D01*
X137969257Y-45412000D01*
X136350743Y-45412000D01*
X136209417Y-45398081D01*
X136028075Y-45343071D01*
X135860957Y-45253744D01*
X135714472Y-45133528D01*
X135594256Y-44987043D01*
X135504929Y-44819925D01*
X135449919Y-44638583D01*
X135431346Y-44450000D01*
X135449919Y-44261417D01*
X135504929Y-44080075D01*
X135594256Y-43912957D01*
X135714472Y-43766472D01*
X135860957Y-43646256D01*
X136028075Y-43556929D01*
X136209417Y-43501919D01*
X136350743Y-43488000D01*
X137969257Y-43488000D01*
X138110583Y-43501919D01*
X138110583Y-43501919D01*
G37*
G36*
X115250583Y-43501919D02*
G01*
X115431925Y-43556929D01*
X115599043Y-43646256D01*
X115745528Y-43766472D01*
X115865744Y-43912957D01*
X115955071Y-44080075D01*
X116010081Y-44261417D01*
X116028654Y-44450000D01*
X116010081Y-44638583D01*
X115955071Y-44819925D01*
X115865744Y-44987043D01*
X115745528Y-45133528D01*
X115599043Y-45253744D01*
X115431925Y-45343071D01*
X115250583Y-45398081D01*
X115109257Y-45412000D01*
X113490743Y-45412000D01*
X113349417Y-45398081D01*
X113168075Y-45343071D01*
X113000957Y-45253744D01*
X112854472Y-45133528D01*
X112734256Y-44987043D01*
X112644929Y-44819925D01*
X112589919Y-44638583D01*
X112571346Y-44450000D01*
X112589919Y-44261417D01*
X112644929Y-44080075D01*
X112734256Y-43912957D01*
X112854472Y-43766472D01*
X113000957Y-43646256D01*
X113168075Y-43556929D01*
X113349417Y-43501919D01*
X113490743Y-43488000D01*
X115109257Y-43488000D01*
X115250583Y-43501919D01*
X115250583Y-43501919D01*
G37*
G36*
X136873499Y-41593497D02*
G01*
X136926147Y-41609468D01*
X136974668Y-41635402D01*
X137017195Y-41670305D01*
X137052098Y-41712832D01*
X137078032Y-41761353D01*
X137094003Y-41814001D01*
X137100000Y-41874890D01*
X137100000Y-42675110D01*
X137094003Y-42735999D01*
X137078032Y-42788647D01*
X137052098Y-42837168D01*
X137017195Y-42879695D01*
X136974668Y-42914598D01*
X136926147Y-42940532D01*
X136873499Y-42956503D01*
X136812610Y-42962500D01*
X135587390Y-42962500D01*
X135526501Y-42956503D01*
X135473853Y-42940532D01*
X135425332Y-42914598D01*
X135382805Y-42879695D01*
X135347902Y-42837168D01*
X135321968Y-42788647D01*
X135305997Y-42735999D01*
X135300000Y-42675110D01*
X135300000Y-41874890D01*
X135305997Y-41814001D01*
X135321968Y-41761353D01*
X135347902Y-41712832D01*
X135382805Y-41670305D01*
X135425332Y-41635402D01*
X135473853Y-41609468D01*
X135526501Y-41593497D01*
X135587390Y-41587500D01*
X136812610Y-41587500D01*
X136873499Y-41593497D01*
X136873499Y-41593497D01*
G37*
G36*
X116068622Y-41355517D02*
G01*
X116116585Y-41370066D01*
X116160778Y-41393688D01*
X116199519Y-41425481D01*
X116231312Y-41464222D01*
X116254934Y-41508415D01*
X116269483Y-41556378D01*
X116275000Y-41612391D01*
X116275000Y-42362609D01*
X116269483Y-42418622D01*
X116254934Y-42466585D01*
X116231312Y-42510778D01*
X116199519Y-42549519D01*
X116160778Y-42581312D01*
X116116585Y-42604934D01*
X116068622Y-42619483D01*
X116012609Y-42625000D01*
X115187391Y-42625000D01*
X115131378Y-42619483D01*
X115083415Y-42604934D01*
X115039222Y-42581312D01*
X115000481Y-42549519D01*
X114968688Y-42510778D01*
X114945066Y-42466585D01*
X114930517Y-42418622D01*
X114925000Y-42362609D01*
X114925000Y-41612391D01*
X114930517Y-41556378D01*
X114945066Y-41508415D01*
X114968688Y-41464222D01*
X115000481Y-41425481D01*
X115039222Y-41393688D01*
X115083415Y-41370066D01*
X115131378Y-41355517D01*
X115187391Y-41350000D01*
X116012609Y-41350000D01*
X116068622Y-41355517D01*
X116068622Y-41355517D01*
G37*
G36*
X136873499Y-39718497D02*
G01*
X136926147Y-39734468D01*
X136974668Y-39760402D01*
X137017195Y-39795305D01*
X137052098Y-39837832D01*
X137078032Y-39886353D01*
X137094003Y-39939001D01*
X137100000Y-39999890D01*
X137100000Y-40800110D01*
X137094003Y-40860999D01*
X137078032Y-40913647D01*
X137052098Y-40962168D01*
X137017195Y-41004695D01*
X136974668Y-41039598D01*
X136926147Y-41065532D01*
X136873499Y-41081503D01*
X136812610Y-41087500D01*
X135587390Y-41087500D01*
X135526501Y-41081503D01*
X135473853Y-41065532D01*
X135425332Y-41039598D01*
X135382805Y-41004695D01*
X135347902Y-40962168D01*
X135321968Y-40913647D01*
X135305997Y-40860999D01*
X135300000Y-40800110D01*
X135300000Y-39999890D01*
X135305997Y-39939001D01*
X135321968Y-39886353D01*
X135347902Y-39837832D01*
X135382805Y-39795305D01*
X135425332Y-39760402D01*
X135473853Y-39734468D01*
X135526501Y-39718497D01*
X135587390Y-39712500D01*
X136812610Y-39712500D01*
X136873499Y-39718497D01*
X136873499Y-39718497D01*
G37*
G36*
X116068622Y-39780517D02*
G01*
X116116585Y-39795066D01*
X116160778Y-39818688D01*
X116199519Y-39850481D01*
X116231312Y-39889222D01*
X116254934Y-39933415D01*
X116269483Y-39981378D01*
X116275000Y-40037391D01*
X116275000Y-40787609D01*
X116269483Y-40843622D01*
X116254934Y-40891585D01*
X116231312Y-40935778D01*
X116199519Y-40974519D01*
X116160778Y-41006312D01*
X116116585Y-41029934D01*
X116068622Y-41044483D01*
X116012609Y-41050000D01*
X115187391Y-41050000D01*
X115131378Y-41044483D01*
X115083415Y-41029934D01*
X115039222Y-41006312D01*
X115000481Y-40974519D01*
X114968688Y-40935778D01*
X114945066Y-40891585D01*
X114930517Y-40843622D01*
X114925000Y-40787609D01*
X114925000Y-40037391D01*
X114930517Y-39981378D01*
X114945066Y-39933415D01*
X114968688Y-39889222D01*
X115000481Y-39850481D01*
X115039222Y-39818688D01*
X115083415Y-39795066D01*
X115131378Y-39780517D01*
X115187391Y-39775000D01*
X116012609Y-39775000D01*
X116068622Y-39780517D01*
X116068622Y-39780517D01*
G37*
G36*
X131483700Y-38258392D02*
G01*
X131593029Y-38291557D01*
X131693788Y-38345414D01*
X131782106Y-38417894D01*
X131854586Y-38506210D01*
X131908443Y-38606970D01*
X131941608Y-38716299D01*
X131950000Y-38801508D01*
X131950000Y-40398492D01*
X131941608Y-40483701D01*
X131908443Y-40593030D01*
X131854586Y-40693789D01*
X131782107Y-40782107D01*
X131693789Y-40854586D01*
X131593030Y-40908443D01*
X131483701Y-40941608D01*
X131370000Y-40952806D01*
X131256300Y-40941608D01*
X131146971Y-40908443D01*
X131046212Y-40854586D01*
X130957894Y-40782107D01*
X130885416Y-40693791D01*
X130870963Y-40666751D01*
X130845236Y-40618620D01*
X130831627Y-40598252D01*
X130814300Y-40580925D01*
X130793926Y-40567311D01*
X130771287Y-40557934D01*
X130747254Y-40553153D01*
X130722750Y-40553153D01*
X130698716Y-40557933D01*
X130676078Y-40567310D01*
X130655703Y-40580924D01*
X130638376Y-40598251D01*
X130624762Y-40618626D01*
X130584586Y-40693789D01*
X130512107Y-40782107D01*
X130423789Y-40854586D01*
X130323030Y-40908443D01*
X130213701Y-40941608D01*
X130100000Y-40952806D01*
X129986300Y-40941608D01*
X129876971Y-40908443D01*
X129776212Y-40854586D01*
X129687894Y-40782107D01*
X129615416Y-40693791D01*
X129600963Y-40666751D01*
X129575236Y-40618620D01*
X129561627Y-40598252D01*
X129544300Y-40580925D01*
X129523926Y-40567311D01*
X129501287Y-40557934D01*
X129477254Y-40553153D01*
X129452750Y-40553153D01*
X129428716Y-40557933D01*
X129406078Y-40567310D01*
X129385703Y-40580924D01*
X129368376Y-40598251D01*
X129354762Y-40618626D01*
X129314586Y-40693789D01*
X129242107Y-40782107D01*
X129153789Y-40854586D01*
X129053030Y-40908443D01*
X128943701Y-40941608D01*
X128830000Y-40952806D01*
X128716300Y-40941608D01*
X128606971Y-40908443D01*
X128506212Y-40854586D01*
X128417894Y-40782107D01*
X128345416Y-40693791D01*
X128330963Y-40666751D01*
X128305236Y-40618620D01*
X128291627Y-40598252D01*
X128274300Y-40580925D01*
X128253926Y-40567311D01*
X128231287Y-40557934D01*
X128207254Y-40553153D01*
X128182750Y-40553153D01*
X128158716Y-40557933D01*
X128136078Y-40567310D01*
X128115703Y-40580924D01*
X128098376Y-40598251D01*
X128084762Y-40618626D01*
X128044586Y-40693789D01*
X127972107Y-40782107D01*
X127883789Y-40854586D01*
X127783030Y-40908443D01*
X127673701Y-40941608D01*
X127560000Y-40952806D01*
X127446300Y-40941608D01*
X127336971Y-40908443D01*
X127236212Y-40854586D01*
X127147894Y-40782107D01*
X127075416Y-40693791D01*
X127060963Y-40666751D01*
X127035236Y-40618620D01*
X127021627Y-40598252D01*
X127004300Y-40580925D01*
X126983926Y-40567311D01*
X126961287Y-40557934D01*
X126937254Y-40553153D01*
X126912750Y-40553153D01*
X126888716Y-40557933D01*
X126866078Y-40567310D01*
X126845703Y-40580924D01*
X126828376Y-40598251D01*
X126814762Y-40618626D01*
X126774586Y-40693789D01*
X126702107Y-40782107D01*
X126613789Y-40854586D01*
X126513030Y-40908443D01*
X126403701Y-40941608D01*
X126290000Y-40952806D01*
X126176300Y-40941608D01*
X126066971Y-40908443D01*
X125966212Y-40854586D01*
X125877894Y-40782107D01*
X125805416Y-40693791D01*
X125790963Y-40666751D01*
X125765236Y-40618620D01*
X125751627Y-40598252D01*
X125734300Y-40580925D01*
X125713926Y-40567311D01*
X125691287Y-40557934D01*
X125667254Y-40553153D01*
X125642750Y-40553153D01*
X125618716Y-40557933D01*
X125596078Y-40567310D01*
X125575703Y-40580924D01*
X125558376Y-40598251D01*
X125544762Y-40618626D01*
X125504586Y-40693789D01*
X125432107Y-40782107D01*
X125343789Y-40854586D01*
X125243030Y-40908443D01*
X125133701Y-40941608D01*
X125020000Y-40952806D01*
X124906300Y-40941608D01*
X124796971Y-40908443D01*
X124696212Y-40854586D01*
X124607894Y-40782107D01*
X124535416Y-40693791D01*
X124520963Y-40666751D01*
X124495236Y-40618620D01*
X124481627Y-40598252D01*
X124464300Y-40580925D01*
X124443926Y-40567311D01*
X124421287Y-40557934D01*
X124397254Y-40553153D01*
X124372750Y-40553153D01*
X124348716Y-40557933D01*
X124326078Y-40567310D01*
X124305703Y-40580924D01*
X124288376Y-40598251D01*
X124274762Y-40618626D01*
X124234586Y-40693789D01*
X124162107Y-40782107D01*
X124073789Y-40854586D01*
X123973030Y-40908443D01*
X123863701Y-40941608D01*
X123750000Y-40952806D01*
X123636300Y-40941608D01*
X123526971Y-40908443D01*
X123426212Y-40854586D01*
X123337894Y-40782107D01*
X123265416Y-40693791D01*
X123250963Y-40666751D01*
X123225236Y-40618620D01*
X123211627Y-40598252D01*
X123194300Y-40580925D01*
X123173926Y-40567311D01*
X123151287Y-40557934D01*
X123127254Y-40553153D01*
X123102750Y-40553153D01*
X123078716Y-40557933D01*
X123056078Y-40567310D01*
X123035703Y-40580924D01*
X123018376Y-40598251D01*
X123004762Y-40618626D01*
X122964586Y-40693789D01*
X122892107Y-40782107D01*
X122803789Y-40854586D01*
X122703030Y-40908443D01*
X122593701Y-40941608D01*
X122480000Y-40952806D01*
X122366300Y-40941608D01*
X122256971Y-40908443D01*
X122156212Y-40854586D01*
X122067894Y-40782107D01*
X121995416Y-40693791D01*
X121980963Y-40666751D01*
X121955236Y-40618620D01*
X121941627Y-40598252D01*
X121924300Y-40580925D01*
X121903926Y-40567311D01*
X121881287Y-40557934D01*
X121857254Y-40553153D01*
X121832750Y-40553153D01*
X121808716Y-40557933D01*
X121786078Y-40567310D01*
X121765703Y-40580924D01*
X121748376Y-40598251D01*
X121734762Y-40618626D01*
X121694586Y-40693789D01*
X121622107Y-40782107D01*
X121533789Y-40854586D01*
X121433030Y-40908443D01*
X121323701Y-40941608D01*
X121210000Y-40952806D01*
X121096300Y-40941608D01*
X120986971Y-40908443D01*
X120886212Y-40854586D01*
X120797894Y-40782107D01*
X120725416Y-40693791D01*
X120710963Y-40666751D01*
X120685236Y-40618620D01*
X120671627Y-40598252D01*
X120654300Y-40580925D01*
X120633926Y-40567311D01*
X120611287Y-40557934D01*
X120587254Y-40553153D01*
X120562750Y-40553153D01*
X120538716Y-40557933D01*
X120516078Y-40567310D01*
X120495703Y-40580924D01*
X120478376Y-40598251D01*
X120464762Y-40618626D01*
X120424586Y-40693789D01*
X120352107Y-40782107D01*
X120263789Y-40854586D01*
X120163030Y-40908443D01*
X120053701Y-40941608D01*
X119940000Y-40952806D01*
X119826300Y-40941608D01*
X119716971Y-40908443D01*
X119616212Y-40854586D01*
X119527894Y-40782107D01*
X119455415Y-40693789D01*
X119401558Y-40593030D01*
X119368393Y-40483701D01*
X119360001Y-40398492D01*
X119360000Y-38801509D01*
X119368392Y-38716300D01*
X119401557Y-38606971D01*
X119455414Y-38506212D01*
X119527894Y-38417894D01*
X119616210Y-38345414D01*
X119716970Y-38291557D01*
X119826299Y-38258392D01*
X119940000Y-38247194D01*
X120053700Y-38258392D01*
X120163029Y-38291557D01*
X120263788Y-38345414D01*
X120352106Y-38417894D01*
X120424586Y-38506210D01*
X120464761Y-38581373D01*
X120478374Y-38601747D01*
X120495701Y-38619074D01*
X120516076Y-38632688D01*
X120538715Y-38642066D01*
X120562748Y-38646846D01*
X120587252Y-38646846D01*
X120611285Y-38642066D01*
X120633924Y-38632688D01*
X120654298Y-38619075D01*
X120671625Y-38601748D01*
X120685239Y-38581373D01*
X120725414Y-38506212D01*
X120797894Y-38417894D01*
X120886210Y-38345414D01*
X120986970Y-38291557D01*
X121096299Y-38258392D01*
X121210000Y-38247194D01*
X121323700Y-38258392D01*
X121433029Y-38291557D01*
X121533788Y-38345414D01*
X121622106Y-38417894D01*
X121694586Y-38506210D01*
X121734761Y-38581373D01*
X121748374Y-38601747D01*
X121765701Y-38619074D01*
X121786076Y-38632688D01*
X121808715Y-38642066D01*
X121832748Y-38646846D01*
X121857252Y-38646846D01*
X121881285Y-38642066D01*
X121903924Y-38632688D01*
X121924298Y-38619075D01*
X121941625Y-38601748D01*
X121955239Y-38581373D01*
X121995414Y-38506212D01*
X122067894Y-38417894D01*
X122156210Y-38345414D01*
X122256970Y-38291557D01*
X122366299Y-38258392D01*
X122480000Y-38247194D01*
X122593700Y-38258392D01*
X122703029Y-38291557D01*
X122803788Y-38345414D01*
X122892106Y-38417894D01*
X122964586Y-38506210D01*
X123004761Y-38581373D01*
X123018374Y-38601747D01*
X123035701Y-38619074D01*
X123056076Y-38632688D01*
X123078715Y-38642066D01*
X123102748Y-38646846D01*
X123127252Y-38646846D01*
X123151285Y-38642066D01*
X123173924Y-38632688D01*
X123194298Y-38619075D01*
X123211625Y-38601748D01*
X123225239Y-38581373D01*
X123265414Y-38506212D01*
X123337894Y-38417894D01*
X123426210Y-38345414D01*
X123526970Y-38291557D01*
X123636299Y-38258392D01*
X123750000Y-38247194D01*
X123863700Y-38258392D01*
X123973029Y-38291557D01*
X124073788Y-38345414D01*
X124162106Y-38417894D01*
X124234586Y-38506210D01*
X124274761Y-38581373D01*
X124288374Y-38601747D01*
X124305701Y-38619074D01*
X124326076Y-38632688D01*
X124348715Y-38642066D01*
X124372748Y-38646846D01*
X124397252Y-38646846D01*
X124421285Y-38642066D01*
X124443924Y-38632688D01*
X124464298Y-38619075D01*
X124481625Y-38601748D01*
X124495239Y-38581373D01*
X124535414Y-38506212D01*
X124607894Y-38417894D01*
X124696210Y-38345414D01*
X124796970Y-38291557D01*
X124906299Y-38258392D01*
X125020000Y-38247194D01*
X125133700Y-38258392D01*
X125243029Y-38291557D01*
X125343788Y-38345414D01*
X125432106Y-38417894D01*
X125504586Y-38506210D01*
X125544761Y-38581373D01*
X125558374Y-38601747D01*
X125575701Y-38619074D01*
X125596076Y-38632688D01*
X125618715Y-38642066D01*
X125642748Y-38646846D01*
X125667252Y-38646846D01*
X125691285Y-38642066D01*
X125713924Y-38632688D01*
X125734298Y-38619075D01*
X125751625Y-38601748D01*
X125765239Y-38581373D01*
X125805414Y-38506212D01*
X125877894Y-38417894D01*
X125966210Y-38345414D01*
X126066970Y-38291557D01*
X126176299Y-38258392D01*
X126290000Y-38247194D01*
X126403700Y-38258392D01*
X126513029Y-38291557D01*
X126613788Y-38345414D01*
X126702106Y-38417894D01*
X126774586Y-38506210D01*
X126814761Y-38581373D01*
X126828374Y-38601747D01*
X126845701Y-38619074D01*
X126866076Y-38632688D01*
X126888715Y-38642066D01*
X126912748Y-38646846D01*
X126937252Y-38646846D01*
X126961285Y-38642066D01*
X126983924Y-38632688D01*
X127004298Y-38619075D01*
X127021625Y-38601748D01*
X127035239Y-38581373D01*
X127075414Y-38506212D01*
X127147894Y-38417894D01*
X127236210Y-38345414D01*
X127336970Y-38291557D01*
X127446299Y-38258392D01*
X127560000Y-38247194D01*
X127673700Y-38258392D01*
X127783029Y-38291557D01*
X127883788Y-38345414D01*
X127972106Y-38417894D01*
X128044586Y-38506210D01*
X128084761Y-38581373D01*
X128098374Y-38601747D01*
X128115701Y-38619074D01*
X128136076Y-38632688D01*
X128158715Y-38642066D01*
X128182748Y-38646846D01*
X128207252Y-38646846D01*
X128231285Y-38642066D01*
X128253924Y-38632688D01*
X128274298Y-38619075D01*
X128291625Y-38601748D01*
X128305239Y-38581373D01*
X128345414Y-38506212D01*
X128417894Y-38417894D01*
X128506210Y-38345414D01*
X128606970Y-38291557D01*
X128716299Y-38258392D01*
X128830000Y-38247194D01*
X128943700Y-38258392D01*
X129053029Y-38291557D01*
X129153788Y-38345414D01*
X129242106Y-38417894D01*
X129314586Y-38506210D01*
X129354761Y-38581373D01*
X129368374Y-38601747D01*
X129385701Y-38619074D01*
X129406076Y-38632688D01*
X129428715Y-38642066D01*
X129452748Y-38646846D01*
X129477252Y-38646846D01*
X129501285Y-38642066D01*
X129523924Y-38632688D01*
X129544298Y-38619075D01*
X129561625Y-38601748D01*
X129575239Y-38581373D01*
X129615414Y-38506212D01*
X129687894Y-38417894D01*
X129776210Y-38345414D01*
X129876970Y-38291557D01*
X129986299Y-38258392D01*
X130100000Y-38247194D01*
X130213700Y-38258392D01*
X130323029Y-38291557D01*
X130423788Y-38345414D01*
X130512106Y-38417894D01*
X130584586Y-38506210D01*
X130624761Y-38581373D01*
X130638374Y-38601747D01*
X130655701Y-38619074D01*
X130676076Y-38632688D01*
X130698715Y-38642066D01*
X130722748Y-38646846D01*
X130747252Y-38646846D01*
X130771285Y-38642066D01*
X130793924Y-38632688D01*
X130814298Y-38619075D01*
X130831625Y-38601748D01*
X130845239Y-38581373D01*
X130885414Y-38506212D01*
X130957894Y-38417894D01*
X131046210Y-38345414D01*
X131146970Y-38291557D01*
X131256299Y-38258392D01*
X131370000Y-38247194D01*
X131483700Y-38258392D01*
X131483700Y-38258392D01*
G37*
M02*
