M48
; DRILL file {KiCad (5.1.2)-1} date 2019/06/15 1:06:52
; FORMAT={-:-/ absolute / metric / decimal}
; #@! TF.CreationDate,2019-06-15T01:06:52+09:00
; #@! TF.GenerationSoftware,Kicad,Pcbnew,(5.1.2)-1
FMAT,2
METRIC
T1C0.400
T2C0.762
T3C1.016
%
G90
G05
T1
X118.1Y-56.4
X118.681Y-60.118
X119.833Y-52.639
X120.4Y-48.676
X120.861Y-51.075
X121.897Y-54.172
X121.9Y-42.1
X123.5Y-50.7
X124.089Y-46.735
X126.009Y-52.647
X126.762Y-53.631
X128.4Y-50.8
X128.9Y-42.1
X131.53Y-52.871
X131.55Y-44.743
X131.587Y-58.919
X131.611Y-46.731
X134.0Y-56.5
T2
X122.7Y-62.5
X124.7Y-62.5
X126.7Y-62.5
X128.7Y-62.5
T3
X114.3Y-44.45
X114.3Y-46.99
X114.3Y-49.53
X114.3Y-52.07
X114.3Y-54.61
X114.3Y-57.15
X114.3Y-59.69
X114.3Y-62.23
X137.16Y-44.45
X137.16Y-46.99
X137.16Y-49.53
X137.16Y-52.07
X137.16Y-54.61
X137.16Y-57.15
X137.16Y-59.69
X137.16Y-62.23
T0
M30
