G04 #@! TF.GenerationSoftware,KiCad,Pcbnew,(5.1.2)-1*
G04 #@! TF.CreationDate,2019-06-15T01:06:45+09:00*
G04 #@! TF.ProjectId,ble5,626c6535-2e6b-4696-9361-645f70636258,v1.0*
G04 #@! TF.SameCoordinates,Original*
G04 #@! TF.FileFunction,Legend,Top*
G04 #@! TF.FilePolarity,Positive*
%FSLAX46Y46*%
G04 Gerber Fmt 4.6, Leading zero omitted, Abs format (unit mm)*
G04 Created by KiCad (PCBNEW (5.1.2)-1) date 2019-06-15 01:06:45*
%MOMM*%
%LPD*%
G04 APERTURE LIST*
%ADD10C,0.150000*%
%ADD11C,0.066040*%
%ADD12C,0.127000*%
%ADD13C,0.152400*%
%ADD14C,0.120000*%
%ADD15C,0.100000*%
G04 APERTURE END LIST*
D10*
X130871428Y-61671428D02*
X130671428Y-61385714D01*
X130528571Y-61671428D02*
X130528571Y-61071428D01*
X130757142Y-61071428D01*
X130814285Y-61100000D01*
X130842857Y-61128571D01*
X130871428Y-61185714D01*
X130871428Y-61271428D01*
X130842857Y-61328571D01*
X130814285Y-61357142D01*
X130757142Y-61385714D01*
X130528571Y-61385714D01*
X131100000Y-61642857D02*
X131185714Y-61671428D01*
X131328571Y-61671428D01*
X131385714Y-61642857D01*
X131414285Y-61614285D01*
X131442857Y-61557142D01*
X131442857Y-61500000D01*
X131414285Y-61442857D01*
X131385714Y-61414285D01*
X131328571Y-61385714D01*
X131214285Y-61357142D01*
X131157142Y-61328571D01*
X131128571Y-61300000D01*
X131100000Y-61242857D01*
X131100000Y-61185714D01*
X131128571Y-61128571D01*
X131157142Y-61100000D01*
X131214285Y-61071428D01*
X131357142Y-61071428D01*
X131442857Y-61100000D01*
X131614285Y-61071428D02*
X131957142Y-61071428D01*
X131785714Y-61671428D02*
X131785714Y-61071428D01*
X135328571Y-43771428D02*
X135328571Y-44142857D01*
X135100000Y-43942857D01*
X135100000Y-44028571D01*
X135071428Y-44085714D01*
X135042857Y-44114285D01*
X134985714Y-44142857D01*
X134842857Y-44142857D01*
X134785714Y-44114285D01*
X134757142Y-44085714D01*
X134728571Y-44028571D01*
X134728571Y-43857142D01*
X134757142Y-43800000D01*
X134785714Y-43771428D01*
X134785714Y-44400000D02*
X134757142Y-44428571D01*
X134728571Y-44400000D01*
X134757142Y-44371428D01*
X134785714Y-44400000D01*
X134728571Y-44400000D01*
X135328571Y-44628571D02*
X135328571Y-45000000D01*
X135100000Y-44800000D01*
X135100000Y-44885714D01*
X135071428Y-44942857D01*
X135042857Y-44971428D01*
X134985714Y-45000000D01*
X134842857Y-45000000D01*
X134785714Y-44971428D01*
X134757142Y-44942857D01*
X134728571Y-44885714D01*
X134728571Y-44714285D01*
X134757142Y-44657142D01*
X134785714Y-44628571D01*
X135042857Y-46457142D02*
X135042857Y-46657142D01*
X134728571Y-46742857D02*
X134728571Y-46457142D01*
X135328571Y-46457142D01*
X135328571Y-46742857D01*
X134728571Y-47000000D02*
X135328571Y-47000000D01*
X134728571Y-47342857D01*
X135328571Y-47342857D01*
X134728571Y-48900000D02*
X135328571Y-48900000D01*
X135328571Y-49300000D02*
X135328571Y-49414285D01*
X135300000Y-49471428D01*
X135242857Y-49528571D01*
X135128571Y-49557142D01*
X134928571Y-49557142D01*
X134814285Y-49528571D01*
X134757142Y-49471428D01*
X134728571Y-49414285D01*
X134728571Y-49300000D01*
X134757142Y-49242857D01*
X134814285Y-49185714D01*
X134928571Y-49157142D01*
X135128571Y-49157142D01*
X135242857Y-49185714D01*
X135300000Y-49242857D01*
X135328571Y-49300000D01*
X135328571Y-49757142D02*
X135328571Y-50157142D01*
X134728571Y-49900000D01*
X134728571Y-51500000D02*
X135328571Y-51500000D01*
X135328571Y-51900000D02*
X135328571Y-52014285D01*
X135300000Y-52071428D01*
X135242857Y-52128571D01*
X135128571Y-52157142D01*
X134928571Y-52157142D01*
X134814285Y-52128571D01*
X134757142Y-52071428D01*
X134728571Y-52014285D01*
X134728571Y-51900000D01*
X134757142Y-51842857D01*
X134814285Y-51785714D01*
X134928571Y-51757142D01*
X135128571Y-51757142D01*
X135242857Y-51785714D01*
X135300000Y-51842857D01*
X135328571Y-51900000D01*
X135328571Y-52671428D02*
X135328571Y-52557142D01*
X135300000Y-52500000D01*
X135271428Y-52471428D01*
X135185714Y-52414285D01*
X135071428Y-52385714D01*
X134842857Y-52385714D01*
X134785714Y-52414285D01*
X134757142Y-52442857D01*
X134728571Y-52500000D01*
X134728571Y-52614285D01*
X134757142Y-52671428D01*
X134785714Y-52700000D01*
X134842857Y-52728571D01*
X134985714Y-52728571D01*
X135042857Y-52700000D01*
X135071428Y-52671428D01*
X135100000Y-52614285D01*
X135100000Y-52500000D01*
X135071428Y-52442857D01*
X135042857Y-52414285D01*
X134985714Y-52385714D01*
X134728571Y-54271428D02*
X135014285Y-54071428D01*
X134728571Y-53928571D02*
X135328571Y-53928571D01*
X135328571Y-54157142D01*
X135300000Y-54214285D01*
X135271428Y-54242857D01*
X135214285Y-54271428D01*
X135128571Y-54271428D01*
X135071428Y-54242857D01*
X135042857Y-54214285D01*
X135014285Y-54157142D01*
X135014285Y-53928571D01*
X134757142Y-54500000D02*
X134728571Y-54585714D01*
X134728571Y-54728571D01*
X134757142Y-54785714D01*
X134785714Y-54814285D01*
X134842857Y-54842857D01*
X134900000Y-54842857D01*
X134957142Y-54814285D01*
X134985714Y-54785714D01*
X135014285Y-54728571D01*
X135042857Y-54614285D01*
X135071428Y-54557142D01*
X135100000Y-54528571D01*
X135157142Y-54500000D01*
X135214285Y-54500000D01*
X135271428Y-54528571D01*
X135300000Y-54557142D01*
X135328571Y-54614285D01*
X135328571Y-54757142D01*
X135300000Y-54842857D01*
X135328571Y-55014285D02*
X135328571Y-55357142D01*
X134728571Y-55185714D02*
X135328571Y-55185714D01*
X134628571Y-56600000D02*
X135228571Y-56600000D01*
X135228571Y-57000000D02*
X135228571Y-57114285D01*
X135200000Y-57171428D01*
X135142857Y-57228571D01*
X135028571Y-57257142D01*
X134828571Y-57257142D01*
X134714285Y-57228571D01*
X134657142Y-57171428D01*
X134628571Y-57114285D01*
X134628571Y-57000000D01*
X134657142Y-56942857D01*
X134714285Y-56885714D01*
X134828571Y-56857142D01*
X135028571Y-56857142D01*
X135142857Y-56885714D01*
X135200000Y-56942857D01*
X135228571Y-57000000D01*
X135228571Y-57800000D02*
X135228571Y-57514285D01*
X134942857Y-57485714D01*
X134971428Y-57514285D01*
X135000000Y-57571428D01*
X135000000Y-57714285D01*
X134971428Y-57771428D01*
X134942857Y-57800000D01*
X134885714Y-57828571D01*
X134742857Y-57828571D01*
X134685714Y-57800000D01*
X134657142Y-57771428D01*
X134628571Y-57714285D01*
X134628571Y-57571428D01*
X134657142Y-57514285D01*
X134685714Y-57485714D01*
X134628571Y-59100000D02*
X135228571Y-59100000D01*
X135228571Y-59500000D02*
X135228571Y-59614285D01*
X135200000Y-59671428D01*
X135142857Y-59728571D01*
X135028571Y-59757142D01*
X134828571Y-59757142D01*
X134714285Y-59728571D01*
X134657142Y-59671428D01*
X134628571Y-59614285D01*
X134628571Y-59500000D01*
X134657142Y-59442857D01*
X134714285Y-59385714D01*
X134828571Y-59357142D01*
X135028571Y-59357142D01*
X135142857Y-59385714D01*
X135200000Y-59442857D01*
X135228571Y-59500000D01*
X135028571Y-60271428D02*
X134628571Y-60271428D01*
X135257142Y-60128571D02*
X134828571Y-59985714D01*
X134828571Y-60357142D01*
X134728571Y-61600000D02*
X135328571Y-61600000D01*
X135328571Y-62000000D02*
X135328571Y-62114285D01*
X135300000Y-62171428D01*
X135242857Y-62228571D01*
X135128571Y-62257142D01*
X134928571Y-62257142D01*
X134814285Y-62228571D01*
X134757142Y-62171428D01*
X134728571Y-62114285D01*
X134728571Y-62000000D01*
X134757142Y-61942857D01*
X134814285Y-61885714D01*
X134928571Y-61857142D01*
X135128571Y-61857142D01*
X135242857Y-61885714D01*
X135300000Y-61942857D01*
X135328571Y-62000000D01*
X135328571Y-62457142D02*
X135328571Y-62828571D01*
X135100000Y-62628571D01*
X135100000Y-62714285D01*
X135071428Y-62771428D01*
X135042857Y-62800000D01*
X134985714Y-62828571D01*
X134842857Y-62828571D01*
X134785714Y-62800000D01*
X134757142Y-62771428D01*
X134728571Y-62714285D01*
X134728571Y-62542857D01*
X134757142Y-62485714D01*
X134785714Y-62457142D01*
X116771428Y-62900000D02*
X116171428Y-62900000D01*
X116171428Y-62500000D02*
X116171428Y-62385714D01*
X116200000Y-62328571D01*
X116257142Y-62271428D01*
X116371428Y-62242857D01*
X116571428Y-62242857D01*
X116685714Y-62271428D01*
X116742857Y-62328571D01*
X116771428Y-62385714D01*
X116771428Y-62500000D01*
X116742857Y-62557142D01*
X116685714Y-62614285D01*
X116571428Y-62642857D01*
X116371428Y-62642857D01*
X116257142Y-62614285D01*
X116200000Y-62557142D01*
X116171428Y-62500000D01*
X116228571Y-62014285D02*
X116200000Y-61985714D01*
X116171428Y-61928571D01*
X116171428Y-61785714D01*
X116200000Y-61728571D01*
X116228571Y-61700000D01*
X116285714Y-61671428D01*
X116342857Y-61671428D01*
X116428571Y-61700000D01*
X116771428Y-62042857D01*
X116771428Y-61671428D01*
X116171428Y-60157142D02*
X116171428Y-59814285D01*
X116771428Y-59985714D02*
X116171428Y-59985714D01*
X116171428Y-59671428D02*
X116771428Y-59271428D01*
X116171428Y-59271428D02*
X116771428Y-59671428D01*
X116671428Y-57300000D02*
X116385714Y-57500000D01*
X116671428Y-57642857D02*
X116071428Y-57642857D01*
X116071428Y-57414285D01*
X116100000Y-57357142D01*
X116128571Y-57328571D01*
X116185714Y-57300000D01*
X116271428Y-57300000D01*
X116328571Y-57328571D01*
X116357142Y-57357142D01*
X116385714Y-57414285D01*
X116385714Y-57642857D01*
X116071428Y-57100000D02*
X116671428Y-56700000D01*
X116071428Y-56700000D02*
X116671428Y-57100000D01*
X116671428Y-55200000D02*
X116071428Y-55200000D01*
X116071428Y-54800000D02*
X116071428Y-54685714D01*
X116100000Y-54628571D01*
X116157142Y-54571428D01*
X116271428Y-54542857D01*
X116471428Y-54542857D01*
X116585714Y-54571428D01*
X116642857Y-54628571D01*
X116671428Y-54685714D01*
X116671428Y-54800000D01*
X116642857Y-54857142D01*
X116585714Y-54914285D01*
X116471428Y-54942857D01*
X116271428Y-54942857D01*
X116157142Y-54914285D01*
X116100000Y-54857142D01*
X116071428Y-54800000D01*
X116671428Y-53971428D02*
X116671428Y-54314285D01*
X116671428Y-54142857D02*
X116071428Y-54142857D01*
X116157142Y-54200000D01*
X116214285Y-54257142D01*
X116242857Y-54314285D01*
X116671428Y-52600000D02*
X116071428Y-52600000D01*
X116071428Y-52200000D02*
X116071428Y-52085714D01*
X116100000Y-52028571D01*
X116157142Y-51971428D01*
X116271428Y-51942857D01*
X116471428Y-51942857D01*
X116585714Y-51971428D01*
X116642857Y-52028571D01*
X116671428Y-52085714D01*
X116671428Y-52200000D01*
X116642857Y-52257142D01*
X116585714Y-52314285D01*
X116471428Y-52342857D01*
X116271428Y-52342857D01*
X116157142Y-52314285D01*
X116100000Y-52257142D01*
X116071428Y-52200000D01*
X116071428Y-51571428D02*
X116071428Y-51514285D01*
X116100000Y-51457142D01*
X116128571Y-51428571D01*
X116185714Y-51400000D01*
X116300000Y-51371428D01*
X116442857Y-51371428D01*
X116557142Y-51400000D01*
X116614285Y-51428571D01*
X116642857Y-51457142D01*
X116671428Y-51514285D01*
X116671428Y-51571428D01*
X116642857Y-51628571D01*
X116614285Y-51657142D01*
X116557142Y-51685714D01*
X116442857Y-51714285D01*
X116300000Y-51714285D01*
X116185714Y-51685714D01*
X116128571Y-51657142D01*
X116100000Y-51628571D01*
X116071428Y-51571428D01*
X116071428Y-50485714D02*
X116671428Y-50342857D01*
X116242857Y-50228571D01*
X116671428Y-50114285D01*
X116071428Y-49971428D01*
X116500000Y-49771428D02*
X116500000Y-49485714D01*
X116671428Y-49828571D02*
X116071428Y-49628571D01*
X116671428Y-49428571D01*
X116671428Y-49228571D02*
X116071428Y-49228571D01*
X116671428Y-48885714D02*
X116328571Y-49142857D01*
X116071428Y-48885714D02*
X116414285Y-49228571D01*
X116357142Y-48628571D02*
X116357142Y-48428571D01*
X116671428Y-48342857D02*
X116671428Y-48628571D01*
X116071428Y-48628571D01*
X116071428Y-48342857D01*
X116500000Y-47742857D02*
X116500000Y-47457142D01*
X116671428Y-47800000D02*
X116071428Y-47600000D01*
X116671428Y-47400000D01*
X116671428Y-47200000D02*
X116071428Y-47200000D01*
X116071428Y-47057142D01*
X116100000Y-46971428D01*
X116157142Y-46914285D01*
X116214285Y-46885714D01*
X116328571Y-46857142D01*
X116414285Y-46857142D01*
X116528571Y-46885714D01*
X116585714Y-46914285D01*
X116642857Y-46971428D01*
X116671428Y-47057142D01*
X116671428Y-47200000D01*
X116614285Y-46257142D02*
X116642857Y-46285714D01*
X116671428Y-46371428D01*
X116671428Y-46428571D01*
X116642857Y-46514285D01*
X116585714Y-46571428D01*
X116528571Y-46600000D01*
X116414285Y-46628571D01*
X116328571Y-46628571D01*
X116214285Y-46600000D01*
X116157142Y-46571428D01*
X116100000Y-46514285D01*
X116071428Y-46428571D01*
X116071428Y-46371428D01*
X116100000Y-46285714D01*
X116128571Y-46257142D01*
X116100000Y-44957142D02*
X116071428Y-45014285D01*
X116071428Y-45100000D01*
X116100000Y-45185714D01*
X116157142Y-45242857D01*
X116214285Y-45271428D01*
X116328571Y-45300000D01*
X116414285Y-45300000D01*
X116528571Y-45271428D01*
X116585714Y-45242857D01*
X116642857Y-45185714D01*
X116671428Y-45100000D01*
X116671428Y-45042857D01*
X116642857Y-44957142D01*
X116614285Y-44928571D01*
X116414285Y-44928571D01*
X116414285Y-45042857D01*
X116671428Y-44671428D02*
X116071428Y-44671428D01*
X116671428Y-44328571D01*
X116071428Y-44328571D01*
X116671428Y-44042857D02*
X116071428Y-44042857D01*
X116071428Y-43900000D01*
X116100000Y-43814285D01*
X116157142Y-43757142D01*
X116214285Y-43728571D01*
X116328571Y-43700000D01*
X116414285Y-43700000D01*
X116528571Y-43728571D01*
X116585714Y-43757142D01*
X116642857Y-43814285D01*
X116671428Y-43900000D01*
X116671428Y-44042857D01*
D11*
X126371560Y-58801220D02*
X126023580Y-58801220D01*
X126023580Y-58801220D02*
X126023580Y-59598780D01*
X126371560Y-59598780D02*
X126023580Y-59598780D01*
X126371560Y-58801220D02*
X126371560Y-59598780D01*
X125124420Y-58801220D02*
X124776440Y-58801220D01*
X124776440Y-58801220D02*
X124776440Y-59598780D01*
X125124420Y-59598780D02*
X124776440Y-59598780D01*
X125124420Y-58801220D02*
X125124420Y-59598780D01*
X126973540Y-58402440D02*
X124174460Y-58402440D01*
X124174460Y-58402440D02*
X124174460Y-59997560D01*
X126973540Y-59997560D02*
X124174460Y-59997560D01*
X126973540Y-58402440D02*
X126973540Y-59997560D01*
D12*
X125256500Y-59517500D02*
X125256500Y-58882500D01*
X125256500Y-59200000D02*
X125891500Y-59517500D01*
X125891500Y-59517500D02*
X125891500Y-58882500D01*
X125891500Y-58882500D02*
X125256500Y-59200000D01*
D11*
X114046000Y-59436000D02*
X114046000Y-59944000D01*
X114046000Y-59944000D02*
X114554000Y-59944000D01*
X114554000Y-59436000D02*
X114554000Y-59944000D01*
X114046000Y-59436000D02*
X114554000Y-59436000D01*
X114046000Y-56896000D02*
X114046000Y-57404000D01*
X114046000Y-57404000D02*
X114554000Y-57404000D01*
X114554000Y-56896000D02*
X114554000Y-57404000D01*
X114046000Y-56896000D02*
X114554000Y-56896000D01*
X114046000Y-54356000D02*
X114046000Y-54864000D01*
X114046000Y-54864000D02*
X114554000Y-54864000D01*
X114554000Y-54356000D02*
X114554000Y-54864000D01*
X114046000Y-54356000D02*
X114554000Y-54356000D01*
X114046000Y-51816000D02*
X114046000Y-52324000D01*
X114046000Y-52324000D02*
X114554000Y-52324000D01*
X114554000Y-51816000D02*
X114554000Y-52324000D01*
X114046000Y-51816000D02*
X114554000Y-51816000D01*
X114046000Y-49276000D02*
X114046000Y-49784000D01*
X114046000Y-49784000D02*
X114554000Y-49784000D01*
X114554000Y-49276000D02*
X114554000Y-49784000D01*
X114046000Y-49276000D02*
X114554000Y-49276000D01*
X114046000Y-46736000D02*
X114046000Y-47244000D01*
X114046000Y-47244000D02*
X114554000Y-47244000D01*
X114554000Y-46736000D02*
X114554000Y-47244000D01*
X114046000Y-46736000D02*
X114554000Y-46736000D01*
X114046000Y-44196000D02*
X114046000Y-44704000D01*
X114046000Y-44704000D02*
X114554000Y-44704000D01*
X114554000Y-44196000D02*
X114554000Y-44704000D01*
X114046000Y-44196000D02*
X114554000Y-44196000D01*
X114046000Y-61976000D02*
X114046000Y-62484000D01*
X114046000Y-62484000D02*
X114554000Y-62484000D01*
X114554000Y-61976000D02*
X114554000Y-62484000D01*
X114046000Y-61976000D02*
X114554000Y-61976000D01*
D13*
X115570000Y-59055000D02*
X115570000Y-60325000D01*
X115570000Y-60325000D02*
X114935000Y-60960000D01*
X114935000Y-60960000D02*
X113665000Y-60960000D01*
X113665000Y-60960000D02*
X113030000Y-60325000D01*
X114935000Y-55880000D02*
X115570000Y-56515000D01*
X115570000Y-56515000D02*
X115570000Y-57785000D01*
X115570000Y-57785000D02*
X114935000Y-58420000D01*
X114935000Y-58420000D02*
X113665000Y-58420000D01*
X113665000Y-58420000D02*
X113030000Y-57785000D01*
X113030000Y-57785000D02*
X113030000Y-56515000D01*
X113030000Y-56515000D02*
X113665000Y-55880000D01*
X115570000Y-59055000D02*
X114935000Y-58420000D01*
X113665000Y-58420000D02*
X113030000Y-59055000D01*
X113030000Y-60325000D02*
X113030000Y-59055000D01*
X115570000Y-51435000D02*
X115570000Y-52705000D01*
X115570000Y-52705000D02*
X114935000Y-53340000D01*
X114935000Y-53340000D02*
X113665000Y-53340000D01*
X113665000Y-53340000D02*
X113030000Y-52705000D01*
X114935000Y-53340000D02*
X115570000Y-53975000D01*
X115570000Y-53975000D02*
X115570000Y-55245000D01*
X115570000Y-55245000D02*
X114935000Y-55880000D01*
X114935000Y-55880000D02*
X113665000Y-55880000D01*
X113665000Y-55880000D02*
X113030000Y-55245000D01*
X113030000Y-55245000D02*
X113030000Y-53975000D01*
X113030000Y-53975000D02*
X113665000Y-53340000D01*
X114935000Y-48260000D02*
X115570000Y-48895000D01*
X115570000Y-48895000D02*
X115570000Y-50165000D01*
X115570000Y-50165000D02*
X114935000Y-50800000D01*
X114935000Y-50800000D02*
X113665000Y-50800000D01*
X113665000Y-50800000D02*
X113030000Y-50165000D01*
X113030000Y-50165000D02*
X113030000Y-48895000D01*
X113030000Y-48895000D02*
X113665000Y-48260000D01*
X115570000Y-51435000D02*
X114935000Y-50800000D01*
X113665000Y-50800000D02*
X113030000Y-51435000D01*
X113030000Y-52705000D02*
X113030000Y-51435000D01*
X115570000Y-43815000D02*
X115570000Y-45085000D01*
X115570000Y-45085000D02*
X114935000Y-45720000D01*
X114935000Y-45720000D02*
X113665000Y-45720000D01*
X113665000Y-45720000D02*
X113030000Y-45085000D01*
X114935000Y-45720000D02*
X115570000Y-46355000D01*
X115570000Y-46355000D02*
X115570000Y-47625000D01*
X115570000Y-47625000D02*
X114935000Y-48260000D01*
X114935000Y-48260000D02*
X113665000Y-48260000D01*
X113665000Y-48260000D02*
X113030000Y-47625000D01*
X113030000Y-47625000D02*
X113030000Y-46355000D01*
X113030000Y-46355000D02*
X113665000Y-45720000D01*
X114935000Y-43180000D02*
X113665000Y-43180000D01*
X115570000Y-43815000D02*
X114935000Y-43180000D01*
X113665000Y-43180000D02*
X113030000Y-43815000D01*
X113030000Y-45085000D02*
X113030000Y-43815000D01*
X115570000Y-61595000D02*
X115570000Y-62865000D01*
X115570000Y-62865000D02*
X114935000Y-63500000D01*
X114935000Y-63500000D02*
X113665000Y-63500000D01*
X113665000Y-63500000D02*
X113030000Y-62865000D01*
X115570000Y-61595000D02*
X114935000Y-60960000D01*
X113665000Y-60960000D02*
X113030000Y-61595000D01*
X113030000Y-62865000D02*
X113030000Y-61595000D01*
X138430000Y-43815000D02*
X138430000Y-45085000D01*
X137795000Y-45720000D02*
X138430000Y-45085000D01*
X135890000Y-45085000D02*
X136525000Y-45720000D01*
X137795000Y-43180000D02*
X138430000Y-43815000D01*
X136525000Y-43180000D02*
X137795000Y-43180000D01*
X135890000Y-43815000D02*
X136525000Y-43180000D01*
X135890000Y-45085000D02*
X135890000Y-43815000D01*
X138430000Y-61595000D02*
X138430000Y-62865000D01*
X137795000Y-63500000D02*
X138430000Y-62865000D01*
X135890000Y-62865000D02*
X136525000Y-63500000D01*
X136525000Y-63500000D02*
X137795000Y-63500000D01*
X138430000Y-60325000D02*
X137795000Y-60960000D01*
X138430000Y-59055000D02*
X138430000Y-60325000D01*
X137795000Y-58420000D02*
X138430000Y-59055000D01*
X136525000Y-58420000D02*
X137795000Y-58420000D01*
X135890000Y-59055000D02*
X136525000Y-58420000D01*
X135890000Y-60325000D02*
X135890000Y-59055000D01*
X136525000Y-60960000D02*
X135890000Y-60325000D01*
X137795000Y-60960000D02*
X138430000Y-61595000D01*
X136525000Y-60960000D02*
X137795000Y-60960000D01*
X135890000Y-61595000D02*
X136525000Y-60960000D01*
X135890000Y-62865000D02*
X135890000Y-61595000D01*
X138430000Y-53975000D02*
X138430000Y-55245000D01*
X137795000Y-55880000D02*
X138430000Y-55245000D01*
X135890000Y-55245000D02*
X136525000Y-55880000D01*
X138430000Y-57785000D02*
X137795000Y-58420000D01*
X138430000Y-56515000D02*
X138430000Y-57785000D01*
X137795000Y-55880000D02*
X138430000Y-56515000D01*
X136525000Y-55880000D02*
X137795000Y-55880000D01*
X135890000Y-56515000D02*
X136525000Y-55880000D01*
X135890000Y-57785000D02*
X135890000Y-56515000D01*
X136525000Y-58420000D02*
X135890000Y-57785000D01*
X138430000Y-52705000D02*
X137795000Y-53340000D01*
X138430000Y-51435000D02*
X138430000Y-52705000D01*
X137795000Y-50800000D02*
X138430000Y-51435000D01*
X136525000Y-50800000D02*
X137795000Y-50800000D01*
X135890000Y-51435000D02*
X136525000Y-50800000D01*
X135890000Y-52705000D02*
X135890000Y-51435000D01*
X136525000Y-53340000D02*
X135890000Y-52705000D01*
X137795000Y-53340000D02*
X138430000Y-53975000D01*
X136525000Y-53340000D02*
X137795000Y-53340000D01*
X135890000Y-53975000D02*
X136525000Y-53340000D01*
X135890000Y-55245000D02*
X135890000Y-53975000D01*
X138430000Y-46355000D02*
X138430000Y-47625000D01*
X137795000Y-48260000D02*
X138430000Y-47625000D01*
X135890000Y-47625000D02*
X136525000Y-48260000D01*
X138430000Y-50165000D02*
X137795000Y-50800000D01*
X138430000Y-48895000D02*
X138430000Y-50165000D01*
X137795000Y-48260000D02*
X138430000Y-48895000D01*
X136525000Y-48260000D02*
X137795000Y-48260000D01*
X135890000Y-48895000D02*
X136525000Y-48260000D01*
X135890000Y-50165000D02*
X135890000Y-48895000D01*
X136525000Y-50800000D02*
X135890000Y-50165000D01*
X137795000Y-45720000D02*
X138430000Y-46355000D01*
X136525000Y-45720000D02*
X137795000Y-45720000D01*
X135890000Y-46355000D02*
X136525000Y-45720000D01*
X135890000Y-47625000D02*
X135890000Y-46355000D01*
D11*
X137414000Y-44704000D02*
X136906000Y-44704000D01*
X136906000Y-44704000D02*
X136906000Y-44196000D01*
X137414000Y-44196000D02*
X136906000Y-44196000D01*
X137414000Y-44704000D02*
X137414000Y-44196000D01*
X137414000Y-62484000D02*
X136906000Y-62484000D01*
X136906000Y-62484000D02*
X136906000Y-61976000D01*
X137414000Y-61976000D02*
X136906000Y-61976000D01*
X137414000Y-62484000D02*
X137414000Y-61976000D01*
X137414000Y-59944000D02*
X136906000Y-59944000D01*
X136906000Y-59944000D02*
X136906000Y-59436000D01*
X137414000Y-59436000D02*
X136906000Y-59436000D01*
X137414000Y-59944000D02*
X137414000Y-59436000D01*
X137414000Y-57404000D02*
X136906000Y-57404000D01*
X136906000Y-57404000D02*
X136906000Y-56896000D01*
X137414000Y-56896000D02*
X136906000Y-56896000D01*
X137414000Y-57404000D02*
X137414000Y-56896000D01*
X137414000Y-54864000D02*
X136906000Y-54864000D01*
X136906000Y-54864000D02*
X136906000Y-54356000D01*
X137414000Y-54356000D02*
X136906000Y-54356000D01*
X137414000Y-54864000D02*
X137414000Y-54356000D01*
X137414000Y-52324000D02*
X136906000Y-52324000D01*
X136906000Y-52324000D02*
X136906000Y-51816000D01*
X137414000Y-51816000D02*
X136906000Y-51816000D01*
X137414000Y-52324000D02*
X137414000Y-51816000D01*
X137414000Y-49784000D02*
X136906000Y-49784000D01*
X136906000Y-49784000D02*
X136906000Y-49276000D01*
X137414000Y-49276000D02*
X136906000Y-49276000D01*
X137414000Y-49784000D02*
X137414000Y-49276000D01*
X137414000Y-47244000D02*
X136906000Y-47244000D01*
X136906000Y-47244000D02*
X136906000Y-46736000D01*
X137414000Y-46736000D02*
X136906000Y-46736000D01*
X137414000Y-47244000D02*
X137414000Y-46736000D01*
D10*
X123700000Y-61000000D02*
X123700000Y-61500000D01*
X123700000Y-61500000D02*
X127700000Y-61500000D01*
X127700000Y-61500000D02*
X127700000Y-61000000D01*
X125700000Y-61000000D02*
X130200000Y-61000000D01*
X130200000Y-61000000D02*
X130200000Y-64000000D01*
X130200000Y-64000000D02*
X121200000Y-64000000D01*
X121200000Y-64000000D02*
X121200000Y-61000000D01*
X121200000Y-61000000D02*
X125700000Y-61000000D01*
D14*
X133860000Y-39000000D02*
X133860000Y-56400000D01*
X117360000Y-56400000D02*
X133860000Y-56400000D01*
X117360000Y-39000000D02*
X117360000Y-56400000D01*
X133860000Y-39000000D02*
X117360000Y-39000000D01*
X133860000Y-39000000D02*
X133860000Y-32900000D01*
X117360000Y-32900000D02*
X117360000Y-39000000D01*
X133860000Y-32900000D02*
X117360000Y-32900000D01*
X135490000Y-41596078D02*
X135490000Y-41078922D01*
X136910000Y-41596078D02*
X136910000Y-41078922D01*
X115090000Y-41362779D02*
X115090000Y-41037221D01*
X116110000Y-41362779D02*
X116110000Y-41037221D01*
X122450779Y-59710000D02*
X122125221Y-59710000D01*
X122450779Y-58690000D02*
X122125221Y-58690000D01*
X118962779Y-58590000D02*
X118637221Y-58590000D01*
X118962779Y-59610000D02*
X118637221Y-59610000D01*
D15*
X124883523Y-58261904D02*
X124883523Y-57461904D01*
X125074000Y-57461904D01*
X125188285Y-57500000D01*
X125264476Y-57576190D01*
X125302571Y-57652380D01*
X125340666Y-57804761D01*
X125340666Y-57919047D01*
X125302571Y-58071428D01*
X125264476Y-58147619D01*
X125188285Y-58223809D01*
X125074000Y-58261904D01*
X124883523Y-58261904D01*
X126102571Y-58261904D02*
X125645428Y-58261904D01*
X125874000Y-58261904D02*
X125874000Y-57461904D01*
X125797809Y-57576190D01*
X125721619Y-57652380D01*
X125645428Y-57690476D01*
X130083333Y-59673809D02*
X130197619Y-59711904D01*
X130388095Y-59711904D01*
X130464285Y-59673809D01*
X130502380Y-59635714D01*
X130540476Y-59559523D01*
X130540476Y-59483333D01*
X130502380Y-59407142D01*
X130464285Y-59369047D01*
X130388095Y-59330952D01*
X130235714Y-59292857D01*
X130159523Y-59254761D01*
X130121428Y-59216666D01*
X130083333Y-59140476D01*
X130083333Y-59064285D01*
X130121428Y-58988095D01*
X130159523Y-58950000D01*
X130235714Y-58911904D01*
X130426190Y-58911904D01*
X130540476Y-58950000D01*
X130807142Y-58911904D02*
X130997619Y-59711904D01*
X131150000Y-59140476D01*
X131302380Y-59711904D01*
X131492857Y-58911904D01*
X132216666Y-59711904D02*
X131759523Y-59711904D01*
X131988095Y-59711904D02*
X131988095Y-58911904D01*
X131911904Y-59026190D01*
X131835714Y-59102380D01*
X131759523Y-59140476D01*
D10*
X130461904Y-63852380D02*
X130461904Y-62852380D01*
X130842857Y-62852380D01*
X130938095Y-62900000D01*
X130985714Y-62947619D01*
X131033333Y-63042857D01*
X131033333Y-63185714D01*
X130985714Y-63280952D01*
X130938095Y-63328571D01*
X130842857Y-63376190D01*
X130461904Y-63376190D01*
X131366666Y-62852380D02*
X131985714Y-62852380D01*
X131652380Y-63233333D01*
X131795238Y-63233333D01*
X131890476Y-63280952D01*
X131938095Y-63328571D01*
X131985714Y-63423809D01*
X131985714Y-63661904D01*
X131938095Y-63757142D01*
X131890476Y-63804761D01*
X131795238Y-63852380D01*
X131509523Y-63852380D01*
X131414285Y-63804761D01*
X131366666Y-63757142D01*
X132238095Y-56552380D02*
X132238095Y-57361904D01*
X132285714Y-57457142D01*
X132333333Y-57504761D01*
X132428571Y-57552380D01*
X132619047Y-57552380D01*
X132714285Y-57504761D01*
X132761904Y-57457142D01*
X132809523Y-57361904D01*
X132809523Y-56552380D01*
X133809523Y-57552380D02*
X133238095Y-57552380D01*
X133523809Y-57552380D02*
X133523809Y-56552380D01*
X133428571Y-56695238D01*
X133333333Y-56790476D01*
X133238095Y-56838095D01*
X116400000Y-41157142D02*
X116447619Y-41204761D01*
X116400000Y-41252380D01*
X116352380Y-41204761D01*
X116400000Y-41157142D01*
X116400000Y-41252380D01*
X134033333Y-40357142D02*
X133985714Y-40404761D01*
X133842857Y-40452380D01*
X133747619Y-40452380D01*
X133604761Y-40404761D01*
X133509523Y-40309523D01*
X133461904Y-40214285D01*
X133414285Y-40023809D01*
X133414285Y-39880952D01*
X133461904Y-39690476D01*
X133509523Y-39595238D01*
X133604761Y-39500000D01*
X133747619Y-39452380D01*
X133842857Y-39452380D01*
X133985714Y-39500000D01*
X134033333Y-39547619D01*
X134985714Y-40452380D02*
X134414285Y-40452380D01*
X134700000Y-40452380D02*
X134700000Y-39452380D01*
X134604761Y-39595238D01*
X134509523Y-39690476D01*
X134414285Y-39738095D01*
X114527142Y-41366666D02*
X114574761Y-41414285D01*
X114622380Y-41557142D01*
X114622380Y-41652380D01*
X114574761Y-41795238D01*
X114479523Y-41890476D01*
X114384285Y-41938095D01*
X114193809Y-41985714D01*
X114050952Y-41985714D01*
X113860476Y-41938095D01*
X113765238Y-41890476D01*
X113670000Y-41795238D01*
X113622380Y-41652380D01*
X113622380Y-41557142D01*
X113670000Y-41414285D01*
X113717619Y-41366666D01*
X113622380Y-41033333D02*
X113622380Y-40414285D01*
X114003333Y-40747619D01*
X114003333Y-40604761D01*
X114050952Y-40509523D01*
X114098571Y-40461904D01*
X114193809Y-40414285D01*
X114431904Y-40414285D01*
X114527142Y-40461904D01*
X114574761Y-40509523D01*
X114622380Y-40604761D01*
X114622380Y-40890476D01*
X114574761Y-40985714D01*
X114527142Y-41033333D01*
X122054666Y-58261904D02*
X121788000Y-57880952D01*
X121597523Y-58261904D02*
X121597523Y-57461904D01*
X121902285Y-57461904D01*
X121978476Y-57500000D01*
X122016571Y-57538095D01*
X122054666Y-57614285D01*
X122054666Y-57728571D01*
X122016571Y-57804761D01*
X121978476Y-57842857D01*
X121902285Y-57880952D01*
X121597523Y-57880952D01*
X122359428Y-57538095D02*
X122397523Y-57500000D01*
X122473714Y-57461904D01*
X122664190Y-57461904D01*
X122740380Y-57500000D01*
X122778476Y-57538095D01*
X122816571Y-57614285D01*
X122816571Y-57690476D01*
X122778476Y-57804761D01*
X122321333Y-58261904D01*
X122816571Y-58261904D01*
X118666666Y-58161904D02*
X118400000Y-57780952D01*
X118209523Y-58161904D02*
X118209523Y-57361904D01*
X118514285Y-57361904D01*
X118590476Y-57400000D01*
X118628571Y-57438095D01*
X118666666Y-57514285D01*
X118666666Y-57628571D01*
X118628571Y-57704761D01*
X118590476Y-57742857D01*
X118514285Y-57780952D01*
X118209523Y-57780952D01*
X119123809Y-57704761D02*
X119047619Y-57666666D01*
X119009523Y-57628571D01*
X118971428Y-57552380D01*
X118971428Y-57514285D01*
X119009523Y-57438095D01*
X119047619Y-57400000D01*
X119123809Y-57361904D01*
X119276190Y-57361904D01*
X119352380Y-57400000D01*
X119390476Y-57438095D01*
X119428571Y-57514285D01*
X119428571Y-57552380D01*
X119390476Y-57628571D01*
X119352380Y-57666666D01*
X119276190Y-57704761D01*
X119123809Y-57704761D01*
X119047619Y-57742857D01*
X119009523Y-57780952D01*
X118971428Y-57857142D01*
X118971428Y-58009523D01*
X119009523Y-58085714D01*
X119047619Y-58123809D01*
X119123809Y-58161904D01*
X119276190Y-58161904D01*
X119352380Y-58123809D01*
X119390476Y-58085714D01*
X119428571Y-58009523D01*
X119428571Y-57857142D01*
X119390476Y-57780952D01*
X119352380Y-57742857D01*
X119276190Y-57704761D01*
M02*
