G04 #@! TF.GenerationSoftware,KiCad,Pcbnew,(5.1.2)-1*
G04 #@! TF.CreationDate,2019-06-15T01:06:45+09:00*
G04 #@! TF.ProjectId,ble5,626c6535-2e6b-4696-9361-645f70636258,v1.0*
G04 #@! TF.SameCoordinates,Original*
G04 #@! TF.FileFunction,Paste,Top*
G04 #@! TF.FilePolarity,Positive*
%FSLAX46Y46*%
G04 Gerber Fmt 4.6, Leading zero omitted, Abs format (unit mm)*
G04 Created by KiCad (PCBNEW (5.1.2)-1) date 2019-06-15 01:06:45*
%MOMM*%
%LPD*%
G04 APERTURE LIST*
%ADD10R,1.049020X1.079500*%
%ADD11O,3.048000X1.524000*%
%ADD12R,1.050000X0.650000*%
%ADD13O,1.524000X1.800000*%
%ADD14O,0.760000X2.300000*%
%ADD15O,2.300000X0.760000*%
%ADD16C,0.050000*%
%ADD17C,0.975000*%
%ADD18C,0.875000*%
G04 APERTURE END LIST*
D10*
X126447760Y-59200000D03*
X124700240Y-59200000D03*
D11*
X114300000Y-44450000D03*
X114300000Y-46990000D03*
X114300000Y-49530000D03*
X114300000Y-52070000D03*
X114300000Y-54610000D03*
X114300000Y-57150000D03*
X114300000Y-59690000D03*
X114300000Y-62230000D03*
X137160000Y-44450000D03*
X137160000Y-46990000D03*
X137160000Y-49530000D03*
X137160000Y-52070000D03*
X137160000Y-54610000D03*
X137160000Y-57150000D03*
X137160000Y-59690000D03*
X137160000Y-62230000D03*
D12*
X129150000Y-58200000D03*
X133300000Y-58200000D03*
X129150000Y-60350000D03*
X133300000Y-60350000D03*
D13*
X128700000Y-62500000D03*
X126700000Y-62500000D03*
X124700000Y-62500000D03*
X122700000Y-62500000D03*
D14*
X119940000Y-39600000D03*
X122480000Y-39600000D03*
X121210000Y-39600000D03*
X123750000Y-39600000D03*
X125020000Y-39600000D03*
X126290000Y-39600000D03*
X127560000Y-39600000D03*
X128830000Y-39600000D03*
X130100000Y-39600000D03*
X131370000Y-39600000D03*
D15*
X133310000Y-41170000D03*
X133310000Y-42440000D03*
X133310000Y-43710000D03*
X133310000Y-44980000D03*
X133310000Y-46250000D03*
X133310000Y-47520000D03*
X133310000Y-48790000D03*
X133310000Y-50060000D03*
X133310000Y-51330000D03*
X133310000Y-52600000D03*
X133310000Y-53870000D03*
X133310000Y-55140000D03*
D14*
X131370000Y-55975000D03*
X130100000Y-55975000D03*
X128830000Y-55975000D03*
X127560000Y-55975000D03*
X126290000Y-55975000D03*
X125020000Y-55975000D03*
X123750000Y-55975000D03*
X122480000Y-55975000D03*
X121210000Y-55975000D03*
X119940000Y-55975000D03*
D15*
X118000000Y-55140000D03*
X118000000Y-53870000D03*
X118000000Y-52600000D03*
X118000000Y-51330000D03*
X118000000Y-50060000D03*
X118000000Y-48790000D03*
X118000000Y-47520000D03*
X118000000Y-46250000D03*
X118000000Y-44980000D03*
X118000000Y-43710000D03*
X118000000Y-42440000D03*
X118000000Y-41170000D03*
D16*
G36*
X136680142Y-41788674D02*
G01*
X136703803Y-41792184D01*
X136727007Y-41797996D01*
X136749529Y-41806054D01*
X136771153Y-41816282D01*
X136791670Y-41828579D01*
X136810883Y-41842829D01*
X136828607Y-41858893D01*
X136844671Y-41876617D01*
X136858921Y-41895830D01*
X136871218Y-41916347D01*
X136881446Y-41937971D01*
X136889504Y-41960493D01*
X136895316Y-41983697D01*
X136898826Y-42007358D01*
X136900000Y-42031250D01*
X136900000Y-42518750D01*
X136898826Y-42542642D01*
X136895316Y-42566303D01*
X136889504Y-42589507D01*
X136881446Y-42612029D01*
X136871218Y-42633653D01*
X136858921Y-42654170D01*
X136844671Y-42673383D01*
X136828607Y-42691107D01*
X136810883Y-42707171D01*
X136791670Y-42721421D01*
X136771153Y-42733718D01*
X136749529Y-42743946D01*
X136727007Y-42752004D01*
X136703803Y-42757816D01*
X136680142Y-42761326D01*
X136656250Y-42762500D01*
X135743750Y-42762500D01*
X135719858Y-42761326D01*
X135696197Y-42757816D01*
X135672993Y-42752004D01*
X135650471Y-42743946D01*
X135628847Y-42733718D01*
X135608330Y-42721421D01*
X135589117Y-42707171D01*
X135571393Y-42691107D01*
X135555329Y-42673383D01*
X135541079Y-42654170D01*
X135528782Y-42633653D01*
X135518554Y-42612029D01*
X135510496Y-42589507D01*
X135504684Y-42566303D01*
X135501174Y-42542642D01*
X135500000Y-42518750D01*
X135500000Y-42031250D01*
X135501174Y-42007358D01*
X135504684Y-41983697D01*
X135510496Y-41960493D01*
X135518554Y-41937971D01*
X135528782Y-41916347D01*
X135541079Y-41895830D01*
X135555329Y-41876617D01*
X135571393Y-41858893D01*
X135589117Y-41842829D01*
X135608330Y-41828579D01*
X135628847Y-41816282D01*
X135650471Y-41806054D01*
X135672993Y-41797996D01*
X135696197Y-41792184D01*
X135719858Y-41788674D01*
X135743750Y-41787500D01*
X136656250Y-41787500D01*
X136680142Y-41788674D01*
X136680142Y-41788674D01*
G37*
D17*
X136200000Y-42275000D03*
D16*
G36*
X136680142Y-39913674D02*
G01*
X136703803Y-39917184D01*
X136727007Y-39922996D01*
X136749529Y-39931054D01*
X136771153Y-39941282D01*
X136791670Y-39953579D01*
X136810883Y-39967829D01*
X136828607Y-39983893D01*
X136844671Y-40001617D01*
X136858921Y-40020830D01*
X136871218Y-40041347D01*
X136881446Y-40062971D01*
X136889504Y-40085493D01*
X136895316Y-40108697D01*
X136898826Y-40132358D01*
X136900000Y-40156250D01*
X136900000Y-40643750D01*
X136898826Y-40667642D01*
X136895316Y-40691303D01*
X136889504Y-40714507D01*
X136881446Y-40737029D01*
X136871218Y-40758653D01*
X136858921Y-40779170D01*
X136844671Y-40798383D01*
X136828607Y-40816107D01*
X136810883Y-40832171D01*
X136791670Y-40846421D01*
X136771153Y-40858718D01*
X136749529Y-40868946D01*
X136727007Y-40877004D01*
X136703803Y-40882816D01*
X136680142Y-40886326D01*
X136656250Y-40887500D01*
X135743750Y-40887500D01*
X135719858Y-40886326D01*
X135696197Y-40882816D01*
X135672993Y-40877004D01*
X135650471Y-40868946D01*
X135628847Y-40858718D01*
X135608330Y-40846421D01*
X135589117Y-40832171D01*
X135571393Y-40816107D01*
X135555329Y-40798383D01*
X135541079Y-40779170D01*
X135528782Y-40758653D01*
X135518554Y-40737029D01*
X135510496Y-40714507D01*
X135504684Y-40691303D01*
X135501174Y-40667642D01*
X135500000Y-40643750D01*
X135500000Y-40156250D01*
X135501174Y-40132358D01*
X135504684Y-40108697D01*
X135510496Y-40085493D01*
X135518554Y-40062971D01*
X135528782Y-40041347D01*
X135541079Y-40020830D01*
X135555329Y-40001617D01*
X135571393Y-39983893D01*
X135589117Y-39967829D01*
X135608330Y-39953579D01*
X135628847Y-39941282D01*
X135650471Y-39931054D01*
X135672993Y-39922996D01*
X135696197Y-39917184D01*
X135719858Y-39913674D01*
X135743750Y-39912500D01*
X136656250Y-39912500D01*
X136680142Y-39913674D01*
X136680142Y-39913674D01*
G37*
D17*
X136200000Y-40400000D03*
D16*
G36*
X115877691Y-41551053D02*
G01*
X115898926Y-41554203D01*
X115919750Y-41559419D01*
X115939962Y-41566651D01*
X115959368Y-41575830D01*
X115977781Y-41586866D01*
X115995024Y-41599654D01*
X116010930Y-41614070D01*
X116025346Y-41629976D01*
X116038134Y-41647219D01*
X116049170Y-41665632D01*
X116058349Y-41685038D01*
X116065581Y-41705250D01*
X116070797Y-41726074D01*
X116073947Y-41747309D01*
X116075000Y-41768750D01*
X116075000Y-42206250D01*
X116073947Y-42227691D01*
X116070797Y-42248926D01*
X116065581Y-42269750D01*
X116058349Y-42289962D01*
X116049170Y-42309368D01*
X116038134Y-42327781D01*
X116025346Y-42345024D01*
X116010930Y-42360930D01*
X115995024Y-42375346D01*
X115977781Y-42388134D01*
X115959368Y-42399170D01*
X115939962Y-42408349D01*
X115919750Y-42415581D01*
X115898926Y-42420797D01*
X115877691Y-42423947D01*
X115856250Y-42425000D01*
X115343750Y-42425000D01*
X115322309Y-42423947D01*
X115301074Y-42420797D01*
X115280250Y-42415581D01*
X115260038Y-42408349D01*
X115240632Y-42399170D01*
X115222219Y-42388134D01*
X115204976Y-42375346D01*
X115189070Y-42360930D01*
X115174654Y-42345024D01*
X115161866Y-42327781D01*
X115150830Y-42309368D01*
X115141651Y-42289962D01*
X115134419Y-42269750D01*
X115129203Y-42248926D01*
X115126053Y-42227691D01*
X115125000Y-42206250D01*
X115125000Y-41768750D01*
X115126053Y-41747309D01*
X115129203Y-41726074D01*
X115134419Y-41705250D01*
X115141651Y-41685038D01*
X115150830Y-41665632D01*
X115161866Y-41647219D01*
X115174654Y-41629976D01*
X115189070Y-41614070D01*
X115204976Y-41599654D01*
X115222219Y-41586866D01*
X115240632Y-41575830D01*
X115260038Y-41566651D01*
X115280250Y-41559419D01*
X115301074Y-41554203D01*
X115322309Y-41551053D01*
X115343750Y-41550000D01*
X115856250Y-41550000D01*
X115877691Y-41551053D01*
X115877691Y-41551053D01*
G37*
D18*
X115600000Y-41987500D03*
D16*
G36*
X115877691Y-39976053D02*
G01*
X115898926Y-39979203D01*
X115919750Y-39984419D01*
X115939962Y-39991651D01*
X115959368Y-40000830D01*
X115977781Y-40011866D01*
X115995024Y-40024654D01*
X116010930Y-40039070D01*
X116025346Y-40054976D01*
X116038134Y-40072219D01*
X116049170Y-40090632D01*
X116058349Y-40110038D01*
X116065581Y-40130250D01*
X116070797Y-40151074D01*
X116073947Y-40172309D01*
X116075000Y-40193750D01*
X116075000Y-40631250D01*
X116073947Y-40652691D01*
X116070797Y-40673926D01*
X116065581Y-40694750D01*
X116058349Y-40714962D01*
X116049170Y-40734368D01*
X116038134Y-40752781D01*
X116025346Y-40770024D01*
X116010930Y-40785930D01*
X115995024Y-40800346D01*
X115977781Y-40813134D01*
X115959368Y-40824170D01*
X115939962Y-40833349D01*
X115919750Y-40840581D01*
X115898926Y-40845797D01*
X115877691Y-40848947D01*
X115856250Y-40850000D01*
X115343750Y-40850000D01*
X115322309Y-40848947D01*
X115301074Y-40845797D01*
X115280250Y-40840581D01*
X115260038Y-40833349D01*
X115240632Y-40824170D01*
X115222219Y-40813134D01*
X115204976Y-40800346D01*
X115189070Y-40785930D01*
X115174654Y-40770024D01*
X115161866Y-40752781D01*
X115150830Y-40734368D01*
X115141651Y-40714962D01*
X115134419Y-40694750D01*
X115129203Y-40673926D01*
X115126053Y-40652691D01*
X115125000Y-40631250D01*
X115125000Y-40193750D01*
X115126053Y-40172309D01*
X115129203Y-40151074D01*
X115134419Y-40130250D01*
X115141651Y-40110038D01*
X115150830Y-40090632D01*
X115161866Y-40072219D01*
X115174654Y-40054976D01*
X115189070Y-40039070D01*
X115204976Y-40024654D01*
X115222219Y-40011866D01*
X115240632Y-40000830D01*
X115260038Y-39991651D01*
X115280250Y-39984419D01*
X115301074Y-39979203D01*
X115322309Y-39976053D01*
X115343750Y-39975000D01*
X115856250Y-39975000D01*
X115877691Y-39976053D01*
X115877691Y-39976053D01*
G37*
D18*
X115600000Y-40412500D03*
D16*
G36*
X123315691Y-58726053D02*
G01*
X123336926Y-58729203D01*
X123357750Y-58734419D01*
X123377962Y-58741651D01*
X123397368Y-58750830D01*
X123415781Y-58761866D01*
X123433024Y-58774654D01*
X123448930Y-58789070D01*
X123463346Y-58804976D01*
X123476134Y-58822219D01*
X123487170Y-58840632D01*
X123496349Y-58860038D01*
X123503581Y-58880250D01*
X123508797Y-58901074D01*
X123511947Y-58922309D01*
X123513000Y-58943750D01*
X123513000Y-59456250D01*
X123511947Y-59477691D01*
X123508797Y-59498926D01*
X123503581Y-59519750D01*
X123496349Y-59539962D01*
X123487170Y-59559368D01*
X123476134Y-59577781D01*
X123463346Y-59595024D01*
X123448930Y-59610930D01*
X123433024Y-59625346D01*
X123415781Y-59638134D01*
X123397368Y-59649170D01*
X123377962Y-59658349D01*
X123357750Y-59665581D01*
X123336926Y-59670797D01*
X123315691Y-59673947D01*
X123294250Y-59675000D01*
X122856750Y-59675000D01*
X122835309Y-59673947D01*
X122814074Y-59670797D01*
X122793250Y-59665581D01*
X122773038Y-59658349D01*
X122753632Y-59649170D01*
X122735219Y-59638134D01*
X122717976Y-59625346D01*
X122702070Y-59610930D01*
X122687654Y-59595024D01*
X122674866Y-59577781D01*
X122663830Y-59559368D01*
X122654651Y-59539962D01*
X122647419Y-59519750D01*
X122642203Y-59498926D01*
X122639053Y-59477691D01*
X122638000Y-59456250D01*
X122638000Y-58943750D01*
X122639053Y-58922309D01*
X122642203Y-58901074D01*
X122647419Y-58880250D01*
X122654651Y-58860038D01*
X122663830Y-58840632D01*
X122674866Y-58822219D01*
X122687654Y-58804976D01*
X122702070Y-58789070D01*
X122717976Y-58774654D01*
X122735219Y-58761866D01*
X122753632Y-58750830D01*
X122773038Y-58741651D01*
X122793250Y-58734419D01*
X122814074Y-58729203D01*
X122835309Y-58726053D01*
X122856750Y-58725000D01*
X123294250Y-58725000D01*
X123315691Y-58726053D01*
X123315691Y-58726053D01*
G37*
D18*
X123075500Y-59200000D03*
D16*
G36*
X121740691Y-58726053D02*
G01*
X121761926Y-58729203D01*
X121782750Y-58734419D01*
X121802962Y-58741651D01*
X121822368Y-58750830D01*
X121840781Y-58761866D01*
X121858024Y-58774654D01*
X121873930Y-58789070D01*
X121888346Y-58804976D01*
X121901134Y-58822219D01*
X121912170Y-58840632D01*
X121921349Y-58860038D01*
X121928581Y-58880250D01*
X121933797Y-58901074D01*
X121936947Y-58922309D01*
X121938000Y-58943750D01*
X121938000Y-59456250D01*
X121936947Y-59477691D01*
X121933797Y-59498926D01*
X121928581Y-59519750D01*
X121921349Y-59539962D01*
X121912170Y-59559368D01*
X121901134Y-59577781D01*
X121888346Y-59595024D01*
X121873930Y-59610930D01*
X121858024Y-59625346D01*
X121840781Y-59638134D01*
X121822368Y-59649170D01*
X121802962Y-59658349D01*
X121782750Y-59665581D01*
X121761926Y-59670797D01*
X121740691Y-59673947D01*
X121719250Y-59675000D01*
X121281750Y-59675000D01*
X121260309Y-59673947D01*
X121239074Y-59670797D01*
X121218250Y-59665581D01*
X121198038Y-59658349D01*
X121178632Y-59649170D01*
X121160219Y-59638134D01*
X121142976Y-59625346D01*
X121127070Y-59610930D01*
X121112654Y-59595024D01*
X121099866Y-59577781D01*
X121088830Y-59559368D01*
X121079651Y-59539962D01*
X121072419Y-59519750D01*
X121067203Y-59498926D01*
X121064053Y-59477691D01*
X121063000Y-59456250D01*
X121063000Y-58943750D01*
X121064053Y-58922309D01*
X121067203Y-58901074D01*
X121072419Y-58880250D01*
X121079651Y-58860038D01*
X121088830Y-58840632D01*
X121099866Y-58822219D01*
X121112654Y-58804976D01*
X121127070Y-58789070D01*
X121142976Y-58774654D01*
X121160219Y-58761866D01*
X121178632Y-58750830D01*
X121198038Y-58741651D01*
X121218250Y-58734419D01*
X121239074Y-58729203D01*
X121260309Y-58726053D01*
X121281750Y-58725000D01*
X121719250Y-58725000D01*
X121740691Y-58726053D01*
X121740691Y-58726053D01*
G37*
D18*
X121500500Y-59200000D03*
D16*
G36*
X118252691Y-58626053D02*
G01*
X118273926Y-58629203D01*
X118294750Y-58634419D01*
X118314962Y-58641651D01*
X118334368Y-58650830D01*
X118352781Y-58661866D01*
X118370024Y-58674654D01*
X118385930Y-58689070D01*
X118400346Y-58704976D01*
X118413134Y-58722219D01*
X118424170Y-58740632D01*
X118433349Y-58760038D01*
X118440581Y-58780250D01*
X118445797Y-58801074D01*
X118448947Y-58822309D01*
X118450000Y-58843750D01*
X118450000Y-59356250D01*
X118448947Y-59377691D01*
X118445797Y-59398926D01*
X118440581Y-59419750D01*
X118433349Y-59439962D01*
X118424170Y-59459368D01*
X118413134Y-59477781D01*
X118400346Y-59495024D01*
X118385930Y-59510930D01*
X118370024Y-59525346D01*
X118352781Y-59538134D01*
X118334368Y-59549170D01*
X118314962Y-59558349D01*
X118294750Y-59565581D01*
X118273926Y-59570797D01*
X118252691Y-59573947D01*
X118231250Y-59575000D01*
X117793750Y-59575000D01*
X117772309Y-59573947D01*
X117751074Y-59570797D01*
X117730250Y-59565581D01*
X117710038Y-59558349D01*
X117690632Y-59549170D01*
X117672219Y-59538134D01*
X117654976Y-59525346D01*
X117639070Y-59510930D01*
X117624654Y-59495024D01*
X117611866Y-59477781D01*
X117600830Y-59459368D01*
X117591651Y-59439962D01*
X117584419Y-59419750D01*
X117579203Y-59398926D01*
X117576053Y-59377691D01*
X117575000Y-59356250D01*
X117575000Y-58843750D01*
X117576053Y-58822309D01*
X117579203Y-58801074D01*
X117584419Y-58780250D01*
X117591651Y-58760038D01*
X117600830Y-58740632D01*
X117611866Y-58722219D01*
X117624654Y-58704976D01*
X117639070Y-58689070D01*
X117654976Y-58674654D01*
X117672219Y-58661866D01*
X117690632Y-58650830D01*
X117710038Y-58641651D01*
X117730250Y-58634419D01*
X117751074Y-58629203D01*
X117772309Y-58626053D01*
X117793750Y-58625000D01*
X118231250Y-58625000D01*
X118252691Y-58626053D01*
X118252691Y-58626053D01*
G37*
D18*
X118012500Y-59100000D03*
D16*
G36*
X119827691Y-58626053D02*
G01*
X119848926Y-58629203D01*
X119869750Y-58634419D01*
X119889962Y-58641651D01*
X119909368Y-58650830D01*
X119927781Y-58661866D01*
X119945024Y-58674654D01*
X119960930Y-58689070D01*
X119975346Y-58704976D01*
X119988134Y-58722219D01*
X119999170Y-58740632D01*
X120008349Y-58760038D01*
X120015581Y-58780250D01*
X120020797Y-58801074D01*
X120023947Y-58822309D01*
X120025000Y-58843750D01*
X120025000Y-59356250D01*
X120023947Y-59377691D01*
X120020797Y-59398926D01*
X120015581Y-59419750D01*
X120008349Y-59439962D01*
X119999170Y-59459368D01*
X119988134Y-59477781D01*
X119975346Y-59495024D01*
X119960930Y-59510930D01*
X119945024Y-59525346D01*
X119927781Y-59538134D01*
X119909368Y-59549170D01*
X119889962Y-59558349D01*
X119869750Y-59565581D01*
X119848926Y-59570797D01*
X119827691Y-59573947D01*
X119806250Y-59575000D01*
X119368750Y-59575000D01*
X119347309Y-59573947D01*
X119326074Y-59570797D01*
X119305250Y-59565581D01*
X119285038Y-59558349D01*
X119265632Y-59549170D01*
X119247219Y-59538134D01*
X119229976Y-59525346D01*
X119214070Y-59510930D01*
X119199654Y-59495024D01*
X119186866Y-59477781D01*
X119175830Y-59459368D01*
X119166651Y-59439962D01*
X119159419Y-59419750D01*
X119154203Y-59398926D01*
X119151053Y-59377691D01*
X119150000Y-59356250D01*
X119150000Y-58843750D01*
X119151053Y-58822309D01*
X119154203Y-58801074D01*
X119159419Y-58780250D01*
X119166651Y-58760038D01*
X119175830Y-58740632D01*
X119186866Y-58722219D01*
X119199654Y-58704976D01*
X119214070Y-58689070D01*
X119229976Y-58674654D01*
X119247219Y-58661866D01*
X119265632Y-58650830D01*
X119285038Y-58641651D01*
X119305250Y-58634419D01*
X119326074Y-58629203D01*
X119347309Y-58626053D01*
X119368750Y-58625000D01*
X119806250Y-58625000D01*
X119827691Y-58626053D01*
X119827691Y-58626053D01*
G37*
D18*
X119587500Y-59100000D03*
M02*
